<?xml version="1.0" standalone="no"?>
<!DOCTYPE svg PUBLIC "-//W3C//DTD SVG 20010904//EN"
 "http://www.w3.org/TR/2001/REC-SVG-20010904/DTD/svg10.dtd">
<svg version="1.0" xmlns="http://www.w3.org/2000/svg"
 width="695.000000pt" height="695.000000pt" viewBox="0 0 695.000000 695.000000"
 preserveAspectRatio="xMidYMid meet">
<metadata>
Created by potrace 1.14, written by Peter Selinger 2001-2017
</metadata>
<g transform="translate(0.000000,695.000000) scale(0.100000,-0.100000)"
fill="#000000" stroke="none">
<path d="M3580 5810 c0 -5 -13 -10 -30 -10 -16 0 -30 -4 -30 -10 0 -5 -7 -10
-15 -10 -26 0 -125 -107 -125 -135 0 -14 -4 -25 -10 -25 -6 0 -10 -43 -10
-110 0 -67 4 -110 10 -110 6 0 10 -7 10 -15 0 -20 105 -125 125 -125 8 0 15
-4 15 -10 0 -5 14 -10 30 -10 17 0 30 -4 30 -10 0 -6 30 -10 70 -10 40 0 70 4
70 10 0 6 14 10 30 10 17 0 30 5 30 10 0 6 7 10 15 10 19 0 85 64 85 82 0 8 9
20 20 28 11 8 20 22 20 32 0 10 4 18 9 18 12 0 12 188 0 195 -5 4 -9 14 -9 23
0 10 -9 24 -20 32 -11 8 -20 20 -20 28 0 17 -45 62 -62 62 -8 0 -20 9 -28 20
-8 12 -26 20 -42 20 -15 0 -28 4 -28 8 0 4 -31 9 -70 10 -43 2 -70 -2 -70 -8z"/>
<path d="M3463 4962 c-13 -2 -23 -7 -23 -11 0 -3 -35 -8 -77 -9 -43 -2 -79 -7
-81 -13 -2 -5 -21 -9 -43 -9 -21 0 -39 -4 -39 -8 0 -4 -12 -9 -27 -10 -15 -1
-29 -6 -32 -11 -3 -4 -14 -7 -24 -5 -9 1 -24 -4 -32 -13 -8 -8 -15 -11 -15 -8
0 4 -11 0 -25 -9 -14 -9 -25 -13 -25 -9 0 5 -4 2 -9 -6 -5 -8 -17 -16 -26 -17
-9 -1 -24 -11 -33 -21 -9 -10 -24 -19 -32 -21 -8 -2 -16 -8 -18 -13 -2 -5 -12
-9 -22 -9 -10 0 -28 -13 -41 -29 -13 -16 -27 -27 -31 -25 -9 6 -238 -220 -238
-234 0 -4 -9 -18 -21 -31 -12 -12 -22 -28 -23 -34 -1 -7 -11 -22 -24 -35 -12
-12 -19 -27 -17 -34 3 -7 -6 -26 -20 -42 -13 -16 -22 -32 -20 -36 3 -5 1 -10
-5 -12 -5 -1 -11 -12 -13 -23 -2 -11 -9 -30 -15 -42 -7 -13 -10 -23 -7 -23 4
0 0 -7 -8 -15 -9 -8 -13 -24 -10 -35 3 -13 0 -20 -8 -21 -8 0 -22 -2 -31 -4
-10 -2 -18 3 -18 10 0 9 -12 12 -36 11 -21 -1 -38 4 -41 11 -3 7 -23 12 -50
11 -25 0 -48 4 -52 10 -7 12 -313 13 -321 1 -3 -5 -21 -9 -40 -11 -19 -1 -37
-5 -40 -9 -3 -4 -16 -9 -30 -10 -14 -2 -27 -7 -30 -10 -3 -4 -16 -9 -30 -10
-14 -2 -28 -8 -31 -12 -3 -4 -17 -9 -30 -10 -13 0 -31 -9 -40 -19 -9 -10 -24
-18 -33 -18 -9 0 -16 -4 -16 -10 0 -5 -8 -10 -17 -10 -10 0 -29 -14 -42 -30
-13 -17 -32 -30 -43 -30 -10 0 -16 -4 -13 -10 3 -5 0 -10 -7 -10 -8 0 -20 -9
-28 -20 -8 -11 -22 -20 -32 -20 -11 0 -18 -7 -18 -19 0 -11 -9 -21 -21 -24
-15 -4 -20 -11 -16 -21 4 -9 2 -16 -3 -16 -12 0 -60 -49 -57 -58 1 -4 -12 -22
-28 -41 -17 -18 -29 -38 -27 -43 1 -4 -5 -11 -13 -14 -8 -3 -13 -10 -10 -14 3
-5 -2 -16 -11 -24 -8 -9 -13 -16 -9 -16 3 0 0 -10 -7 -22 -6 -13 -13 -32 -15
-43 -2 -11 -8 -22 -13 -23 -6 -2 -8 -7 -5 -12 3 -5 0 -14 -7 -22 -7 -7 -14
-28 -15 -47 -1 -19 -6 -37 -11 -40 -5 -3 -8 -33 -8 -66 1 -33 -4 -65 -10 -72
-13 -14 -11 -158 3 -193 6 -14 9 -42 7 -63 -3 -25 0 -39 8 -42 8 -3 13 -21 12
-45 0 -23 4 -38 10 -37 6 1 10 -6 8 -16 -2 -9 3 -20 11 -23 9 -3 12 -14 9 -29
-3 -16 1 -27 11 -31 9 -3 13 -12 10 -20 -3 -8 0 -14 6 -14 6 0 11 -9 11 -20 0
-11 5 -20 10 -20 6 0 10 -9 10 -20 0 -11 5 -20 10 -20 6 0 10 -9 10 -20 0 -18
4 -21 25 -20 3 1 12 -5 19 -12 7 -8 31 -13 52 -13 21 1 44 -4 50 -10 7 -6 56
-10 133 -9 90 0 121 -2 121 -12 0 -7 8 -10 20 -7 14 4 20 14 20 35 0 25 -3 29
-20 25 -11 -3 -20 -1 -20 4 0 13 -88 98 -95 91 -3 -3 -5 2 -5 11 0 10 -4 17
-10 17 -5 0 -10 9 -10 20 0 11 -4 20 -10 20 -5 0 -10 9 -10 20 0 11 -4 20 -10
20 -5 0 -10 9 -10 20 0 11 -5 20 -11 20 -6 0 -9 9 -6 20 3 11 -2 27 -10 36 -8
8 -13 23 -10 34 3 10 -1 21 -8 24 -9 3 -13 24 -12 62 0 35 -4 59 -11 62 -16 5
-15 23 1 20 14 -3 10 34 -5 43 -6 4 -6 8 2 11 8 2 12 23 11 61 0 32 3 57 9 57
6 0 10 15 10 34 0 19 5 38 10 41 6 3 10 16 10 29 0 12 9 32 21 44 11 13 21 33
22 45 1 12 14 34 29 49 15 14 28 31 28 37 0 17 87 101 105 101 8 0 15 9 15 20
0 13 7 20 20 20 11 0 20 5 20 10 0 6 8 10 18 10 10 0 24 9 32 20 8 12 26 20
42 20 15 0 28 5 28 10 0 6 14 10 30 10 17 0 30 5 30 10 0 6 14 10 30 10 17 0
30 4 30 10 0 5 52 9 130 8 72 0 130 -5 130 -9 0 -5 20 -9 44 -9 25 0 48 -4 51
-10 3 -5 15 -10 26 -10 10 0 19 -4 19 -10 0 -5 13 -10 28 -10 16 0 34 -8 42
-20 8 -11 19 -20 25 -20 5 0 24 -14 42 -30 18 -17 40 -30 49 -30 10 0 14 -3
11 -6 -4 -4 9 -19 28 -34 19 -15 32 -30 28 -34 -3 -3 1 -6 11 -6 9 0 15 -4 12
-9 -3 -5 1 -12 10 -15 8 -3 14 -14 12 -24 -4 -23 19 -52 41 -52 12 0 16 10 16
40 1 22 -4 40 -10 40 -15 0 -13 186 2 201 10 10 9 15 -5 25 -15 11 -15 14 -1
31 9 11 15 35 15 60 -1 24 4 45 10 47 6 2 10 18 9 35 -2 21 3 35 14 41 9 5 12
10 7 10 -4 0 -2 10 6 23 8 12 14 32 13 45 -1 12 2 22 6 22 15 0 40 33 35 45
-3 8 2 16 11 19 9 4 13 9 10 12 -3 3 4 16 15 29 11 13 21 27 22 31 0 5 19 28
41 52 22 24 40 49 40 56 0 6 6 11 12 11 7 0 33 20 59 43 25 24 48 41 51 38 3
-2 16 6 30 20 13 13 29 22 34 19 5 -4 9 1 9 10 0 9 5 13 10 10 6 -3 10 -1 10
4 0 6 6 11 14 11 8 0 21 7 29 15 8 8 24 13 35 10 12 -2 23 3 26 12 3 8 12 13
18 11 7 -3 19 1 26 9 8 7 18 10 23 7 6 -3 18 0 27 8 10 9 36 14 62 13 25 -1
51 3 59 9 19 15 261 15 261 0 0 -7 19 -11 55 -9 35 1 59 -3 65 -11 6 -6 22
-11 35 -9 17 1 25 -3 25 -13 0 -8 3 -12 6 -9 4 3 16 1 28 -6 11 -6 26 -12 31
-12 18 -1 75 -30 75 -38 0 -5 4 -6 9 -3 5 4 23 -5 40 -20 17 -14 35 -23 41
-19 5 3 10 1 10 -5 0 -14 51 -59 68 -60 6 0 12 -4 12 -9 0 -5 9 -13 21 -16 11
-4 18 -9 15 -12 -2 -3 6 -16 20 -30 13 -13 24 -28 24 -34 0 -6 15 -23 32 -40
18 -16 28 -29 23 -29 -5 0 3 -13 18 -28 15 -16 24 -31 21 -35 -4 -4 1 -9 10
-13 9 -3 14 -10 11 -14 -3 -4 2 -11 11 -14 8 -3 12 -10 9 -16 -3 -6 0 -17 8
-25 9 -8 14 -23 13 -32 -2 -10 3 -23 10 -30 7 -7 11 -22 9 -32 -2 -11 2 -22
10 -24 8 -4 11 -17 9 -37 -2 -18 1 -33 9 -36 9 -3 12 -28 11 -79 0 -61 3 -78
18 -92 11 -9 18 -11 18 -5 0 7 7 12 16 12 8 0 12 5 9 10 -3 6 1 10 10 10 9 0
13 5 10 10 -3 6 1 10 10 10 9 0 13 5 10 10 -3 6 1 10 10 10 9 0 13 5 10 10 -4
6 5 10 20 10 15 0 24 4 20 10 -4 6 5 10 20 10 15 0 24 4 20 10 -3 6 1 10 10
10 9 0 13 5 10 10 -3 6 2 10 12 10 41 1 62 49 36 82 -6 7 -9 28 -8 46 1 19 -4
39 -10 45 -6 7 -11 27 -10 45 0 20 -5 37 -14 41 -8 5 -11 15 -8 25 4 10 1 16
-8 16 -8 0 -15 9 -15 19 0 11 -5 23 -11 27 -6 3 -9 15 -6 25 3 10 1 21 -4 24
-5 3 -16 23 -26 43 -9 20 -25 45 -36 54 -10 9 -17 19 -15 22 2 3 -6 18 -17 32
-11 15 -20 30 -20 35 0 4 -13 20 -30 36 -16 15 -31 34 -33 41 -3 17 -128 143
-134 136 -3 -2 -24 14 -47 36 -22 22 -46 40 -51 40 -6 0 -22 12 -35 26 -14 15
-25 24 -25 21 0 -4 -20 5 -45 19 -25 13 -45 21 -45 17 0 -4 -5 0 -11 10 -6 9
-14 15 -20 12 -5 -4 -16 1 -25 9 -9 9 -20 14 -25 11 -5 -4 -9 -3 -9 2 0 11
-60 37 -87 38 -12 0 -25 3 -29 8 -4 4 -21 7 -39 7 -17 0 -35 4 -41 10 -5 5
-43 11 -84 12 -41 1 -78 6 -81 10 -6 9 -133 16 -176 10z"/>
<path d="M1215 4819 c-3 -9 -17 -16 -32 -16 -14 0 -28 -5 -32 -11 -4 -6 -15
-10 -26 -8 -22 3 -140 -108 -130 -124 3 -5 -3 -13 -12 -19 -10 -6 -14 -11 -9
-11 5 0 2 -7 -5 -17 -10 -11 -14 -45 -14 -107 -1 -74 2 -94 16 -107 10 -8 19
-21 21 -29 6 -27 115 -129 134 -126 11 2 22 -1 25 -6 4 -6 31 -10 60 -11 30
-1 57 -6 61 -11 4 -6 12 -5 21 3 9 7 21 11 29 10 7 -2 32 7 56 19 23 12 42 20
42 16 0 -3 7 1 15 10 8 8 15 19 15 25 0 5 9 13 20 16 12 4 20 15 20 28 0 12 9
28 20 35 11 7 20 23 20 36 0 14 5 28 10 31 6 3 10 35 10 70 0 35 -4 67 -10 70
-5 3 -10 19 -10 35 0 15 -6 30 -14 33 -8 3 -22 22 -31 41 -10 20 -21 36 -25
36 -4 0 -18 9 -31 20 -13 11 -29 23 -34 28 -6 5 -16 7 -23 4 -6 -2 -15 3 -18
12 -4 11 -15 14 -36 11 -17 -3 -37 0 -45 7 -11 9 -16 9 -23 -1 -6 -10 -10 -9
-18 5 -9 17 -11 17 -17 3z"/>
<path d="M5962 4434 c-6 -7 -18 -11 -26 -8 -8 3 -17 1 -21 -5 -3 -6 -13 -11
-21 -11 -8 0 -20 -5 -27 -10 -7 -6 -24 -20 -40 -31 -15 -11 -25 -25 -22 -30 4
-5 -4 -9 -17 -9 -16 0 -19 -3 -10 -9 11 -7 10 -9 -3 -15 -9 -3 -13 -10 -10
-16 3 -5 1 -10 -4 -10 -6 0 -11 -8 -11 -18 0 -10 -6 -24 -12 -31 -11 -11 -10
-12 2 -6 12 6 13 5 3 -6 -15 -15 -18 -149 -3 -149 5 0 7 -6 4 -13 -3 -8 2 -20
11 -27 8 -7 15 -21 15 -32 0 -10 5 -16 10 -13 6 3 10 -3 10 -15 0 -12 5 -18
10 -15 6 3 10 -1 10 -10 0 -9 4 -13 10 -10 5 3 19 -6 32 -20 12 -14 30 -25 40
-25 12 0 16 -4 12 -12 -4 -7 -3 -8 5 -4 6 4 23 0 38 -9 14 -9 22 -12 19 -6 -4
6 -2 11 3 11 6 0 11 -5 11 -11 0 -8 6 -7 17 2 11 10 14 10 9 2 -4 -7 -3 -13 1
-13 5 0 15 6 22 13 8 6 11 7 8 1 -3 -6 0 -11 8 -11 8 0 11 5 8 10 -4 6 1 8 11
4 9 -4 27 0 40 8 12 8 25 13 28 10 3 -3 11 1 18 10 7 8 16 15 21 15 15 0 100
91 94 100 -3 5 0 10 7 12 6 2 12 11 14 19 5 32 9 44 19 51 6 5 5 8 -3 8 -8 0
-10 5 -5 13 10 15 10 87 1 87 -5 0 -8 5 -8 11 0 5 6 7 13 3 6 -4 5 1 -4 12 -8
10 -15 26 -14 34 0 8 -10 25 -23 38 -12 13 -19 29 -16 35 4 7 4 9 0 6 -4 -4
-25 11 -46 32 -22 22 -43 38 -47 37 -4 -1 -18 3 -30 10 -13 7 -23 10 -23 6 0
-3 -8 0 -17 7 -15 12 -16 12 -8 -1 8 -13 6 -13 -8 -2 -9 8 -22 10 -28 6 -8 -4
-9 -3 -5 4 9 14 -3 15 -24 2 -8 -5 -19 -5 -25 0 -6 4 -15 2 -23 -6z"/>
<path d="M5194 3720 c-5 -5 -34 -10 -64 -11 -30 -1 -57 -6 -60 -10 -3 -5 -21
-9 -40 -10 -33 -1 -63 -10 -102 -30 -10 -5 -24 -9 -32 -9 -7 0 -26 -7 -42 -14
-15 -8 -32 -12 -37 -9 -6 3 -7 1 -3 -5 5 -8 -2 -12 -18 -12 -14 0 -26 -4 -26
-10 0 -5 -9 -10 -20 -10 -11 0 -20 -4 -20 -10 0 -5 -9 -10 -21 -10 -11 0 -17
-4 -14 -10 5 -9 -16 -15 -38 -11 -5 1 -6 -3 -2 -9 3 -5 -1 -10 -10 -10 -9 0
-13 -4 -10 -10 4 -6 -5 -10 -20 -10 -14 0 -24 -4 -21 -8 3 -5 -6 -15 -19 -22
-14 -7 -25 -17 -25 -22 0 -4 -7 -8 -17 -8 -9 0 -13 -3 -10 -7 4 -3 -9 -17 -28
-30 -19 -13 -35 -28 -35 -33 0 -6 -8 -10 -17 -10 -9 0 -14 -3 -10 -6 3 -4 -11
-22 -31 -42 -20 -19 -30 -32 -22 -28 9 4 8 2 -2 -7 -10 -8 -18 -20 -18 -26 0
-7 -4 -10 -9 -7 -5 4 -15 -7 -23 -24 -7 -16 -16 -30 -20 -30 -5 0 -8 -6 -8
-13 0 -7 -9 -19 -20 -27 -11 -8 -20 -22 -20 -32 0 -10 -5 -18 -12 -18 -6 0 -8
-3 -5 -6 4 -4 -2 -19 -13 -34 -11 -15 -17 -30 -13 -34 3 -3 0 -6 -7 -6 -7 0
-10 -3 -7 -7 4 -3 2 -12 -4 -20 -6 -7 -8 -13 -4 -13 4 0 1 -10 -7 -22 -8 -13
-14 -30 -13 -38 0 -8 -3 -18 -8 -21 -5 -3 -9 -12 -10 -20 -2 -8 -7 -20 -11
-28 -7 -11 -6 -12 5 -6 11 7 12 6 2 -6 -6 -8 -12 -27 -14 -44 -2 -16 -7 -36
-12 -42 -5 -7 -10 -30 -10 -52 -1 -22 -5 -37 -10 -34 -6 4 -8 -5 -5 -21 3 -14
1 -26 -3 -26 -5 0 -6 -7 -3 -15 4 -8 13 -15 21 -15 9 0 11 -5 7 -12 -5 -9 -2
-9 9 1 11 9 17 10 17 2 0 -6 17 -11 39 -11 22 0 42 -4 46 -10 3 -5 12 -7 20
-3 8 3 15 0 15 -6 0 -6 7 -8 15 -5 8 4 21 2 28 -4 6 -5 19 -10 27 -10 8 -1 28
-3 43 -5 18 -3 31 1 34 9 3 8 10 11 17 7 6 -4 5 1 -3 10 -7 9 -9 17 -4 17 5 0
9 9 10 20 1 12 -3 18 -9 14 -6 -4 -5 3 2 16 6 12 9 24 6 27 -3 3 1 11 8 19 7
7 12 24 11 38 -2 14 1 26 5 26 5 0 7 9 5 20 -2 11 1 20 7 20 6 0 8 3 5 7 -4 3
-1 13 6 21 8 11 8 13 0 9 -8 -5 -8 -1 0 17 7 13 16 22 22 18 5 -3 3 3 -5 13
-13 17 -13 18 0 13 11 -4 16 1 18 15 0 12 6 23 11 25 5 2 7 10 4 18 -3 7 2 17
11 20 9 3 14 10 11 14 -3 5 2 16 11 24 8 9 12 16 8 16 -4 0 3 9 15 19 13 11
20 25 16 30 -3 6 0 11 7 11 14 0 44 39 40 53 -1 4 4 6 11 5 6 -2 11 3 9 10 -1
6 4 11 10 10 7 -2 12 3 10 10 -1 8 2 11 7 8 5 -4 21 5 35 19 14 14 30 25 36
25 6 0 8 5 5 10 -3 6 3 10 15 10 12 0 18 5 15 10 -3 6 3 10 15 10 12 0 18 5
15 10 -3 6 3 10 15 10 12 0 18 5 15 10 -4 6 5 10 19 10 14 0 26 5 26 10 0 6
12 10 26 10 14 0 23 4 19 10 -6 10 13 14 49 10 11 -1 15 3 12 9 -5 7 4 11 23
11 16 0 32 6 34 13 4 10 6 10 6 0 1 -7 6 -13 12 -13 5 0 7 5 4 10 -6 9 30 15
63 11 8 -1 21 4 30 11 12 10 14 10 8 1 -4 -7 -2 -13 3 -13 6 0 11 5 11 10 0 6
5 10 11 10 5 0 8 -4 5 -8 -6 -10 100 -9 110 0 3 4 14 4 23 -1 9 -4 35 -9 59
-10 24 0 52 -5 62 -11 10 -5 28 -10 40 -10 12 0 19 -4 16 -9 -3 -4 2 -8 12 -8
40 0 53 -4 47 -13 -4 -6 -3 -10 2 -9 4 1 19 1 33 0 20 -1 22 -3 10 -12 -12 -8
-12 -9 5 -7 22 3 85 -31 85 -46 0 -5 3 -7 6 -3 4 3 12 1 19 -6 7 -7 24 -20 39
-31 14 -10 23 -23 19 -29 -3 -5 -2 -7 4 -4 13 8 55 -22 48 -34 -4 -5 -1 -9 5
-9 16 0 64 -50 48 -51 -7 0 -3 -4 10 -10 13 -5 20 -13 17 -19 -3 -5 1 -10 9
-10 9 0 16 -9 16 -20 0 -11 5 -20 10 -20 6 0 10 -9 10 -21 0 -11 5 -17 10 -14
6 3 10 -1 10 -9 0 -9 5 -16 11 -16 6 0 9 -7 5 -15 -3 -8 -1 -15 5 -15 6 0 7
-4 4 -10 -3 -5 -1 -10 5 -10 7 0 10 -7 6 -15 -3 -9 0 -15 8 -15 7 0 13 -8 13
-17 0 -45 4 -64 12 -59 4 3 8 -5 8 -17 1 -55 4 -71 11 -60 4 6 8 -11 9 -38 1
-28 7 -56 13 -64 8 -9 8 -15 0 -20 -8 -5 -8 -10 0 -20 8 -10 8 -15 -1 -21 -8
-5 -9 -3 -4 6 6 9 4 11 -5 5 -10 -6 -9 -11 4 -21 13 -9 14 -13 4 -17 -11 -4
-11 -8 0 -27 10 -16 10 -20 1 -14 -9 5 -11 2 -6 -9 3 -9 1 -18 -6 -21 -9 -3
-8 -5 1 -5 9 -1 10 -6 4 -19 -5 -9 -8 -25 -7 -35 3 -13 0 -15 -9 -8 -10 8 -11
4 -8 -19 2 -16 1 -38 -3 -47 -10 -23 -15 -43 -18 -70 -1 -13 -5 -23 -8 -23 -9
0 -33 -54 -30 -69 1 -7 -2 -11 -7 -7 -5 3 -15 -10 -22 -29 -8 -19 -17 -35 -22
-35 -4 0 -8 -6 -8 -14 0 -7 -13 -27 -29 -44 -16 -16 -27 -33 -24 -36 4 -3 0
-6 -7 -6 -17 0 -51 -40 -44 -51 3 -5 -2 -9 -11 -9 -10 0 -30 -13 -45 -30 -15
-16 -34 -30 -42 -30 -7 0 -19 -9 -26 -20 -7 -11 -21 -20 -33 -20 -11 0 -17 -4
-14 -10 3 -5 -1 -10 -10 -10 -9 0 -27 -8 -42 -17 -14 -10 -35 -19 -47 -20 -12
-2 -22 -8 -24 -13 -2 -6 -19 -10 -38 -10 -21 0 -33 -4 -29 -10 3 -6 -5 -10
-19 -10 -14 0 -28 -5 -31 -10 -3 -6 -12 -10 -18 -10 -7 0 -6 4 3 10 9 6 10 10
3 10 -6 0 -14 -4 -18 -9 -3 -5 -33 -10 -66 -10 -35 0 -68 -6 -77 -13 -9 -7
-13 -8 -9 -2 5 8 -11 12 -55 13 -38 0 -65 5 -70 13 -6 10 -8 10 -8 1 0 -7 -5
-13 -11 -13 -5 0 -7 6 -3 13 5 7 0 6 -11 -3 -11 -9 -16 -10 -11 -2 5 8 -1 12
-23 12 -16 0 -31 5 -33 11 -2 5 -18 11 -35 11 -18 1 -30 5 -27 10 3 4 -9 8
-25 8 -17 0 -31 5 -31 10 0 6 -7 10 -15 10 -8 0 -15 5 -15 10 0 6 -7 10 -15
10 -8 0 -15 5 -15 11 0 5 -4 8 -9 5 -4 -3 -21 6 -37 19 -16 14 -37 25 -46 25
-10 0 -18 5 -18 10 0 6 -7 10 -15 10 -8 0 -15 5 -15 10 0 6 -9 10 -21 10 -11
0 -17 5 -14 10 3 6 -2 10 -13 10 -10 0 -28 9 -40 20 -12 11 -28 20 -37 20 -8
0 -15 5 -15 10 0 6 -14 10 -31 10 -17 0 -28 4 -24 10 4 6 -7 10 -25 10 -17 0
-29 4 -26 8 2 4 -5 9 -16 9 -12 1 -24 7 -28 14 -6 8 -9 8 -13 -2 -4 -10 -6
-10 -6 -1 -1 6 -12 12 -26 12 -14 0 -25 5 -25 10 0 6 -13 10 -29 10 -17 0 -33
5 -36 10 -3 6 -26 10 -51 10 -25 0 -43 4 -40 8 3 4 -5 8 -17 9 -100 2 -108 3
-101 16 5 7 0 6 -11 -3 -11 -9 -16 -10 -11 -2 4 6 3 12 -3 12 -5 0 -12 -6 -14
-12 -4 -10 -6 -10 -6 0 -1 17 -342 17 -359 0 -10 -10 -15 -10 -21 1 -6 8 -10
9 -12 2 -2 -6 -28 -11 -57 -12 -29 -1 -55 -6 -58 -11 -3 -4 -23 -8 -44 -8 -21
0 -42 -4 -45 -10 -3 -5 -22 -10 -41 -10 -21 0 -33 -4 -29 -10 4 -6 -5 -10 -20
-10 -14 0 -35 -5 -48 -12 -48 -24 -57 -28 -77 -28 -11 0 -20 -4 -20 -10 0 -5
-9 -10 -20 -10 -11 0 -20 -4 -20 -10 0 -5 -12 -10 -26 -10 -14 0 -23 -4 -19
-10 3 -5 -3 -10 -14 -10 -12 0 -21 -4 -21 -10 0 -5 -10 -10 -22 -10 -12 0 -18
-3 -15 -6 7 -8 -79 -54 -99 -54 -7 0 -14 -3 -16 -7 -4 -11 -87 -53 -104 -53
-14 0 -25 -4 -71 -28 -13 -7 -32 -12 -43 -12 -11 0 -20 -4 -20 -10 0 -5 -5
-10 -11 -10 -5 0 -8 4 -5 8 3 5 -1 9 -9 9 -8 0 -12 -4 -9 -9 3 -4 -5 -9 -18
-10 -42 -2 -47 -3 -54 -11 -4 -4 -20 -7 -36 -7 -16 0 -27 -4 -24 -9 8 -12 -27
-8 -36 4 -5 6 -8 5 -8 -2 0 -18 -381 -17 -392 0 -5 8 -8 7 -8 -3 0 -12 -2 -12
-8 -2 -5 7 -29 13 -56 14 -31 0 -43 4 -35 9 9 6 -1 9 -28 9 -28 0 -43 5 -43
13 0 8 -4 7 -10 -3 -5 -8 -10 -10 -10 -4 0 6 -23 17 -50 24 -28 7 -50 17 -50
22 0 4 -13 8 -30 8 -16 0 -30 5 -30 10 0 6 -9 10 -20 10 -11 0 -20 5 -20 10 0
6 -9 10 -19 10 -11 0 -21 4 -23 10 -2 5 -15 11 -30 12 -15 1 -24 6 -22 10 3 4
-2 8 -10 8 -9 0 -16 5 -16 10 0 6 -8 10 -18 10 -10 0 -24 9 -32 20 -8 11 -23
20 -33 20 -10 0 -15 4 -12 10 3 5 -1 10 -9 10 -9 0 -16 5 -16 10 0 6 -6 10
-13 10 -6 0 -38 25 -71 55 -32 30 -63 52 -69 48 -5 -3 -7 -2 -4 4 3 5 -3 15
-13 23 -10 8 -17 17 -14 22 3 4 -2 8 -11 8 -8 0 -19 8 -22 18 -4 9 -15 24 -25
33 -10 9 -15 19 -11 23 3 3 1 6 -6 6 -7 0 -19 7 -27 15 -9 8 -13 15 -9 15 4 0
0 7 -7 15 -31 34 -36 43 -31 49 4 3 -1 6 -11 6 -9 0 -14 5 -11 10 3 6 1 10 -5
10 -7 0 -10 6 -7 14 3 8 -1 17 -9 20 -9 3 -13 9 -11 13 7 11 -19 33 -29 25 -4
-4 -4 1 -1 11 4 9 2 17 -4 17 -6 0 -7 5 -4 10 3 6 1 10 -4 10 -6 0 -11 9 -11
20 0 11 -4 20 -10 20 -5 0 -9 6 -7 13 1 6 -3 11 -10 10 -7 -2 -10 3 -7 11 3 8
0 17 -7 22 -8 5 -10 3 -4 -7 7 -11 6 -12 -6 -3 -8 6 -36 12 -64 13 -27 2 -55
7 -62 13 -8 6 -19 5 -34 -2 -17 -10 -23 -9 -30 1 -8 12 -10 12 -18 0 -5 -7
-11 -9 -14 -4 -3 5 -21 9 -39 8 -18 -1 -43 2 -55 7 -14 5 -23 4 -23 -3 0 -6
-4 -7 -10 -4 -5 3 -10 1 -10 -4 0 -6 4 -11 9 -11 5 0 8 -8 7 -17 0 -10 4 -17
10 -16 6 1 10 -9 8 -22 -1 -16 3 -25 11 -25 7 0 12 -8 11 -17 -2 -10 3 -24 11
-31 7 -8 11 -18 8 -23 -4 -5 -1 -9 4 -9 6 0 11 -6 11 -13 0 -7 9 -23 20 -35
12 -12 16 -22 10 -22 -6 0 -4 -7 4 -16 9 -8 13 -20 10 -26 -4 -7 -2 -8 4 -4 7
4 12 1 12 -8 0 -9 4 -16 10 -16 5 0 9 -3 9 -7 -3 -19 3 -32 25 -58 13 -15 22
-34 19 -42 -3 -8 2 -13 16 -13 12 0 20 -3 19 -7 -4 -17 14 -53 28 -53 8 0 13
-3 13 -7 -3 -20 2 -34 11 -28 5 3 10 -1 10 -9 0 -9 4 -16 9 -16 5 0 11 -9 14
-20 3 -11 13 -20 22 -20 9 0 13 -4 10 -10 -3 -5 -1 -10 5 -10 6 0 8 -5 5 -10
-3 -6 1 -10 10 -10 9 0 13 -4 10 -10 -3 -5 2 -10 11 -10 10 0 15 -3 11 -6 -7
-7 38 -54 52 -54 5 0 13 -9 16 -20 3 -11 13 -20 21 -20 8 0 13 -4 10 -9 -4 -5
7 -15 23 -22 16 -7 27 -17 25 -21 -3 -4 2 -8 10 -8 9 0 16 -4 16 -10 0 -5 7
-10 15 -10 8 0 20 -9 27 -20 7 -11 16 -20 21 -20 4 0 19 -11 33 -25 14 -14 30
-23 35 -20 5 4 9 1 9 -4 0 -6 7 -11 15 -11 8 0 15 -4 15 -10 0 -5 7 -10 15
-10 8 0 15 -6 15 -12 0 -9 4 -8 10 2 8 13 10 12 10 -3 0 -10 5 -15 10 -12 6 3
10 1 10 -4 0 -6 9 -11 21 -11 11 0 17 -4 14 -10 -3 -5 2 -10 13 -10 10 0 27
-8 38 -18 11 -11 28 -18 37 -16 10 1 24 -4 31 -12 8 -8 22 -14 30 -14 9 0 16
-4 16 -10 0 -5 14 -10 30 -10 17 0 30 -4 30 -10 0 -5 11 -10 24 -10 14 0 28
-5 31 -10 3 -5 20 -10 36 -10 18 0 28 -4 24 -10 -4 -6 12 -10 39 -10 25 0 46
-4 46 -8 0 -5 21 -9 47 -11 26 -1 50 -6 53 -12 4 -5 26 -10 51 -10 24 -1 49
-4 54 -8 17 -9 35 -10 29 0 -3 5 0 9 5 9 6 0 11 -5 11 -10 0 -7 7 -7 21 0 14
8 24 8 33 1 16 -14 227 -11 245 3 12 9 13 8 6 -4 -7 -13 -6 -13 7 -2 13 10 17
10 21 0 4 -10 6 -10 6 0 1 8 20 12 60 12 33 0 61 4 63 10 1 5 22 11 46 12 23
1 42 5 42 10 0 4 18 8 39 8 22 0 43 4 46 10 3 5 17 10 30 10 13 0 27 5 30 10
4 6 11 8 16 5 5 -4 9 -2 9 4 0 5 8 8 18 7 9 -2 20 1 23 5 3 5 17 10 31 11 15
1 24 6 22 10 -5 7 19 12 39 9 5 -1 6 3 2 9 -3 6 3 10 15 10 13 0 19 4 14 12
-4 6 -3 8 3 5 5 -3 22 1 37 9 16 7 35 14 43 14 8 0 11 5 8 10 -3 6 3 10 14 10
12 0 21 5 21 10 0 6 9 10 21 10 11 0 17 5 14 10 -4 6 5 10 20 10 15 0 24 4 20
10 -3 6 3 10 14 10 12 0 21 5 21 10 0 6 9 10 20 10 11 0 20 5 20 10 0 6 11 10
24 10 14 0 28 5 31 10 3 5 15 10 26 10 10 0 19 4 19 8 0 8 14 12 53 13 9 0 15
4 12 10 -4 5 8 9 24 9 17 0 31 5 31 11 0 8 6 7 17 -2 13 -11 15 -11 9 -1 -5 9
-3 13 5 11 39 -5 70 2 63 14 -5 7 0 6 11 -3 10 -8 16 -10 12 -4 -4 7 10 11 40
13 25 0 52 6 59 12 8 7 14 7 19 -1 3 -5 11 -10 16 -10 6 0 8 4 5 8 -3 5 1 9 9
9 8 0 12 -4 9 -9 -3 -4 0 -8 5 -8 6 0 11 5 11 10 0 6 5 10 11 10 5 0 8 -4 5
-8 -3 -5 1 -9 9 -9 8 0 11 5 8 11 -4 6 1 5 10 -3 13 -10 17 -10 17 -1 0 8 4 9
13 3 10 -8 32 -10 40 -3 7 6 36 7 32 1 -4 -7 13 -9 108 -14 9 -1 17 -5 17 -10
0 -5 8 -3 17 4 11 10 14 10 9 2 -5 -10 4 -13 33 -13 26 0 41 -5 41 -12 0 -9 4
-8 10 2 6 10 10 11 10 3 0 -8 13 -13 31 -13 16 0 28 -4 25 -8 -3 -5 9 -9 27
-10 17 0 33 -6 35 -11 2 -6 15 -11 28 -11 13 0 24 -4 24 -10 0 -5 12 -10 26
-10 14 0 23 -4 19 -10 -4 -6 5 -10 20 -10 15 0 24 -4 20 -10 -3 -6 0 -10 7
-10 20 0 68 -24 68 -33 0 -5 4 -6 9 -3 5 3 14 -1 21 -9 7 -8 17 -15 22 -15 15
0 38 -27 30 -35 -4 -4 -2 -6 3 -5 23 5 46 -1 40 -10 -4 -6 5 -10 20 -10 15 0
24 -4 20 -10 -3 -5 3 -10 14 -10 12 0 21 -4 21 -10 0 -5 9 -10 20 -10 11 0 20
-4 20 -10 0 -5 9 -10 19 -10 11 0 21 -4 23 -10 2 -5 15 -11 31 -12 15 -1 27
-6 27 -10 0 -4 14 -8 30 -8 17 0 30 -5 30 -10 0 -6 3 -9 8 -9 27 5 82 -3 78
-10 -3 -5 10 -9 29 -9 20 0 43 -6 52 -13 12 -10 15 -10 9 -1 -4 7 -1 12 8 12
9 0 16 -4 16 -9 0 -11 19 -9 39 3 9 6 12 5 8 -1 -8 -12 161 -12 181 0 7 5 12
3 12 -4 0 -7 4 -8 13 -2 6 5 30 11 52 12 40 2 95 16 127 32 10 5 33 9 52 9 19
0 36 4 38 10 2 5 15 11 30 12 15 1 25 5 23 9 -3 3 13 12 35 19 22 7 38 16 35
19 -2 4 6 8 18 8 12 1 23 7 25 13 2 5 10 10 18 10 8 0 14 4 14 8 0 4 16 14 35
21 19 7 33 16 31 20 -3 4 9 13 25 20 16 7 27 17 23 22 -3 5 4 9 15 9 11 0 25
9 31 20 6 11 15 20 21 20 6 0 17 7 25 15 9 8 13 15 9 15 -4 0 0 7 9 15 8 8 20
15 27 15 7 0 10 3 6 6 -8 8 18 34 35 34 10 0 9 3 -2 10 -13 8 -12 10 3 10 9 0
17 7 17 15 0 9 7 18 15 21 8 4 12 10 9 15 -3 5 3 9 12 9 10 0 15 3 11 6 -3 4
1 13 9 21 8 8 12 19 9 24 -4 5 1 9 9 9 9 0 16 7 16 15 0 8 4 15 10 15 5 0 7 7
4 15 -4 8 -2 15 3 15 5 0 17 18 27 40 10 22 21 40 25 40 4 0 8 7 9 15 1 8 3
22 4 30 1 8 5 15 10 15 5 0 7 4 3 9 -3 5 0 15 7 23 7 7 14 20 16 28 2 8 9 18
15 22 9 6 9 8 -1 8 -10 0 -10 5 -2 20 6 11 8 20 4 20 -3 0 -1 7 6 15 6 8 9 19
6 24 -4 5 -2 12 3 15 5 3 7 22 5 41 -2 26 0 34 9 28 7 -4 5 2 -3 12 -12 15
-12 17 -1 10 11 -6 13 -4 8 7 -3 9 0 21 6 27 8 8 8 11 -2 11 -11 0 -11 3 -1
15 7 8 9 15 6 15 -4 0 -2 9 4 19 5 11 7 22 2 24 -4 3 -6 36 -6 74 1 37 -1 72
-4 78 -10 17 -9 45 2 45 5 0 1 7 -10 16 -10 8 -12 12 -4 8 12 -6 13 -5 4 7 -6
8 -11 33 -10 57 1 24 -3 41 -9 38 -6 -2 -10 14 -10 38 0 23 -5 40 -11 39 -6
-1 -10 11 -9 27 1 16 -4 31 -11 34 -7 3 -11 13 -10 23 2 10 -3 24 -11 31 -7 8
-11 18 -8 23 4 5 1 9 -4 9 -6 0 -11 7 -11 15 0 9 -6 18 -14 21 -7 3 -12 16
-10 30 1 16 -3 24 -12 24 -9 0 -12 5 -9 10 3 6 0 10 -7 10 -9 0 -9 3 2 10 12
8 10 10 -8 10 -14 0 -21 4 -17 11 4 5 -2 18 -14 28 -11 10 -18 21 -14 25 3 3
-1 6 -11 6 -9 0 -15 4 -12 9 3 5 -1 14 -9 21 -8 7 -12 17 -8 24 3 6 3 8 -2 4
-7 -7 -35 14 -35 27 0 3 -11 17 -25 31 -14 14 -25 22 -25 19 0 -3 -6 0 -14 7
-10 9 -11 15 -2 20 7 5 5 8 -6 8 -10 0 -31 14 -46 30 -16 17 -34 30 -41 30 -6
0 -11 5 -11 10 0 6 -7 10 -16 10 -8 0 -12 5 -9 10 3 6 -1 10 -9 10 -9 0 -16 5
-16 10 0 6 -9 10 -20 10 -11 0 -20 5 -20 10 0 6 -7 10 -16 10 -8 0 -12 5 -9
10 4 6 3 9 -2 8 -13 -4 -73 23 -73 33 0 5 -7 9 -15 9 -9 0 -35 9 -57 20 -23
11 -48 20 -55 20 -7 0 -13 5 -13 11 0 8 -6 7 -17 -2 -11 -10 -14 -10 -9 -1 5
8 -1 12 -19 12 -14 0 -24 4 -21 8 3 5 -1 9 -9 9 -8 0 -11 -5 -8 -11 3 -6 0 -5
-8 2 -7 6 -26 12 -41 12 -15 0 -28 4 -28 8 0 10 3 10 -110 12 -47 1 -91 7 -99
14 -12 8 -13 8 -7 -1 4 -7 2 -13 -3 -13 -6 0 -11 6 -11 13 0 7 -3 8 -8 2 -10
-14 -56 -20 -48 -6 9 14 3 14 -10 1z m-4344 -1154 c0 -3 -4 -8 -10 -11 -5 -3
-10 -1 -10 4 0 6 5 11 10 11 6 0 10 -2 10 -4z"/>
<path d="M5308 3723 c7 -3 16 -2 19 1 4 3 -2 6 -13 5 -11 0 -14 -3 -6 -6z"/>
</g>
</svg>
