<svg width="24" height="24" viewBox="0 0 24 24" fill="none" xmlns="http://www.w3.org/2000/svg">
<g id="Award" clip-path="url(#clip0_168_10387)">
<path id="Vector" d="M12 23.25C18.2132 23.25 23.25 18.2132 23.25 12C23.25 5.7868 18.2132 0.75 12 0.75C5.7868 0.75 0.75 5.7868 0.75 12C0.75 18.2132 5.7868 23.25 12 23.25Z" fill="white"/>
<path id="Vector_2" d="M12 21.375C17.1777 21.375 21.375 17.1777 21.375 12C21.375 6.82233 17.1777 2.625 12 2.625C6.82233 2.625 2.625 6.82233 2.625 12C2.625 17.1777 6.82233 21.375 12 21.375Z" fill="white"/>
<path id="Vector_3" d="M17.0625 10.3313C14.25 9.30002 11.475 8.10002 8.75625 6.71252C7.125 11.025 6.225 15.6938 6.1875 20.5313C7.70625 19.8 9.24375 19.125 10.8 18.525C12.2437 19.5563 13.7438 20.475 15.2438 21.2438C15.2063 17.4 15.8438 13.7063 17.0625 10.3313Z" fill="#D44A90"/>
<path id="Vector_4" d="M7.05005 12.5812C7.1813 12.6937 7.3313 12.7875 7.50005 12.825C8.10005 12.975 8.5313 13.6312 8.55005 14.4187C8.6063 15.6187 9.63755 16.2937 10.4438 15.7312C10.9875 15.375 11.6438 15.5437 12.0563 16.0687C12.6938 16.8937 13.8188 16.65 14.1938 15.7312C14.4563 15.1312 15.075 14.8312 15.6563 14.9812C15.6938 15 15.7313 15 15.7688 15C16.0688 13.3875 16.5 11.8125 17.0438 10.3125C14.2313 9.28123 11.4563 8.08123 8.73755 6.69373C8.0438 8.60623 7.46255 10.5562 7.05005 12.5812Z" fill="#A72973"/>
<path id="Vector_5" d="M16.3688 10.0687C14.025 9.18749 11.7188 8.17499 9.45005 7.04999C7.91255 11.1375 7.0313 15.5812 6.9563 20.175C8.2313 19.5937 9.5063 19.0312 10.8 18.525C12 19.3875 13.2375 20.1562 14.4938 20.85C14.4938 17.0437 15.15 13.4062 16.3688 10.0687Z" fill="#F15A9E"/>
<path id="Vector_6" d="M8.55002 14.4187C8.60627 15.6187 9.61877 16.0687 10.4438 15.5062C10.9875 15.15 11.6438 15.3187 12.0563 15.8625C12.675 16.6875 13.8375 16.6687 14.2125 15.7312C14.3813 15.3562 14.6813 15.0937 15.0375 14.9812C15.3563 13.275 15.8063 11.625 16.3688 10.05C14.025 9.18749 11.7188 8.17499 9.45002 7.04999C8.73752 8.94374 8.17502 10.8937 7.74377 12.9187C8.21252 13.1812 8.53127 13.7437 8.55002 14.4187Z" fill="#D44A90"/>
<path id="Vector_7" d="M14.7 3.33752C15.525 2.90627 16.5375 3.48752 16.575 4.42502C16.6125 5.04377 17.0625 5.53127 17.6625 5.62502C18.5813 5.77502 19.05 6.82502 18.5438 7.61252C18.2063 8.11877 18.2813 8.79377 18.7125 9.22502C19.3688 9.88127 19.1438 11.0063 18.2625 11.3438C17.7 11.5688 17.3625 12.15 17.4563 12.75C17.6063 13.6688 16.7438 14.4375 15.8438 14.2125C15.2438 14.0625 14.625 14.325 14.3625 14.8875C13.9313 15.7313 12.7875 15.8438 12.2063 15.1125C11.8125 14.6438 11.1563 14.4938 10.6125 14.775C9.7875 15.2063 8.775 14.625 8.7375 13.6875C8.7 13.0688 8.25 12.5813 7.65 12.4875C6.73125 12.3375 6.2625 11.2875 6.76875 10.5C7.10625 9.99377 7.03125 9.31877 6.6 8.88752C5.94375 8.23127 6.16875 7.10627 7.05 6.76877C7.6125 6.54377 7.95 5.96252 7.85625 5.36252C7.70625 4.44377 8.56875 3.67502 9.46875 3.90002C10.0688 4.05002 10.6875 3.78752 10.95 3.22502C11.3813 2.38127 12.525 2.26877 13.1063 3.00002C13.4813 3.46877 14.1563 3.60002 14.7 3.33752Z" fill="#00C2A9"/>
<path id="Vector_8" d="M17.0679 9.9773C17.5791 7.54516 16.0219 5.15911 13.5897 4.64791C11.1576 4.13671 8.77153 5.69393 8.26033 8.12607C7.74913 10.5582 9.30635 12.9443 11.7385 13.4555C14.1706 13.9667 16.5567 12.4094 17.0679 9.9773Z" fill="#00A58C"/>
<path id="Vector_9" d="M8.36247 8.53127C8.86872 6.09377 11.25 4.53752 13.6875 5.04377C15.3375 5.40002 16.5937 6.60002 17.0625 8.10002C16.7062 6.41252 15.375 5.00627 13.5937 4.63127C11.1562 4.12502 8.75622 5.70002 8.24997 8.11877C8.08122 8.90627 8.13747 9.67502 8.36247 10.3875C8.23122 9.78752 8.23122 9.16877 8.36247 8.53127Z" fill="#037C68"/>
<path id="Vector_10" d="M12.2625 9.18751L11.3438 7.76251C11.2875 7.66876 11.175 7.65001 11.0813 7.70626L10.2375 8.25001C10.1438 8.30626 10.125 8.41876 10.1813 8.51251L11.8688 11.0813C11.925 11.175 12.0375 11.1938 12.1313 11.1375L15.4688 8.96251C15.5625 8.90626 15.5813 8.79376 15.525 8.70001L14.9813 7.85626C14.925 7.76251 14.8125 7.74376 14.7188 7.80001L12.525 9.22501C12.4313 9.30001 12.3188 9.26251 12.2625 9.18751Z" fill="white"/>
<path id="Vector_11" d="M4.19995 9.28123L4.31245 8.99998C4.34995 8.92498 4.46245 8.92498 4.4812 8.99998L4.5937 9.28123C4.68745 9.50623 4.8562 9.67498 5.0812 9.76873L5.36245 9.88123C5.43745 9.91873 5.43745 10.0312 5.36245 10.05L5.06245 10.1437C4.83745 10.2375 4.6687 10.4062 4.57495 10.6312L4.46245 10.9125C4.42495 10.9875 4.31245 10.9875 4.2937 10.9125L4.1812 10.6312C4.08745 10.4062 3.9187 10.2375 3.6937 10.1437L3.41245 10.0312C3.33745 9.99373 3.33745 9.88123 3.41245 9.86248L3.6937 9.74998C3.93745 9.67498 4.1062 9.48748 4.19995 9.28123ZM17.5125 16.7812L17.625 16.5C17.6625 16.425 17.775 16.425 17.7937 16.5L17.9062 16.7812C18 17.0062 18.1687 17.175 18.3937 17.2687L18.675 17.3812C18.75 17.4187 18.75 17.5312 18.675 17.55L18.375 17.6437C18.15 17.7375 17.9812 17.9062 17.8875 18.1312L17.775 18.4125C17.7375 18.4875 17.625 18.4875 17.6062 18.4125L17.4937 18.1312C17.4 17.9062 17.2312 17.7375 17.0062 17.6437L16.725 17.5312C16.65 17.4937 16.65 17.3812 16.725 17.3625L17.0062 17.25C17.25 17.175 17.4187 16.9875 17.5125 16.7812Z" fill="#FFDE39"/>
<path id="Vector_12" d="M4.3125 14.8125C4.51961 14.8125 4.6875 14.6446 4.6875 14.4375C4.6875 14.2304 4.51961 14.0625 4.3125 14.0625C4.10539 14.0625 3.9375 14.2304 3.9375 14.4375C3.9375 14.6446 4.10539 14.8125 4.3125 14.8125Z" fill="white"/>
<path id="Vector_13" d="M19.875 13.5C20.0821 13.5 20.25 13.3321 20.25 13.125C20.25 12.9179 20.0821 12.75 19.875 12.75C19.6679 12.75 19.5 12.9179 19.5 13.125C19.5 13.3321 19.6679 13.5 19.875 13.5Z" fill="white"/>
</g>
<defs>
<clipPath id="clip0_168_10387">
<rect width="24" height="24" fill="white"/>
</clipPath>
</defs>
</svg>
