<svg width="15" height="15" viewBox="0 0 15 15" fill="none" xmlns="http://www.w3.org/2000/svg">
<path id="do not disturb" d="M7.5 1C6.21442 1 4.95771 1.38122 3.8888 2.09545C2.81988 2.80968 1.98676 3.82484 1.49479 5.01256C1.00282 6.20028 0.874095 7.50721 1.1249 8.76809C1.3757 10.029 1.99477 11.1872 2.90381 12.0962C3.81285 13.0052 4.97104 13.6243 6.23191 13.8751C7.49279 14.1259 8.79972 13.9972 9.98744 13.5052C11.1752 13.0132 12.1903 12.1801 12.9046 11.1112C13.6188 10.0423 14 8.78558 14 7.5C13.9994 5.77628 13.3143 4.12335 12.0955 2.9045C10.8766 1.68565 9.22371 1.00063 7.5 1ZM7.5 12.7C6.81708 12.7002 6.1408 12.5658 5.50983 12.3045C4.87885 12.0433 4.30553 11.6603 3.82263 11.1774C3.33972 10.6945 2.9567 10.1212 2.69545 9.49017C2.4342 8.8592 2.29983 8.18292 2.30002 7.5C2.29762 6.34505 2.68454 5.223 3.3983 4.31501L10.6848 11.6015C9.77688 12.3153 8.6549 12.7023 7.5 12.7ZM11.6015 10.685L4.31461 3.39849C5.22261 2.68474 6.34466 2.29783 7.49961 2.30022C8.18253 2.30002 8.8588 2.43439 9.48978 2.69564C10.1208 2.9569 10.6941 3.33992 11.177 3.82282C11.6599 4.30572 12.0429 4.87904 12.3042 5.51002C12.5654 6.141 12.6998 6.81727 12.6996 7.5002C12.702 8.65506 12.3152 9.77704 11.6015 10.685Z" fill="#EC0D0D" stroke="#EC5656"/>
</svg>
