<svg width="163" height="171" viewBox="0 0 163 171" fill="none" xmlns="http://www.w3.org/2000/svg">
<g id="Group">
<path id="Vector" d="M18.7891 84.0562H143.669V171H18.7891V84.0562Z" fill="#4A9F95"/>
<path id="Vector_2" d="M143.668 52.4556H18.7879L0 84.0562H162.726L143.668 52.4556Z" fill="#30D5C7"/>
<path id="Vector_3" d="M52.8125 31.2668H109.92V171H52.8125V31.2668Z" fill="#CDCDCD"/>
<path id="Vector_4" d="M116.947 31.2668H46.6328V22.6727L82.7345 0L116.947 22.6727V31.2668Z" fill="#30D5C7"/>
<path id="Vector_5" d="M81.3652 92.3951C92.7894 92.3951 102.051 83.1339 102.051 71.7097C102.051 60.2854 92.7894 51.0242 81.3652 51.0242C69.9409 51.0242 60.6797 60.2854 60.6797 71.7097C60.6797 83.1339 69.9409 92.3951 81.3652 92.3951Z" fill="white"/>
<path id="Vector_6" d="M92.2466 75.1738H81.5081C80.7766 75.1738 80.0751 74.8832 79.5578 74.366C79.0406 73.8487 78.75 73.1472 78.75 72.4157V62.7308C78.75 61.9993 79.0406 61.2978 79.5578 60.7805C80.0751 60.2633 80.7766 59.9727 81.5081 59.9727C82.2395 59.9727 82.9411 60.2633 83.4583 60.7805C83.9755 61.2978 84.2661 61.9993 84.2661 62.7308V69.6577H92.2466C92.9781 69.6577 93.6796 69.9482 94.1968 70.4655C94.7141 70.9827 95.0047 71.6842 95.0047 72.4157C95.0047 73.1472 94.7141 73.8487 94.1968 74.366C93.6796 74.8832 92.9781 75.1738 92.2466 75.1738Z" fill="#30D5C7"/>
<path id="Vector_7" d="M70.5391 139.594H92.2271V171H70.5391V139.594Z" fill="white"/>
<g id="Group_2">
<path id="Vector_8" d="M28.6331 107.061C27.9016 107.061 27.2001 106.771 26.6828 106.253C26.1656 105.736 25.875 105.035 25.875 104.303V96.8232C25.875 96.0918 26.1656 95.3902 26.6828 94.873C27.2001 94.3558 27.9016 94.0652 28.6331 94.0652C29.3645 94.0652 30.0661 94.3558 30.5833 94.873C31.1006 95.3902 31.3911 96.0918 31.3911 96.8232V104.303C31.3911 105.035 31.1006 105.736 30.5833 106.253C30.0661 106.771 29.3645 107.061 28.6331 107.061ZM28.6331 125.473C27.9016 125.473 27.2001 125.182 26.6828 124.665C26.1656 124.148 25.875 123.446 25.875 122.715V115.235C25.875 114.503 26.1656 113.802 26.6828 113.284C27.2001 112.767 27.9016 112.477 28.6331 112.477C29.3645 112.477 30.0661 112.767 30.5833 113.284C31.1006 113.802 31.3911 114.503 31.3911 115.235V122.715C31.3911 123.446 31.1006 124.148 30.5833 124.665C30.0661 125.182 29.3645 125.473 28.6331 125.473ZM28.6331 143.885C27.9016 143.885 27.2001 143.595 26.6828 143.078C26.1656 142.56 25.875 141.859 25.875 141.127V133.648C25.875 132.916 26.1656 132.215 26.6828 131.697C27.2001 131.18 27.9016 130.889 28.6331 130.889C29.3645 130.889 30.0661 131.18 30.5833 131.697C31.1006 132.215 31.3911 132.916 31.3911 133.648V141.127C31.3911 141.859 31.1006 142.56 30.5833 143.078C30.0661 143.595 29.3645 143.885 28.6331 143.885ZM28.6331 162.297C27.9016 162.297 27.2001 162.006 26.6828 161.489C26.1656 160.972 25.875 160.27 25.875 159.539V152.058C25.875 151.326 26.1656 150.625 26.6828 150.107C27.2001 149.59 27.9016 149.3 28.6331 149.3C29.3645 149.3 30.0661 149.59 30.5833 150.107C31.1006 150.625 31.3911 151.326 31.3911 152.058V159.539C31.3911 160.27 31.1006 160.972 30.5833 161.489C30.0661 162.006 29.3645 162.297 28.6331 162.297ZM42.5696 107.061C41.8381 107.061 41.1366 106.771 40.6193 106.253C40.1021 105.736 39.8115 105.035 39.8115 104.303V96.8232C39.8115 96.0918 40.1021 95.3902 40.6193 94.873C41.1366 94.3558 41.8381 94.0652 42.5696 94.0652C43.3011 94.0652 44.0026 94.3558 44.5198 94.873C45.0371 95.3902 45.3276 96.0918 45.3276 96.8232V104.303C45.3276 105.035 45.0371 105.736 44.5198 106.253C44.0026 106.771 43.3011 107.061 42.5696 107.061ZM42.5696 125.473C41.8381 125.473 41.1366 125.182 40.6193 124.665C40.1021 124.148 39.8115 123.446 39.8115 122.715V115.235C39.8115 114.503 40.1021 113.802 40.6193 113.284C41.1366 112.767 41.8381 112.477 42.5696 112.477C43.3011 112.477 44.0026 112.767 44.5198 113.284C45.0371 113.802 45.3276 114.503 45.3276 115.235V122.715C45.3276 123.446 45.0371 124.148 44.5198 124.665C44.0026 125.182 43.3011 125.473 42.5696 125.473ZM42.5696 143.885C41.8381 143.885 41.1366 143.595 40.6193 143.078C40.1021 142.56 39.8115 141.859 39.8115 141.127V133.648C39.8115 132.916 40.1021 132.215 40.6193 131.697C41.1366 131.18 41.8381 130.889 42.5696 130.889C43.3011 130.889 44.0026 131.18 44.5198 131.697C45.0371 132.215 45.3276 132.916 45.3276 133.648V141.127C45.3276 141.859 45.0371 142.56 44.5198 143.078C44.0026 143.595 43.3011 143.885 42.5696 143.885ZM42.5696 162.297C41.8381 162.297 41.1366 162.006 40.6193 161.489C40.1021 160.972 39.8115 160.27 39.8115 159.539V152.058C39.8115 151.326 40.1021 150.625 40.6193 150.107C41.1366 149.59 41.8381 149.3 42.5696 149.3C43.3011 149.3 44.0026 149.59 44.5198 150.107C45.0371 150.625 45.3276 151.326 45.3276 152.058V159.539C45.3276 160.27 45.0371 160.972 44.5198 161.489C44.0026 162.006 43.3011 162.297 42.5696 162.297ZM120.002 107.061C119.271 107.061 118.569 106.771 118.052 106.253C117.535 105.736 117.244 105.035 117.244 104.303V96.8232C117.244 96.0918 117.535 95.3902 118.052 94.873C118.569 94.3558 119.271 94.0652 120.002 94.0652C120.734 94.0652 121.435 94.3558 121.952 94.873C122.47 95.3902 122.76 96.0918 122.76 96.8232V104.303C122.76 105.035 122.47 105.736 121.952 106.253C121.435 106.771 120.734 107.061 120.002 107.061ZM120.002 125.473C119.271 125.473 118.569 125.182 118.052 124.665C117.535 124.148 117.244 123.446 117.244 122.715V115.235C117.244 114.503 117.535 113.802 118.052 113.284C118.569 112.767 119.271 112.477 120.002 112.477C120.734 112.477 121.435 112.767 121.952 113.284C122.47 113.802 122.76 114.503 122.76 115.235V122.715C122.76 123.446 122.47 124.148 121.952 124.665C121.435 125.182 120.734 125.473 120.002 125.473ZM120.002 143.885C119.271 143.885 118.569 143.595 118.052 143.078C117.535 142.56 117.244 141.859 117.244 141.127V133.648C117.244 132.916 117.535 132.215 118.052 131.697C118.569 131.18 119.271 130.889 120.002 130.889C120.734 130.889 121.435 131.18 121.952 131.697C122.47 132.215 122.76 132.916 122.76 133.648V141.127C122.76 141.859 122.47 142.56 121.952 143.078C121.435 143.595 120.734 143.885 120.002 143.885ZM120.002 162.297C119.271 162.297 118.569 162.006 118.052 161.489C117.535 160.972 117.244 160.27 117.244 159.539V152.058C117.244 151.326 117.535 150.625 118.052 150.107C118.569 149.59 119.271 149.3 120.002 149.3C120.734 149.3 121.435 149.59 121.952 150.107C122.47 150.625 122.76 151.326 122.76 152.058V159.539C122.76 160.27 122.47 160.972 121.952 161.489C121.435 162.006 120.734 162.297 120.002 162.297ZM133.939 107.061C133.207 107.061 132.506 106.771 131.988 106.253C131.471 105.736 131.181 105.035 131.181 104.303V96.8232C131.181 96.0918 131.471 95.3902 131.988 94.873C132.506 94.3558 133.207 94.0652 133.939 94.0652C134.67 94.0652 135.372 94.3558 135.889 94.873C136.406 95.3902 136.697 96.0918 136.697 96.8232V104.303C136.697 105.035 136.406 105.736 135.889 106.253C135.372 106.771 134.67 107.061 133.939 107.061ZM133.939 125.473C133.207 125.473 132.506 125.182 131.988 124.665C131.471 124.148 131.181 123.446 131.181 122.715V115.235C131.181 114.503 131.471 113.802 131.988 113.284C132.506 112.767 133.207 112.477 133.939 112.477C134.67 112.477 135.372 112.767 135.889 113.284C136.406 113.802 136.697 114.503 136.697 115.235V122.715C136.697 123.446 136.406 124.148 135.889 124.665C135.372 125.182 134.67 125.473 133.939 125.473ZM133.939 143.885C133.207 143.885 132.506 143.595 131.988 143.078C131.471 142.56 131.181 141.859 131.181 141.127V133.648C131.181 132.916 131.471 132.215 131.988 131.697C132.506 131.18 133.207 130.889 133.939 130.889C134.67 130.889 135.372 131.18 135.889 131.697C136.406 132.215 136.697 132.916 136.697 133.648V141.127C136.697 141.859 136.406 142.56 135.889 143.078C135.372 143.595 134.67 143.885 133.939 143.885ZM133.939 162.297C133.207 162.297 132.506 162.006 131.988 161.489C131.471 160.972 131.181 160.27 131.181 159.539V152.058C131.181 151.326 131.471 150.625 131.988 150.107C132.506 149.59 133.207 149.3 133.939 149.3C134.67 149.3 135.372 149.59 135.889 150.107C136.406 150.625 136.697 151.326 136.697 152.058V159.539C136.697 160.27 136.406 160.972 135.889 161.489C135.372 162.006 134.67 162.297 133.939 162.297Z" fill="#E6E6E6"/>
</g>
</g>
</svg>
