<svg width="15" height="16" viewBox="0 0 15 16" fill="none" xmlns="http://www.w3.org/2000/svg">
<g id="Growth Graph">
<path id="Performance 01" d="M12.6 6.08V13.76C12.6 13.8449 12.5684 13.9263 12.5122 13.9863C12.4559 14.0463 12.3796 14.08 12.3 14.08H10.5C10.4205 14.08 10.3442 14.0463 10.2879 13.9863C10.2316 13.9263 10.2 13.8449 10.2 13.76V6.08C10.2 5.99513 10.2316 5.91374 10.2879 5.85373C10.3442 5.79371 10.4205 5.76 10.5 5.76H12.3C12.3796 5.76 12.4559 5.79371 12.5122 5.85373C12.5684 5.91374 12.6 5.99513 12.6 6.08ZM8.40002 8.32H6.60002C6.52046 8.32 6.44415 8.35371 6.38789 8.41373C6.33163 8.47374 6.30002 8.55513 6.30002 8.64V13.76C6.30002 13.8449 6.33163 13.9263 6.38789 13.9863C6.44415 14.0463 6.52046 14.08 6.60002 14.08H8.40002C8.47959 14.08 8.5559 14.0463 8.61216 13.9863C8.66842 13.9263 8.70002 13.8449 8.70002 13.76V8.64C8.70002 8.55513 8.66842 8.47374 8.61216 8.41373C8.5559 8.35371 8.47959 8.32 8.40002 8.32ZM4.50002 10.88H2.70002C2.62046 10.88 2.54415 10.9137 2.48789 10.9737C2.43163 11.0337 2.40002 11.1151 2.40002 11.2V13.76C2.40002 13.8449 2.43163 13.9263 2.48789 13.9863C2.54415 14.0463 2.62046 14.08 2.70002 14.08H4.50002C4.57959 14.08 4.6559 14.0463 4.71216 13.9863C4.76842 13.9263 4.80002 13.8449 4.80002 13.76V11.2C4.80002 11.1151 4.76842 11.0337 4.71216 10.9737C4.6559 10.9137 4.57959 10.88 4.50002 10.88ZM10.35 4.1344L10.2 2.2144C10.2034 2.19322 10.2034 2.17158 10.2 2.1504C10.2 2.1504 10.2 2.1504 10.2 2.1184L10.158 2.0672H10.116H9.98402L8.21402 2.4064C8.17494 2.41337 8.13754 2.42852 8.10398 2.45099C8.07042 2.47346 8.04136 2.5028 8.01849 2.53731C7.99562 2.57182 7.97938 2.61083 7.97072 2.65207C7.96206 2.69331 7.96114 2.73598 7.96802 2.7776C7.98189 2.85158 8.01936 2.91815 8.07406 2.96599C8.12875 3.01383 8.19729 3.03998 8.26802 3.04H8.31602L9.35402 2.8416C8.68869 3.71009 7.85897 4.41898 6.91912 4.92189C5.97927 5.42479 4.95047 5.71039 3.90002 5.76C3.82046 5.76 3.74415 5.79371 3.68789 5.85373C3.63163 5.91374 3.60002 5.99513 3.60002 6.08C3.60002 6.16487 3.63163 6.24626 3.68789 6.30627C3.74415 6.36629 3.82046 6.4 3.90002 6.4C5.02628 6.32486 6.12431 5.99289 7.12004 5.42651C8.11576 4.86013 8.986 4.07251 9.67202 3.1168L9.75602 4.1856C9.76198 4.26486 9.79538 4.33892 9.84974 4.39335C9.90409 4.44777 9.97549 4.47866 10.05 4.48H10.08C10.1586 4.47188 10.231 4.43105 10.2816 4.36635C10.3321 4.30165 10.3567 4.21831 10.35 4.1344Z" fill="#BC5DF2"/>
</g>
</svg>
