<svg width="26" height="22" viewBox="0 0 26 22" fill="none" xmlns="http://www.w3.org/2000/svg">
<g id="Logo">
<g id="mastercard">
<path id="Shape" d="M4.49714 21.0377V19.7671C4.49714 19.28 4.17714 18.9624 3.62857 18.9624C3.35429 18.9624 3.05714 19.0471 2.85143 19.3224C2.69143 19.0894 2.46286 18.9624 2.12 18.9624C1.89143 18.9624 1.66286 19.0259 1.48 19.2588V19.0047H1V21.0377H1.48V19.9153C1.48 19.5553 1.68571 19.3859 2.00571 19.3859C2.32571 19.3859 2.48571 19.5765 2.48571 19.9153V21.0377H2.96571V19.9153C2.96571 19.5553 3.19429 19.3859 3.49143 19.3859C3.81143 19.3859 3.97143 19.5765 3.97143 19.9153V21.0377H4.49714ZM11.6057 19.0047H10.8286V18.3906H10.3486V19.0047H9.91429V19.4071H10.3486V20.3388C10.3486 20.8047 10.5543 21.08 11.1029 21.08C11.3086 21.08 11.5371 21.0165 11.6971 20.9318L11.56 20.5506C11.4229 20.6353 11.2629 20.6565 11.1486 20.6565C10.92 20.6565 10.8286 20.5294 10.8286 20.3177V19.4071H11.6057V19.0047ZM15.6743 18.9624C15.4 18.9624 15.2171 19.0894 15.1029 19.2588V19.0047H14.6229V21.0377H15.1029V19.8941C15.1029 19.5553 15.2629 19.3647 15.56 19.3647C15.6514 19.3647 15.7657 19.3859 15.8571 19.4071L15.9943 18.9835C15.9029 18.9624 15.7657 18.9624 15.6743 18.9624ZM9.52571 19.1741C9.29714 19.0259 8.97714 18.9624 8.63429 18.9624C8.08571 18.9624 7.72 19.2165 7.72 19.6188C7.72 19.9577 7.99429 20.1482 8.47429 20.2118L8.70286 20.233C8.95429 20.2753 9.09143 20.3388 9.09143 20.4447C9.09143 20.593 8.90857 20.6988 8.58857 20.6988C8.26857 20.6988 8.01714 20.593 7.85714 20.4871L7.62857 20.8259C7.88 20.9953 8.22286 21.08 8.56571 21.08C9.20571 21.08 9.57143 20.8047 9.57143 20.4235C9.57143 20.0635 9.27429 19.873 8.81714 19.8094L8.58857 19.7882C8.38286 19.7671 8.22286 19.7247 8.22286 19.5977C8.22286 19.4494 8.38286 19.3647 8.63429 19.3647C8.90857 19.3647 9.18286 19.4706 9.32 19.5341L9.52571 19.1741ZM22.28 18.9624C22.0057 18.9624 21.8229 19.0894 21.7086 19.2588V19.0047H21.2286V21.0377H21.7086V19.8941C21.7086 19.5553 21.8686 19.3647 22.1657 19.3647C22.2571 19.3647 22.3714 19.3859 22.4629 19.4071L22.6 18.9835C22.5086 18.9624 22.3714 18.9624 22.28 18.9624ZM16.1543 20.0212C16.1543 20.6353 16.6114 21.08 17.32 21.08C17.64 21.08 17.8686 21.0165 18.0971 20.8471L17.8686 20.4871C17.6857 20.6141 17.5029 20.6777 17.2971 20.6777C16.9086 20.6777 16.6343 20.4235 16.6343 20.0212C16.6343 19.64 16.9086 19.3859 17.2971 19.3647C17.5029 19.3647 17.6857 19.4282 17.8686 19.5553L18.0971 19.1953C17.8686 19.0259 17.64 18.9624 17.32 18.9624C16.6114 18.9624 16.1543 19.4071 16.1543 20.0212ZM20.5886 20.0212V19.0047H20.1086V19.2588C19.9486 19.0682 19.72 18.9624 19.4229 18.9624C18.8057 18.9624 18.3257 19.4071 18.3257 20.0212C18.3257 20.6353 18.8057 21.08 19.4229 21.08C19.7429 21.08 19.9714 20.9741 20.1086 20.7835V21.0377H20.5886V20.0212ZM18.8286 20.0212C18.8286 19.6612 19.08 19.3647 19.4914 19.3647C19.88 19.3647 20.1543 19.64 20.1543 20.0212C20.1543 20.3812 19.88 20.6777 19.4914 20.6777C19.08 20.6565 18.8286 20.3812 18.8286 20.0212ZM13.0914 18.9624C12.4514 18.9624 11.9943 19.3859 11.9943 20.0212C11.9943 20.6565 12.4514 21.08 13.1143 21.08C13.4343 21.08 13.7543 20.9953 14.0057 20.8047L13.7771 20.4871C13.5943 20.6141 13.3657 20.6988 13.1371 20.6988C12.84 20.6988 12.5429 20.5718 12.4743 20.2118H14.0971V20.0424C14.12 19.3859 13.7086 18.9624 13.0914 18.9624ZM13.0914 19.3435C13.3886 19.3435 13.5943 19.513 13.64 19.8306H12.4971C12.5429 19.5553 12.7486 19.3435 13.0914 19.3435ZM25 20.0212V18.2H24.52V19.2588C24.36 19.0682 24.1314 18.9624 23.8343 18.9624C23.2171 18.9624 22.7371 19.4071 22.7371 20.0212C22.7371 20.6353 23.2171 21.08 23.8343 21.08C24.1543 21.08 24.3829 20.9741 24.52 20.7835V21.0377H25V20.0212ZM23.24 20.0212C23.24 19.6612 23.4914 19.3647 23.9029 19.3647C24.2914 19.3647 24.5657 19.64 24.5657 20.0212C24.5657 20.3812 24.2914 20.6777 23.9029 20.6777C23.4914 20.6565 23.24 20.3812 23.24 20.0212ZM7.19429 20.0212V19.0047H6.71429V19.2588C6.55429 19.0682 6.32571 18.9624 6.02857 18.9624C5.41143 18.9624 4.93143 19.4071 4.93143 20.0212C4.93143 20.6353 5.41143 21.08 6.02857 21.08C6.34857 21.08 6.57714 20.9741 6.71429 20.7835V21.0377H7.19429V20.0212ZM5.41143 20.0212C5.41143 19.6612 5.66286 19.3647 6.07429 19.3647C6.46286 19.3647 6.73714 19.64 6.73714 20.0212C6.73714 20.3812 6.46286 20.6777 6.07429 20.6777C5.66286 20.6565 5.41143 20.3812 5.41143 20.0212Z" fill="white"/>
</g>
<g id="circles">
<circle id="L" cx="8.08" cy="8.72001" r="7.8" fill="#D32011"/>
<circle id="R" cx="17.68" cy="8.72001" r="7.8" fill="#F79E1B"/>
<circle id="L_2" cx="8.08" cy="8.72001" r="7.8" fill="#EB001B" fill-opacity="0.3"/>
</g>
</g>
</svg>
