<svg width="595" height="127" viewBox="0 0 595 127" fill="none" xmlns="http://www.w3.org/2000/svg">
<g clip-path="url(#clip0_3232_21275)">
<path d="M473.425 -134.482C483.35 -140.047 495.192 -141.022 505.691 -136.635C550.68 -117.835 669.142 -61.835 634.5 -6.00003C612.073 30.1465 553.5 127.624 502 97.4999C467.59 77.3726 411.081 11.5961 377.366 -29.8424C362.399 -48.2383 367.992 -75.3679 388.678 -86.966L473.425 -134.482Z" fill="#177C4F" stroke="#177C4F" stroke-width="30"/>
</g>
<g clip-path="url(#clip1_3232_21275)">
<path d="M435.364 -209.761C445.525 -216.006 457.967 -217.28 468.963 -212.664C514.596 -193.51 631.307 -137.873 596.889 -82.3991C574.462 -46.2525 501 34.5 464.389 21.1009C438.457 11.61 385.097 -69.7793 356.175 -116.45C345.018 -134.454 350.906 -157.854 368.95 -168.944L435.364 -209.761Z" fill="#19503A" stroke="#19503A" stroke-width="30"/>
</g>
<g clip-path="url(#clip2_3232_21275)">
<path d="M422.758 -179.158C433.071 -192.594 451.867 -194.768 464.233 -184.052C491.253 -160.64 529.953 -124.177 554.438 -88.544C566.737 -70.6438 574.837 -53.8141 576.693 -39.5126C577.604 -32.493 576.98 -26.3238 574.827 -20.943C572.691 -15.607 568.852 -10.5417 562.527 -5.97758C554.296 -0.0393152 546.136 6.40483 538.179 12.6881C536.41 14.0853 534.651 15.4745 532.903 16.8485C523.197 24.4789 513.78 31.6929 504.393 37.7461C485.479 49.9431 468.101 56.4822 450.628 53.0728C445.269 52.0272 437.879 47.7914 428.856 40.0804C420.068 32.5703 410.629 22.5554 401.201 11.3713C382.362 -10.9766 364.195 -37.2324 352.167 -55.5038C345.405 -65.7768 346.061 -79.2411 353.747 -89.254L422.758 -179.158Z" stroke="#74BFA9" stroke-width="17"/>
</g>
<g clip-path="url(#clip3_3232_21275)">
<path d="M-72 -73.4577C-72 -89.8464 -58.848 -103.202 -42.4612 -103.454L628.331 -113.767C656.069 -114.194 669.476 -79.9747 648.83 -61.4447L512.042 61.3262C506.537 66.2671 499.401 69 492.004 69H-42C-58.5685 69 -72 55.5685 -72 39V-73.4577Z" stroke="#7AC2B0" stroke-width="46"/>
</g>
<rect width="146" height="90" transform="translate(41 16)" fill="white"/>
<path d="M108.773 46.3241C108.983 46.3987 108.983 46.3987 109.198 46.4749C111.239 47.2799 112.832 48.7355 114.187 50.4262C114.325 50.5938 114.325 50.5938 114.465 50.7649C115.787 52.5984 116.438 55.594 116.185 57.8044C116.099 58.2736 115.989 58.7287 115.867 59.1898C115.828 59.3568 115.789 59.5239 115.749 59.696C115.394 61.1434 114.828 62.4243 114 63.6648C114 63.6648 113.534 63.8725 113.487 63.9795C112.5 66 109.965 67.1126 107.771 67.9323C105.082 68.6705 101.972 68.1908 99.5727 66.8659C99.0567 66.5723 98.5457 66.2732 98.0391 65.9637C95.2335 64.2582 91.7558 63.9057 88.5433 64.5971C87.3866 64.9474 86.3251 65.5232 85.2555 66.0771C81.3995 68.0709 76.8294 68.9835 72.5598 67.7058C70.0222 66.8533 67.6639 65.6313 65.6533 63.8513C65.6533 63.7282 65.6533 63.6051 65.6533 63.4784C65.5301 63.4784 65.4069 63.4784 65.28 63.4784C64.6811 62.8274 64.1484 62.1209 63.6 61.4273C63.4965 61.3074 63.3931 61.1874 63.2865 61.0638C62.3245 59.9082 61.1733 57.9145 61.1733 56.3929C64.4699 56.3442 64.4699 56.3442 65.1167 56.9523C65.4667 57.5117 65.4667 57.5117 65.6468 57.8678C67.3119 61.1293 70.3191 63.0601 73.7296 64.1761C77.55 65.1502 81.1596 64.1323 84.5203 62.3589C85.087 62.0663 85.662 61.803 86.245 61.5438C86.4368 61.4578 86.6286 61.3717 86.8262 61.2831C90.9573 59.867 95.4425 60.584 99.3095 62.3829C99.9437 62.6928 100.531 63.0538 101.12 63.4434C102.887 64.6078 104.788 64.6297 106.87 64.3371C108.58 63.9143 110.235 62.7 111.2 61.2408C112.37 59.1527 112.763 57.2671 112.306 54.9063C111.638 52.7249 110.181 51.1387 108.213 50.0533C106.124 49.1279 104.354 49.036 102.212 49.8319C100.309 50.6236 98.7952 51.773 97.9109 53.6965C97.5636 54.7526 97.3882 55.8586 97.2 56.9523C96.3925 57.1797 95.815 57.0815 95.0067 56.8823C94.792 56.8309 94.5774 56.7795 94.3563 56.7265C93.84 56.5794 93.84 56.5794 93.6533 56.3929C93.6308 54.2022 94.5978 52.2601 95.7067 50.4262C95.7844 50.2959 95.8621 50.1656 95.9422 50.0314C97.5104 47.6888 100.051 46.5317 102.688 45.8324C104.698 45.552 106.872 45.5903 108.773 46.3241Z" fill="#027466"/>
<path d="M95.4522 36.2298C97.794 38.0144 99.4183 40.2186 99.9096 43.174C99.9557 43.6039 99.989 44.0274 100 44.4595C99.8831 44.5359 99.7661 44.6124 99.6456 44.6911C99.4168 44.8418 99.4168 44.8418 99.1833 44.9956C98.9559 45.1448 98.9559 45.1448 98.724 45.2971C98.3058 45.5705 98.3058 45.5705 97.9467 45.9512C97.7619 45.9512 97.5771 45.9512 97.3867 45.9512C97.3592 45.7887 97.3318 45.6262 97.3035 45.4588C96.8296 42.9449 95.9365 40.6996 93.77 39.2037C93.4837 39.0264 93.196 38.8515 92.9067 38.6793C92.7962 38.6059 92.6858 38.5326 92.572 38.4571C90.9484 37.4869 88.5651 37.3682 86.7481 37.7564C84.2616 38.5403 82.3769 39.8948 81.1467 42.222C80.4845 43.5726 80.282 44.7585 80.26 46.2542C80.2517 46.535 80.2517 46.535 80.2432 46.8216C80.2302 47.2773 80.2203 47.7328 80.2133 48.1887C80.0716 48.0464 79.9299 47.9041 79.7839 47.7575C78.2506 46.2326 76.707 45.1227 74.485 44.9723C73.179 44.9896 71.9647 45.4266 70.88 46.1376C70.7568 46.1376 70.6336 46.1376 70.5067 46.1376C70.5067 46.2607 70.5067 46.3838 70.5067 46.5106C70.2852 46.7254 70.0637 46.9402 69.8417 47.1544C68.5751 48.5158 68.1732 50.0654 68.2076 51.8931C68.3601 53.4015 68.9311 54.5481 69.9467 55.6471C69.9467 55.7701 69.9467 55.8932 69.9467 56.02C70.2239 56.1123 70.2239 56.1123 70.5067 56.2064C70.5067 56.391 70.5067 56.5756 70.5067 56.7658C69.8997 56.7616 69.2934 56.7471 68.6867 56.7309C68.429 56.7292 68.429 56.7292 68.166 56.7276C66.8883 56.686 66.8883 56.686 66.3045 56.1445C66.2128 55.9804 66.1211 55.8162 66.0267 55.6471C65.9552 55.5375 65.8837 55.4279 65.8101 55.3149C64.6809 53.1665 64.4271 50.7846 65.1283 48.4567C65.2354 48.1787 65.3487 47.903 65.4667 47.6293C65.5393 47.4529 65.612 47.2765 65.6869 47.0947C66.6558 44.9456 68.2817 43.2495 70.4914 42.3808C72.8512 41.555 75.2733 41.3394 77.6 42.4084C77.6209 42.302 77.6419 42.1955 77.6634 42.0858C78.2849 39.5336 80.184 37.3605 82.3367 35.929C86.4045 33.4651 91.5316 33.4623 95.4522 36.2298Z" fill="#30CBBE"/>
<path d="M115.015 67.8951C115.68 67.9534 115.68 67.9534 115.998 68.1463C116.374 68.7161 116.306 69.3012 116.289 69.9597C116.288 70.1068 116.287 70.2539 116.285 70.4055C116.28 70.8919 116.27 71.3782 116.26 71.8647C116.256 72.202 116.251 72.5394 116.247 72.8768C116.237 73.5837 116.226 74.2906 116.213 74.9975C116.196 75.9056 116.183 76.8138 116.171 77.722C116.159 78.5859 116.146 79.4497 116.132 80.3136C116.13 80.4795 116.127 80.6454 116.125 80.8163C116.118 81.2833 116.109 81.7503 116.101 82.2173C116.099 82.3569 116.097 82.4966 116.095 82.6405C116.075 83.5946 116.075 83.5946 115.867 83.8024C114.796 83.8534 114.796 83.8534 114.373 83.8024C114 83.4295 114 83.4295 113.977 82.8468C113.984 82.6699 113.992 82.493 114 82.3108C113.877 82.3108 113.754 82.3108 113.627 82.3108C113.575 82.4723 113.575 82.4723 113.522 82.6371C113.082 83.3249 112.367 83.6693 111.597 83.9131C110.058 84.2066 108.614 84.0868 107.28 83.2431C106.767 82.8002 106.767 82.8002 106.347 82.3108C106.104 82.0627 106.104 82.0627 105.857 81.8096C105.258 81.0761 105.056 80.2374 104.853 79.3274C104.822 79.195 104.791 79.0625 104.759 78.9261C104.463 77.2404 104.954 75.3885 105.787 73.9201C106.565 72.9005 107.52 72.1753 108.773 71.869C110.49 71.6695 112.018 71.74 113.44 72.8013C113.563 72.9859 113.686 73.1705 113.813 73.3607C113.817 73.2102 113.821 73.0596 113.825 72.9045C113.842 72.2252 113.863 71.546 113.883 70.8668C113.892 70.5113 113.892 70.5113 113.901 70.1486C113.908 69.9227 113.915 69.6968 113.923 69.464C113.929 69.255 113.934 69.0461 113.94 68.8308C114.033 68.0444 114.239 67.9656 115.015 67.8951ZM107.607 74.9223C106.746 76.2125 106.764 77.6417 106.907 79.1409C107.091 79.746 107.336 80.2737 107.653 80.8191C107.715 80.9421 107.777 81.0652 107.84 81.192C107.963 81.192 108.086 81.192 108.213 81.192C108.213 81.3151 108.213 81.4381 108.213 81.5649C109.27 82.2687 110.332 82.2486 111.573 82.1243C112.736 81.7301 113.222 81.0608 113.767 79.9917C114.253 78.584 114.264 76.7248 113.65 75.3528C113.181 74.6514 112.512 74.1093 111.76 73.7336C109.991 73.5955 108.866 73.5944 107.607 74.9223Z" fill="#2E2E2E"/>
<path d="M83.0133 72.6149C84.2105 73.5882 85.0911 74.9182 85.3977 76.4315C85.4617 77.1455 85.44 77.8647 85.44 78.5816C82.36 78.5816 79.28 78.5816 76.1067 78.5816C76.6752 79.9255 76.6752 79.9255 77.4133 81.0056C77.4133 81.1286 77.4133 81.2517 77.4133 81.3785C78.8576 81.9634 80.3023 82.2505 81.8401 81.7842C82.2441 81.6036 82.6278 81.4087 83.0133 81.192C83.2618 81.0668 83.5106 80.9423 83.76 80.8191C84.2383 81.2386 84.2383 81.2386 84.6933 81.7514C84.6391 82.4161 84.4884 82.5131 83.9583 82.975C82.2824 84.0753 80.4004 84.1894 78.4509 83.9277C76.9395 83.5496 75.6782 82.3336 74.8423 81.0609C73.9937 79.4244 73.7934 77.7398 74.2633 75.9478C74.8429 74.2219 76.1063 72.928 77.6933 72.0788C79.4093 71.5208 81.4949 71.6059 83.0133 72.6149ZM77.2114 74.682C77.1048 74.8228 76.9982 74.9637 76.8883 75.1088C76.7248 75.3186 76.7248 75.3186 76.558 75.5327C76.2282 76.0232 76.2282 76.0232 76.1067 76.9034C78.5091 76.9034 80.9115 76.9034 83.3867 76.9034C83.1887 75.5192 82.9689 74.9945 82.01 74.0366C80.4465 73.3365 78.4591 73.4332 77.2114 74.682Z" fill="#2D2E2E"/>
<path d="M97.9919 72.3913C99.6623 73.5296 100.334 75.1744 100.747 77.0899C100.747 77.5822 100.747 78.0744 100.747 78.5816C97.6667 78.5816 94.5867 78.5816 91.4133 78.5816C92.0622 80.4603 92.0622 80.4603 93.412 81.6771C94.5775 82.1715 95.9538 82.1412 97.1635 81.7827C97.7831 81.5118 98.3169 81.1941 98.88 80.8191C99.3467 81.2386 99.3467 81.2386 99.8133 81.7514C99.8133 81.9975 99.8133 82.2436 99.8133 82.4972C98.3516 83.7479 96.6594 84.0913 94.7886 84.0443C93.0211 83.8742 91.884 83.1646 90.6856 81.8745C89.4711 80.3388 89.1961 78.5983 89.4045 76.6806C89.6081 75.5016 90.1468 74.682 90.8533 73.7336C90.9573 73.5644 91.0612 73.3952 91.1683 73.2209C92.8818 71.5556 95.8996 71.2589 97.9919 72.3913ZM92.3467 74.6659C91.666 75.7121 91.666 75.7121 91.4133 76.9034C93.8157 76.9034 96.2181 76.9034 98.6933 76.9034C98.5325 75.8578 98.5325 75.8578 98.0867 75.0039C98.0126 74.882 97.9384 74.7602 97.8621 74.6346C97.3175 73.9904 96.8236 73.7583 95.9889 73.6462C93.9731 73.6015 93.9731 73.6015 92.3467 74.6659Z" fill="#2D2E2E"/>
<path d="M65.6767 71.7991C65.8166 71.7994 65.9566 71.7997 66.1008 71.8C67.2717 71.8256 68.3673 72.0017 69.3867 72.6149C69.7206 73.014 69.7206 73.014 69.9467 73.3607C69.5771 73.9145 69.5771 73.9145 69.2 74.4795C68.6526 74.4032 68.1686 74.3334 67.6636 74.1029C67.0001 73.8682 66.4261 73.8639 65.7233 73.8618C65.4784 73.8587 65.2334 73.8556 64.981 73.8523C64.3642 73.8702 64.3642 73.8702 63.9828 74.1546C63.7408 74.5554 63.7288 74.7956 63.7517 75.2603C63.7632 75.4948 63.7748 75.7294 63.7867 75.9711C63.8846 75.9964 63.9825 76.0216 64.0834 76.0476C65.1759 76.3508 66.2327 76.7331 67.2867 77.1482C67.4212 77.1988 67.5557 77.2494 67.6942 77.3015C68.6651 77.6931 69.2615 78.1598 69.9467 78.9545C70.2793 79.9513 70.2246 80.8756 69.935 81.8796C69.3699 82.8447 68.7071 83.4224 67.6833 83.8724C65.255 84.2636 63.2949 83.9609 61.2885 82.5358C61.1889 82.4616 61.0893 82.3873 60.9867 82.3108C61.36 81.5649 61.36 81.5649 61.7333 80.8191C62.2847 80.9374 62.7395 81.1173 63.2383 81.3785C64.0912 81.8233 64.756 81.9712 65.7233 81.9845C65.9327 81.9893 66.142 81.9941 66.3577 81.999C67.0277 81.931 67.3758 81.8072 67.8933 81.3785C68.0054 80.9976 68.0054 80.9976 67.9517 80.5977C67.9228 80.2458 67.9228 80.2458 67.8933 79.8868C66.7123 79.2581 65.5475 78.7143 64.2767 78.2902C63.119 77.8907 62.3085 77.5561 61.6633 76.4722C61.3816 75.2622 61.4692 74.3909 62.0687 73.3155C62.9489 72.031 64.2115 71.7959 65.6767 71.7991Z" fill="#2D2E2E"/>
<path d="M113.09 39.0755C113.825 39.5543 114.349 40.1229 114.747 40.9168C114.85 41.8569 114.855 42.5759 114.408 43.4223C114.274 43.58 114.139 43.7377 114 43.9001C113.917 43.997 113.834 44.0938 113.749 44.1936C113.14 44.7172 112.354 44.7838 111.573 44.8324C110.714 44.7047 110.108 44.3717 109.532 43.7253C109.009 42.9506 109.009 42.9506 108.96 42.4084C108.931 42.1085 108.931 42.1085 108.902 41.8025C108.974 40.9318 109.169 40.3057 109.707 39.6116C110.748 38.8061 111.843 38.627 113.09 39.0755Z" fill="#037364"/>
<path d="M68.08 35.5094C68.927 35.9494 69.6031 36.4643 69.9467 37.374C70.0725 38.3414 70.0613 39.1731 69.655 40.066C68.8868 40.8727 68.2691 41.236 67.1583 41.3946C66.2514 41.3435 65.5909 40.9304 64.9067 40.3574C64.3662 39.75 64.1166 39.2954 64.0783 38.4928C64.1349 37.5927 64.3916 36.9711 65.0241 36.3106C65.9686 35.4948 66.849 35.2137 68.08 35.5094Z" fill="#30CCBF"/>
<path d="M91.04 26.3729C91.7722 26.9453 92.234 27.5435 92.5333 28.424C92.5689 29.3088 92.4804 30.0427 92.055 30.8246C91.3617 31.4284 90.6576 31.9234 89.7173 31.9973C88.6454 31.9112 87.8677 31.4599 87.155 30.6498C86.6855 29.8847 86.6555 29.1104 86.7467 28.2375C87.1436 27.1523 87.7324 26.6264 88.7533 26.1165C89.589 25.956 90.2495 26.065 91.04 26.3729Z" fill="#30CBBE"/>
<path d="M164.587 74.1065C165.234 74.1597 165.476 74.2478 165.938 74.7191C166.129 74.9754 166.129 74.9754 166.325 75.2369C166.455 75.4083 166.585 75.5797 166.719 75.7563C166.816 75.8887 166.913 76.0211 167.013 76.1576C167.075 75.4807 167.137 74.8039 167.2 74.1065C167.446 74.1065 167.693 74.1065 167.947 74.1065C167.947 75.3372 167.947 76.5678 167.947 77.8357C167.7 77.8357 167.454 77.8357 167.2 77.8357C166.8 77.4278 166.8 77.4278 166.407 76.9034C166.275 76.7304 166.143 76.5573 166.007 76.379C165.858 76.1771 165.858 76.1771 165.707 75.9711C165.702 76.0879 165.697 76.2048 165.692 76.3251C165.681 76.4775 165.671 76.6299 165.66 76.7869C165.651 76.9383 165.643 77.0897 165.634 77.2458C165.52 77.6493 165.52 77.6493 165.138 77.8896C165.018 77.9334 164.897 77.9771 164.773 78.0222C164.587 77.8357 164.587 77.8357 164.565 77.4722C164.567 77.2393 164.567 77.2393 164.568 77.0018C164.569 76.8341 164.57 76.6665 164.57 76.4937C164.572 76.3174 164.573 76.1411 164.575 75.9595C164.576 75.7825 164.577 75.6054 164.578 75.423C164.58 74.9842 164.583 74.5454 164.587 74.1065Z" fill="#252727"/>
<path d="M148.907 80.0733C150.763 80.0062 150.763 80.0062 151.543 80.2714C152.06 80.8052 152.08 81.2062 152.08 81.9379C151.812 82.4856 151.812 82.4856 151.52 82.8701C151.612 82.9855 151.705 83.1009 151.8 83.2198C152.08 83.616 152.08 83.616 152.08 83.9889C151.193 83.8491 151.193 83.8491 150.773 83.4295C150.773 83.2449 150.773 83.0603 150.773 82.8701C150.404 82.8701 150.034 82.8701 149.653 82.8701C149.653 83.2393 149.653 83.6085 149.653 83.9889C149.407 83.9889 149.161 83.9889 148.907 83.9889C148.907 82.6967 148.907 81.4046 148.907 80.0733ZM149.653 80.8191C149.653 81.2498 149.653 81.6805 149.653 82.1243C150.089 82.1322 150.525 82.1319 150.96 82.1243C151.2 81.9267 151.2 81.9267 151.17 81.4717C151.2 81.0167 151.2 81.0167 150.96 80.8191C150.525 80.8115 150.089 80.8112 149.653 80.8191Z" fill="#1F2222"/>
<path d="M161.413 74.293C161.887 74.6951 162.115 74.9679 162.223 75.5851C162.263 76.4127 162.153 77.0012 161.6 77.6493C160.886 78.1104 160.191 78.0649 159.377 77.9472C158.987 77.8357 158.987 77.8357 158.52 77.4395C158.068 76.5734 157.95 75.9335 158.24 74.9922C159.073 73.8486 160.196 73.7182 161.413 74.293ZM159.22 75.0738C158.775 75.5535 158.775 75.5535 158.683 76.076C158.772 76.5682 158.772 76.5682 159.197 76.9734C159.715 77.3262 159.715 77.3262 160.317 77.2647C160.998 77.0599 160.998 77.0599 161.413 76.5305C161.401 75.821 161.383 75.3919 160.888 74.864C160.174 74.5174 159.83 74.5892 159.22 75.0738Z" fill="#232625"/>
<path d="M132.667 80.0732C132.913 80.1348 133.159 80.1963 133.413 80.2597C133.413 80.3828 133.413 80.5058 133.413 80.6326C133.537 80.6326 133.66 80.6326 133.787 80.6326C134.195 81.1057 134.541 81.6167 134.907 82.1243C134.968 81.509 135.03 80.8937 135.093 80.2597C135.34 80.1982 135.586 80.1366 135.84 80.0732C136.054 80.5015 136.048 80.7414 136.045 81.2168C136.044 81.367 136.044 81.5172 136.043 81.672C136.041 81.8289 136.04 81.9859 136.038 82.1476C136.037 82.306 136.037 82.4644 136.036 82.6276C136.034 83.0192 136.03 83.4108 136.027 83.8024C135.78 83.864 135.534 83.9255 135.28 83.9889C134.664 83.2505 134.048 82.5121 133.413 81.7514C133.352 82.4898 133.29 83.2281 133.227 83.9889C133.042 83.9889 132.857 83.9889 132.667 83.9889C132.667 82.6967 132.667 81.4046 132.667 80.0732Z" fill="#232727"/>
<path d="M128.14 74.0599C128.335 74.0551 128.531 74.0503 128.732 74.0453C129.384 74.1147 129.719 74.2761 130.24 74.6659C130.703 75.36 130.711 75.9132 130.613 76.717C130.415 77.253 130.415 77.253 130.053 77.6493C129.108 78.0381 128.259 78.0903 127.253 78.0222C126.88 77.6493 126.88 77.6493 126.835 77.3018C126.835 77.1643 126.836 77.0268 126.837 76.8852C126.837 76.7358 126.838 76.5864 126.838 76.4325C126.84 76.2764 126.843 76.1203 126.845 75.9595C126.845 75.8026 126.845 75.6458 126.845 75.4842C126.856 74.0787 126.856 74.0787 128.14 74.0599ZM127.627 74.6659C127.627 75.5274 127.627 76.3888 127.627 77.2763C128.635 77.3391 128.635 77.3391 129.587 77.0782C129.921 76.7065 129.921 76.7065 129.972 76.076C129.924 75.3993 129.924 75.3993 129.482 74.9573C128.845 74.5638 128.845 74.5638 127.627 74.6659Z" fill="#252929"/>
<path d="M143.68 80.0732C144.542 80.0732 145.405 80.0732 146.293 80.0732C146.293 80.3194 146.293 80.5655 146.293 80.8191C145.616 80.8191 144.938 80.8191 144.24 80.8191C144.24 81.1267 144.24 81.4344 144.24 81.7514C144.856 81.7514 145.472 81.7514 146.107 81.7514C146.107 81.936 146.107 82.1206 146.107 82.3108C145.491 82.3108 144.875 82.3108 144.24 82.3108C144.24 82.6184 144.24 82.9261 144.24 83.2431C144.918 83.2431 145.595 83.2431 146.293 83.2431C146.293 83.4892 146.293 83.7353 146.293 83.9889C145.808 84.2315 145.435 84.2068 144.893 84.2103C144.71 84.213 144.528 84.2156 144.339 84.2183C143.867 84.1754 143.867 84.1754 143.493 83.8024C143.448 83.4579 143.448 83.4579 143.45 83.0449C143.451 82.8964 143.451 82.7479 143.451 82.5948C143.454 82.4395 143.456 82.2843 143.458 82.1243C143.458 81.969 143.459 81.8138 143.459 81.6538C143.467 80.4985 143.467 80.4985 143.68 80.0732Z" fill="#232928"/>
<path d="M133.04 74.1065C133.286 74.1065 133.533 74.1065 133.787 74.1065C134.051 74.6347 134.038 75.1273 134.078 75.7147C134.094 75.9364 134.11 76.158 134.126 76.3863C134.137 76.5569 134.148 76.7276 134.16 76.9034C134.469 76.9747 134.781 77.0366 135.093 77.0899C135.456 76.728 135.355 76.0694 135.385 75.5866C135.401 75.346 135.416 75.1054 135.432 74.8575C135.444 74.6712 135.455 74.4849 135.467 74.293C135.775 74.2315 136.083 74.1699 136.4 74.1065C136.41 74.5572 136.417 75.0076 136.423 75.4584C136.428 75.6491 136.428 75.6491 136.433 75.8437C136.44 76.5372 136.435 77.0723 136.027 77.6493C135.256 78.1114 134.644 78.0419 133.787 77.8357C133.402 77.5413 133.255 77.3339 133.04 76.9034C133.027 76.4277 133.023 75.9572 133.028 75.4817C133.029 75.35 133.03 75.2182 133.031 75.0825C133.033 74.7572 133.036 74.4319 133.04 74.1065Z" fill="#232727"/>
<path d="M127.253 80.0732C128.116 80.0732 128.978 80.0732 129.867 80.0732C129.867 80.3194 129.867 80.5655 129.867 80.8191C129.251 80.8191 128.635 80.8191 128 80.8191C128 81.1267 128 81.4344 128 81.7514C128.554 81.7514 129.109 81.7514 129.68 81.7514C129.68 81.936 129.68 82.1206 129.68 82.3108C129.126 82.3108 128.571 82.3108 128 82.3108C128 82.6184 128 82.9261 128 83.2431C128.616 83.2431 129.232 83.2431 129.867 83.2431C129.928 83.4892 129.99 83.7353 130.053 83.9889C129.566 84.2321 129.197 84.2001 128.653 84.1987C128.47 84.1991 128.288 84.1996 128.099 84.2001C127.627 84.1754 127.627 84.1754 127.253 83.9889C127.253 82.6967 127.253 81.4046 127.253 80.0732Z" fill="#242726"/>
<path d="M134.533 88.4639C136.851 88.3876 136.851 88.3876 137.707 89.0233C138.074 89.757 137.98 90.6475 137.893 91.4473C137.557 92.007 137.351 92.2773 136.773 92.566C136.392 92.5792 136.011 92.5817 135.63 92.5777C135.087 92.5719 135.087 92.5719 134.533 92.566C134.533 91.2123 134.533 89.8586 134.533 88.4639ZM135.093 89.0233C135.093 90.0078 135.093 90.9923 135.093 92.0067C136.279 92.0911 136.279 92.0911 136.843 91.8202C137.309 91.2479 137.389 90.6836 137.333 89.9556C137.103 89.3687 137.103 89.3687 136.587 89.0233C136.094 89.0233 135.601 89.0233 135.093 89.0233Z" fill="#484747"/>
<path d="M121.653 74.1065C122.577 74.1065 123.501 74.1065 124.453 74.1065C124.453 74.2911 124.453 74.4757 124.453 74.6659C123.776 74.6659 123.098 74.6659 122.4 74.6659C122.4 74.9736 122.4 75.2812 122.4 75.5982C122.954 75.5982 123.509 75.5982 124.08 75.5982C124.08 75.8443 124.08 76.0905 124.08 76.3441C123.526 76.3441 122.971 76.3441 122.4 76.3441C122.4 76.6517 122.4 76.9594 122.4 77.2763C123.078 77.2763 123.755 77.2763 124.453 77.2763C124.392 77.5225 124.33 77.7686 124.267 78.0222C123.866 78.0272 123.466 78.0308 123.065 78.0338C122.842 78.036 122.619 78.0382 122.389 78.0404C121.84 78.0222 121.84 78.0222 121.653 77.8357C121.637 77.5581 121.633 77.2798 121.635 77.0018C121.636 76.8341 121.636 76.6665 121.637 76.4937C121.638 76.3174 121.64 76.1411 121.642 75.9595C121.643 75.7825 121.643 75.6054 121.644 75.423C121.646 74.9842 121.65 74.5454 121.653 74.1065Z" fill="#252626"/>
<path d="M135.093 68.1398C135.093 68.3244 135.093 68.509 135.093 68.6992C134.416 68.6992 133.738 68.6992 133.04 68.6992C133.04 69.0069 133.04 69.3145 133.04 69.6315C133.594 69.6315 134.149 69.6315 134.72 69.6315C134.72 69.8776 134.72 70.1238 134.72 70.3774C134.166 70.3774 133.611 70.3774 133.04 70.3774C133.04 70.685 133.04 70.9927 133.04 71.3097C133.718 71.3097 134.395 71.3097 135.093 71.3097C135.093 71.4943 135.093 71.6788 135.093 71.869C134.169 71.869 133.245 71.869 132.293 71.869C132.293 70.6384 132.293 69.4078 132.293 68.1398C134.293 67.7403 134.293 67.7403 135.093 68.1398Z" fill="#202625"/>
<path d="M155.44 89.5827C156.311 89.5827 157.182 89.5827 158.053 89.5827C158.273 89.5712 158.492 89.5596 158.718 89.5477C158.93 89.5593 159.142 89.5708 159.36 89.5827C159.812 90.2599 159.773 90.5865 159.757 91.389C159.753 91.6089 159.75 91.8289 159.746 92.0555C159.742 92.224 159.738 92.3924 159.733 92.566C159.549 92.566 159.364 92.566 159.173 92.566C159.162 92.4358 159.151 92.3055 159.139 92.1713C159.116 91.9167 159.116 91.9167 159.092 91.6571C159.077 91.4883 159.061 91.3196 159.046 91.1457C159.011 90.6994 159.011 90.6994 158.8 90.3285C158.554 90.267 158.307 90.2055 158.053 90.1421C157.992 90.942 157.93 91.7419 157.867 92.566C157.682 92.566 157.497 92.566 157.307 92.566C157.245 91.7661 157.183 90.9662 157.12 90.1421C156.874 90.2036 156.627 90.2651 156.373 90.3285C156.146 90.7823 156.127 91.1524 156.082 91.6571C156.058 91.9116 156.058 91.9116 156.034 92.1713C156.023 92.3015 156.012 92.4318 156 92.566C155.815 92.566 155.63 92.566 155.44 92.566C155.44 91.5815 155.44 90.597 155.44 89.5827Z" fill="#484747"/>
<path d="M110.827 89.5827C111.698 89.5827 112.569 89.5827 113.44 89.5827C113.659 89.5712 113.879 89.5596 114.105 89.5477C114.317 89.5593 114.528 89.5708 114.747 89.5827C115.199 90.2599 115.159 90.5865 115.143 91.389C115.14 91.6089 115.137 91.8289 115.133 92.0555C115.129 92.224 115.124 92.3924 115.12 92.566C114.935 92.566 114.75 92.566 114.56 92.566C114.549 92.4358 114.537 92.3055 114.526 92.1713C114.502 91.9167 114.502 91.9167 114.478 91.6571C114.463 91.4883 114.448 91.3196 114.432 91.1457C114.398 90.6994 114.398 90.6994 114.187 90.3285C113.94 90.267 113.694 90.2055 113.44 90.1421C113.378 90.942 113.317 91.7419 113.253 92.566C113.069 92.566 112.884 92.566 112.693 92.566C112.632 91.7661 112.57 90.9662 112.507 90.1421C112.26 90.2036 112.014 90.2651 111.76 90.3285C111.533 90.7823 111.514 91.1524 111.468 91.6571C111.445 91.9116 111.445 91.9116 111.421 92.1713C111.41 92.3015 111.398 92.4318 111.387 92.566C111.202 92.566 111.017 92.566 110.827 92.566C110.827 91.5815 110.827 90.597 110.827 89.5827Z" fill="#484747"/>
<path d="M147.973 67.9534C148.473 68.1409 148.681 68.2533 148.937 68.7313C148.992 68.8899 149.048 69.0485 149.105 69.212C149.312 69.7779 149.519 70.2929 149.793 70.8318C150.027 71.3096 150.027 71.3096 150.027 71.869C149.719 71.8075 149.411 71.746 149.093 71.6826C149.032 71.498 148.97 71.3134 148.907 71.1232C148.352 71.0616 147.798 71.0001 147.227 70.9367C147.042 71.3982 147.042 71.3982 146.853 71.869C146.607 71.8075 146.361 71.746 146.107 71.6826C146.312 71.2003 146.518 70.7188 146.725 70.2375C146.783 70.1015 146.84 69.9654 146.9 69.8252C147.197 69.1381 147.481 68.5281 147.973 67.9534ZM147.973 69.2586C147.85 69.6278 147.727 69.997 147.6 70.3773C147.97 70.3773 148.339 70.3773 148.72 70.3773C148.443 69.8236 148.443 69.8236 148.16 69.2586C148.098 69.2586 148.037 69.2586 147.973 69.2586Z" fill="#212524"/>
<path d="M145.733 74.1065C145.98 74.1065 146.226 74.1065 146.48 74.1065C146.541 74.2551 146.602 74.4036 146.664 74.5567C147.169 75.8032 147.169 75.8032 147.763 77.0083C147.973 77.4628 147.973 77.4628 147.787 78.0222C147.425 77.8823 147.425 77.8823 147.04 77.6493C146.978 77.4031 146.917 77.157 146.853 76.9034C146.299 76.9034 145.745 76.9034 145.173 76.9034C144.989 77.3649 144.989 77.3649 144.8 77.8357C144.554 77.8357 144.307 77.8357 144.053 77.8357C144.323 76.9523 144.683 76.1597 145.103 75.3418C145.194 75.1626 145.194 75.1626 145.287 74.9798C145.435 74.6884 145.584 74.3974 145.733 74.1065ZM145.92 75.2253C145.797 75.5945 145.674 75.9637 145.547 76.3441C145.855 76.3441 146.163 76.3441 146.48 76.3441C146.373 75.8094 146.319 75.624 145.92 75.2253Z" fill="#272A29"/>
<path d="M128.082 68.0116C128.262 68.0263 128.443 68.041 128.629 68.0561C129.12 68.1398 129.12 68.1398 129.68 68.5128C129.867 69.1304 129.867 69.1304 129.867 69.818C129.505 70.3657 129.505 70.3657 128.933 70.7503C128.409 70.8256 127.974 70.7955 127.44 70.7503C127.44 71.1195 127.44 71.4886 127.44 71.869C127.194 71.869 126.947 71.869 126.693 71.869C126.693 70.6384 126.693 69.4078 126.693 68.1398C127.193 67.8905 127.528 67.9624 128.082 68.0116ZM127.44 68.6992C127.44 69.1915 127.44 69.6837 127.44 70.1909C128.235 70.2669 128.235 70.2669 128.91 69.9112C128.979 69.8189 129.049 69.7266 129.12 69.6315C128.997 69.3238 128.874 69.0162 128.747 68.6992C128.315 68.6992 127.884 68.6992 127.44 68.6992Z" fill="#202424"/>
<path d="M123.893 68.1399C123.955 68.386 124.017 68.6321 124.08 68.8857C123.526 68.8857 122.971 68.8857 122.4 68.8857C122.4 69.0703 122.4 69.2549 122.4 69.4451C122.503 69.4833 122.607 69.5215 122.714 69.5609C122.849 69.6111 122.984 69.6614 123.123 69.7131C123.325 69.7877 123.325 69.7877 123.53 69.8639C123.893 70.0045 123.893 70.0045 124.267 70.1909C124.47 70.7454 124.461 70.9151 124.267 71.4961C123.48 71.9614 123.027 72.1301 122.132 71.904C121.912 71.8309 121.693 71.7579 121.467 71.6826C121.405 71.4365 121.343 71.1903 121.28 70.9368C121.465 70.8752 121.65 70.8137 121.84 70.7503C121.963 70.8734 122.086 70.9964 122.213 71.1232C122.789 71.1543 122.789 71.1543 123.333 71.1232C123.395 70.9386 123.457 70.754 123.52 70.5638C123.405 70.5477 123.29 70.5316 123.172 70.515C121.945 70.302 121.945 70.302 121.432 69.7597C121.28 69.2586 121.28 69.2586 121.373 68.7575C122.012 67.7743 122.841 67.9337 123.893 68.1399Z" fill="#232726"/>
<path d="M124.08 80.0733C124.265 80.1963 124.45 80.3194 124.64 80.4462C124.64 80.6308 124.64 80.8154 124.64 81.0056C123.962 81.0056 123.285 81.0056 122.587 81.0056C122.199 81.9316 122.187 82.0582 122.587 83.0566C123.326 83.0566 124.065 83.0566 124.827 83.0566C124.765 83.3027 124.703 83.5489 124.64 83.8024C124.103 84.1241 123.772 84.1794 123.147 84.1404C122.428 83.9461 121.846 83.7386 121.44 83.0887C121.159 82.379 121.25 81.7265 121.467 81.0056C122.278 80.0367 122.887 79.9365 124.08 80.0733Z" fill="#242828"/>
<path d="M82.2667 88.2775C82.4515 88.2775 82.6363 88.2775 82.8267 88.2775C82.8267 89.6927 82.8267 91.1079 82.8267 92.566C82.4686 92.5814 82.1106 92.5968 81.7417 92.6126C81.4396 92.6256 81.4396 92.6256 81.1314 92.6389C80.5867 92.566 80.5867 92.566 80.2396 92.2368C79.9089 91.5897 79.8987 91.0375 80.0267 90.3285C80.3183 89.8624 80.3183 89.8624 80.7733 89.5827C81.4733 89.5361 81.4733 89.5361 82.08 89.5827C82.1416 89.152 82.2032 88.7212 82.2667 88.2775ZM80.96 90.1421C80.619 90.9106 80.619 90.9106 80.75 91.7037C80.8193 91.8036 80.8886 91.9036 80.96 92.0067C81.411 92.0533 81.411 92.0533 81.8933 92.0067C82.332 91.4776 82.332 91.4776 82.2083 90.8646C82.1348 90.3507 82.1348 90.3507 81.8933 90.1421C81.5823 90.1345 81.271 90.1341 80.96 90.1421Z" fill="#484747"/>
<path d="M141.627 74.1066C141.811 74.2296 141.996 74.3527 142.187 74.4795C142.187 74.6641 142.187 74.8487 142.187 75.0389C142.061 75.0146 141.934 74.9903 141.805 74.9653C141.297 74.8869 140.833 74.8299 140.32 74.8524C139.816 75.2703 139.816 75.2703 139.573 75.7847C139.774 76.3283 139.905 76.6756 140.32 77.0899C140.777 77.0941 140.777 77.0941 141.277 77.02C141.447 76.9993 141.616 76.9786 141.791 76.9573C141.922 76.9396 142.052 76.9218 142.187 76.9034C142.125 77.2111 142.063 77.5188 142 77.8357C140.903 78.0378 140.167 78.1223 139.2 77.4628C138.672 76.671 138.662 75.9676 138.827 75.0389C139.592 74.0583 140.412 73.8869 141.627 74.1066Z" fill="#222525"/>
<path d="M140.693 68.3263C140.693 68.5724 140.693 68.8186 140.693 69.0721C140.597 69.0414 140.501 69.0106 140.402 68.9789C139.797 68.855 139.255 68.8401 138.64 68.8857C138.208 69.5326 138.187 69.8034 138.267 70.5638C138.465 70.9331 138.465 70.9331 138.827 71.1232C139.502 71.2097 139.925 71.0944 140.507 70.7503C140.623 71.0999 140.623 71.0999 140.693 71.4961C140.16 72.0291 139.757 72.0183 139.013 72.0555C138.251 71.7774 137.694 71.4914 137.333 70.7503C137.247 70.0866 137.28 69.477 137.438 68.8274C138.285 67.8345 139.576 67.768 140.693 68.3263Z" fill="#242726"/>
<path d="M152.08 89.5827C154.216 89.5139 154.216 89.5139 154.668 89.8128C155.068 90.4334 154.97 91.1113 154.88 91.8202C154.693 92.298 154.693 92.298 154.32 92.566C153.806 92.6258 153.348 92.6002 152.827 92.566C152.765 92.9352 152.703 93.3044 152.64 93.6848C152.455 93.6848 152.27 93.6848 152.08 93.6848C152.08 92.3311 152.08 90.9774 152.08 89.5827ZM153.013 90.1421C152.575 90.6712 152.575 90.6712 152.698 91.2841C152.772 91.798 152.772 91.798 153.013 92.0067C153.472 92.0688 153.472 92.0688 153.947 92.0067C154.385 91.4776 154.385 91.4776 154.262 90.8646C154.188 90.3507 154.188 90.3507 153.947 90.1421C153.488 90.0799 153.488 90.0799 153.013 90.1421Z" fill="#484747"/>
<path d="M107.84 88.4639C108.579 88.4639 109.318 88.4639 110.08 88.4639C110.08 88.6485 110.08 88.8331 110.08 89.0233C109.526 89.0233 108.971 89.0233 108.4 89.0233C108.4 89.3925 108.4 89.7617 108.4 90.1421C108.954 90.1421 109.509 90.1421 110.08 90.1421C110.08 90.3267 110.08 90.5113 110.08 90.7014C109.526 90.7014 108.971 90.7014 108.4 90.7014C108.4 91.1322 108.4 91.5629 108.4 92.0067C109.016 92.0067 109.632 92.0067 110.267 92.0067C110.267 92.1913 110.267 92.3758 110.267 92.566C109.466 92.566 108.665 92.566 107.84 92.566C107.84 91.2123 107.84 89.8586 107.84 88.4639Z" fill="#484747"/>
<path d="M77.2267 88.4639C77.9659 88.4639 78.7051 88.4639 79.4667 88.4639C79.4667 88.6485 79.4667 88.8331 79.4667 89.0233C78.9123 89.0233 78.3579 89.0233 77.7867 89.0233C77.7867 89.3925 77.7867 89.7617 77.7867 90.1421C78.3411 90.1421 78.8955 90.1421 79.4667 90.1421C79.4667 90.3267 79.4667 90.5113 79.4667 90.7014C78.9123 90.7014 78.3579 90.7014 77.7867 90.7014C77.7867 91.1322 77.7867 91.5629 77.7867 92.0067C78.4027 92.0067 79.0187 92.0067 79.6533 92.0067C79.6533 92.1913 79.6533 92.3758 79.6533 92.566C78.8525 92.566 78.0517 92.566 77.2267 92.566C77.2267 91.2123 77.2267 89.8586 77.2267 88.4639Z" fill="#484747"/>
<path d="M62.7017 88.4406C63.0539 88.4522 63.0539 88.4522 63.4133 88.4639C63.4749 88.587 63.5365 88.7101 63.6 88.8369C63.2267 89.2098 63.2267 89.2098 62.6433 89.2331C62.4662 89.2254 62.2891 89.2177 62.1067 89.2098C62.1067 89.3944 62.1067 89.579 62.1067 89.7692C62.4404 89.9957 62.4404 89.9957 62.8533 90.1887C63.2653 90.429 63.2653 90.429 63.6 90.7014C63.7283 91.3774 63.7283 91.3774 63.6 92.0067C63.3667 92.3235 63.3667 92.3235 63.04 92.566C62.6178 92.6207 62.6178 92.6207 62.165 92.601C62.0141 92.596 61.8633 92.5909 61.7078 92.5857C61.593 92.5792 61.4783 92.5727 61.36 92.566C61.36 92.3199 61.36 92.0738 61.36 91.8202C61.8528 91.8817 62.3456 91.9433 62.8533 92.0067C62.8463 91.5643 62.8463 91.5643 62.6667 91.0744C62.121 90.6488 62.121 90.6488 61.5467 90.3285C61.36 90.1421 61.36 90.1421 61.3133 89.5011C61.3287 89.2819 61.3441 89.0627 61.36 88.8369C61.9366 88.4529 62.0524 88.4194 62.7017 88.4406Z" fill="#474747"/>
<path d="M150.96 89.5827C151.401 89.9129 151.491 90.1476 151.578 90.684C151.618 91.3445 151.584 91.7174 151.228 92.2863C150.596 92.6749 150.196 92.6701 149.467 92.566C149.012 92.2863 149.012 92.2863 148.72 91.8202C148.571 91.0712 148.604 90.5209 149 89.8624C149.707 89.4387 150.141 89.4788 150.96 89.5827ZM149.653 90.1421C149.312 90.9105 149.312 90.9105 149.443 91.7037C149.513 91.8036 149.582 91.9036 149.653 92.0067C150.104 92.0533 150.104 92.0533 150.587 92.0067C151.025 91.4776 151.025 91.4776 150.902 90.8646C150.828 90.3507 150.828 90.3507 150.587 90.1421C150.276 90.1345 149.964 90.1341 149.653 90.1421Z" fill="#484747"/>
<path d="M124.453 89.5827C124.894 89.9129 124.984 90.1476 125.071 90.684C125.112 91.3445 125.078 91.7174 124.722 92.2863C124.09 92.6749 123.689 92.6701 122.96 92.566C122.505 92.2863 122.505 92.2863 122.213 91.8202C122.064 91.0712 122.098 90.5209 122.493 89.8624C123.2 89.4387 123.634 89.4788 124.453 89.5827ZM123.147 90.1421C122.806 90.9105 122.806 90.9105 122.937 91.7037C123.006 91.8036 123.075 91.9036 123.147 92.0067C123.598 92.0533 123.598 92.0533 124.08 92.0067C124.519 91.4776 124.519 91.4776 124.395 90.8646C124.321 90.3507 124.321 90.3507 124.08 90.1421C123.769 90.1345 123.458 90.1341 123.147 90.1421Z" fill="#484747"/>
<path d="M117.92 89.5827C118.361 89.9129 118.451 90.1476 118.538 90.684C118.578 91.3445 118.544 91.7174 118.188 92.2863C117.556 92.6749 117.156 92.6701 116.427 92.566C115.972 92.2863 115.972 92.2863 115.68 91.8202C115.531 91.0712 115.564 90.5209 115.96 89.8624C116.667 89.4387 117.101 89.4788 117.92 89.5827ZM116.613 90.1421C116.272 90.9105 116.272 90.9105 116.403 91.7037C116.473 91.8036 116.542 91.9036 116.613 92.0067C117.064 92.0533 117.064 92.0533 117.547 92.0067C117.985 91.4776 117.985 91.4776 117.862 90.8646C117.788 90.3507 117.788 90.3507 117.547 90.1421C117.236 90.1345 116.924 90.1341 116.613 90.1421Z" fill="#484747"/>
<path d="M97.76 89.5827C98.2007 89.9129 98.2907 90.1476 98.3776 90.684C98.4183 91.3445 98.3843 91.7174 98.0283 92.2863C97.3962 92.6749 96.9958 92.6701 96.2667 92.566C95.8117 92.2863 95.8117 92.2863 95.52 91.8202C95.371 91.0712 95.4045 90.5209 95.8 89.8624C96.507 89.4387 96.9409 89.4788 97.76 89.5827ZM96.4533 90.1421C96.1124 90.9105 96.1124 90.9105 96.2433 91.7037C96.3126 91.8036 96.3819 91.9036 96.4533 92.0067C96.9044 92.0533 96.9044 92.0533 97.3867 92.0067C97.8254 91.4776 97.8254 91.4776 97.7017 90.8646C97.6281 90.3507 97.6281 90.3507 97.3867 90.1421C97.0757 90.1345 96.7643 90.1341 96.4533 90.1421Z" fill="#484747"/>
<path d="M66.4 89.5827C66.8407 89.9129 66.9307 90.1476 67.0176 90.684C67.0583 91.3445 67.0243 91.7174 66.6683 92.2863C66.0362 92.6749 65.6358 92.6701 64.9067 92.566C64.4517 92.2863 64.4517 92.2863 64.16 91.8202C64.011 91.0712 64.0445 90.5209 64.44 89.8624C65.147 89.4387 65.5809 89.4788 66.4 89.5827ZM65.0933 90.1421C64.7524 90.9105 64.7524 90.9105 64.8833 91.7037C64.9526 91.8036 65.0219 91.9036 65.0933 92.0067C65.5444 92.0533 65.5444 92.0533 66.0267 92.0067C66.4654 91.4776 66.4654 91.4776 66.3417 90.8646C66.2681 90.3507 66.2681 90.3507 66.0267 90.1421C65.7157 90.1345 65.4043 90.1341 65.0933 90.1421Z" fill="#484747"/>
<path d="M149.467 74.1065C150.514 74.1065 151.561 74.1065 152.64 74.1065C152.64 74.2911 152.64 74.4757 152.64 74.6659C152.27 74.7274 151.901 74.789 151.52 74.8524C151.522 75.0499 151.524 75.2475 151.527 75.4511C151.528 75.7099 151.53 75.9687 151.532 76.2275C151.533 76.3578 151.535 76.4881 151.536 76.6223C151.541 77.607 151.541 77.607 151.333 78.0222C151.149 78.0222 150.964 78.0222 150.773 78.0222C150.476 77.4277 150.568 76.7862 150.575 76.1343C150.576 75.9937 150.577 75.8531 150.578 75.7082C150.58 75.3608 150.583 75.0133 150.587 74.6659C150.217 74.6659 149.847 74.6659 149.467 74.6659C149.467 74.4813 149.467 74.2967 149.467 74.1065Z" fill="#242B2A"/>
<path d="M138.267 80.0732C139.252 80.0732 140.238 80.0732 141.253 80.0732C141.253 80.3194 141.253 80.5655 141.253 80.8191C140.884 80.8191 140.514 80.8191 140.133 80.8191C140.133 81.8651 140.133 82.9112 140.133 83.9889C139.887 83.9889 139.641 83.9889 139.387 83.9889C139.158 83.3046 139.222 82.8068 139.282 82.0893C139.301 81.8521 139.32 81.6149 139.339 81.3704C139.355 81.1885 139.371 81.0065 139.387 80.8191C139.017 80.8191 138.647 80.8191 138.267 80.8191C138.267 80.573 138.267 80.3268 138.267 80.0732Z" fill="#242626"/>
<path d="M161.705 89.4894C162.347 89.5827 162.347 89.5827 162.708 89.7924C162.99 90.2884 162.944 90.7018 162.907 91.2608C162.291 91.3223 161.675 91.3839 161.04 91.4473C161.102 91.5703 161.163 91.6934 161.227 91.8202C161.58 91.9069 161.58 91.9069 161.985 91.9367C162.228 91.9598 162.47 91.9829 162.72 92.0066C162.72 92.1912 162.72 92.3758 162.72 92.566C161.228 92.6806 161.228 92.6806 160.562 92.2747C160.187 91.6393 160.191 91.2414 160.293 90.515C160.688 89.774 160.865 89.6072 161.705 89.4894ZM161.6 89.9556C161.415 90.0787 161.23 90.2017 161.04 90.3285C161.04 90.5131 161.04 90.6977 161.04 90.8879C161.471 90.8879 161.902 90.8879 162.347 90.8879C162.297 90.5178 162.297 90.5178 162.16 90.142C161.975 90.0805 161.79 90.019 161.6 89.9556Z" fill="#484747"/>
<path d="M145.652 89.4894C146.293 89.5827 146.293 89.5827 146.655 89.7924C146.936 90.2884 146.891 90.7018 146.853 91.2608C146.237 91.3223 145.621 91.3839 144.987 91.4473C145.048 91.5703 145.11 91.6934 145.173 91.8202C145.527 91.9069 145.527 91.9069 145.932 91.9367C146.174 91.9598 146.417 91.9829 146.667 92.0066C146.667 92.1912 146.667 92.3758 146.667 92.566C145.175 92.6806 145.175 92.6806 144.508 92.2747C144.133 91.6393 144.138 91.2414 144.24 90.515C144.635 89.774 144.811 89.6072 145.652 89.4894ZM145.547 89.9556C145.362 90.0787 145.177 90.2017 144.987 90.3285C144.987 90.5131 144.987 90.6977 144.987 90.8879C145.418 90.8879 145.849 90.8879 146.293 90.8879C146.244 90.5178 146.244 90.5178 146.107 90.142C145.922 90.0805 145.737 90.019 145.547 89.9556Z" fill="#484747"/>
<path d="M139.865 89.4894C140.507 89.5827 140.507 89.5827 140.868 89.7924C141.15 90.2884 141.104 90.7018 141.067 91.2608C140.451 91.3223 139.835 91.3839 139.2 91.4473C139.262 91.5703 139.323 91.6934 139.387 91.8202C139.74 91.9069 139.74 91.9069 140.145 91.9367C140.388 91.9598 140.63 91.9829 140.88 92.0066C140.88 92.1912 140.88 92.3758 140.88 92.566C139.388 92.6806 139.388 92.6806 138.722 92.2747C138.347 91.6393 138.351 91.2414 138.453 90.515C138.848 89.774 139.025 89.6072 139.865 89.4894ZM139.76 89.9556C139.575 90.0787 139.39 90.2017 139.2 90.3285C139.2 90.5131 139.2 90.6977 139.2 90.8879C139.631 90.8879 140.062 90.8879 140.507 90.8879C140.457 90.5178 140.457 90.5178 140.32 90.142C140.135 90.0805 139.95 90.019 139.76 89.9556Z" fill="#484747"/>
<path d="M129.307 89.5827C130.437 89.5463 130.437 89.5463 130.8 89.5827C131.333 90.1156 131.249 90.5423 131.29 91.2841C131.304 91.523 131.318 91.7619 131.332 92.0081C131.346 92.2843 131.346 92.2843 131.36 92.566C131.026 92.5761 130.691 92.5833 130.357 92.5893C130.17 92.5937 129.984 92.598 129.792 92.6024C129.307 92.566 129.307 92.566 128.933 92.1931C128.866 91.6692 128.862 91.376 129.143 90.9228C129.638 90.6099 130.041 90.6633 130.613 90.7014C130.552 90.5784 130.49 90.4553 130.427 90.3285C130.057 90.3285 129.687 90.3285 129.307 90.3285C129.307 90.0824 129.307 89.8363 129.307 89.5827ZM129.68 91.2608C129.618 91.4454 129.557 91.63 129.493 91.8202C129.955 91.9125 129.955 91.9125 130.427 92.0066C130.488 91.699 130.55 91.3913 130.613 91.0743C130.201 91.0547 130.201 91.0547 129.68 91.2608Z" fill="#484747"/>
<path d="M102.427 89.5827C103.557 89.5463 103.557 89.5463 103.92 89.5827C104.453 90.1156 104.369 90.5423 104.41 91.2841C104.424 91.523 104.438 91.7619 104.452 92.0081C104.466 92.2843 104.466 92.2843 104.48 92.566C104.146 92.5761 103.811 92.5833 103.477 92.5893C103.29 92.5937 103.104 92.598 102.912 92.6024C102.427 92.566 102.427 92.566 102.053 92.1931C101.986 91.6692 101.982 91.376 102.263 90.9228C102.758 90.6099 103.161 90.6633 103.733 90.7014C103.672 90.5784 103.61 90.4553 103.547 90.3285C103.177 90.3285 102.807 90.3285 102.427 90.3285C102.427 90.0824 102.427 89.8363 102.427 89.5827ZM102.8 91.2608C102.738 91.4454 102.677 91.63 102.613 91.8202C103.075 91.9125 103.075 91.9125 103.547 92.0066C103.608 91.699 103.67 91.3913 103.733 91.0743C103.321 91.0547 103.321 91.0547 102.8 91.2608Z" fill="#484747"/>
<path d="M89.7333 89.5827C90.8635 89.5463 90.8635 89.5463 91.2267 89.5827C91.7601 90.1156 91.6762 90.5423 91.7167 91.2841C91.7306 91.523 91.7446 91.7619 91.759 92.0081C91.7727 92.2843 91.7727 92.2843 91.7867 92.566C91.4523 92.5761 91.1178 92.5833 90.7833 92.5893C90.5971 92.5937 90.4108 92.598 90.219 92.6024C89.7333 92.566 89.7333 92.566 89.36 92.1931C89.2928 91.6692 89.2884 91.376 89.57 90.9228C90.0647 90.6099 90.4674 90.6633 91.04 90.7014C90.9784 90.5784 90.9168 90.4553 90.8533 90.3285C90.4837 90.3285 90.1141 90.3285 89.7333 90.3285C89.7333 90.0824 89.7333 89.8363 89.7333 89.5827ZM90.1067 91.2608C90.0451 91.4454 89.9835 91.63 89.92 91.8202C90.382 91.9125 90.382 91.9125 90.8533 92.0066C90.9149 91.699 90.9765 91.3913 91.04 91.0743C90.6273 91.0547 90.6273 91.0547 90.1067 91.2608Z" fill="#484747"/>
<path d="M71.8133 89.5827C72.9435 89.5463 72.9435 89.5463 73.3067 89.5827C73.8402 90.1156 73.7562 90.5423 73.7967 91.2841C73.8106 91.523 73.8246 91.7619 73.839 92.0081C73.8527 92.2843 73.8527 92.2843 73.8667 92.566C73.5323 92.5761 73.1978 92.5833 72.8633 92.5893C72.6771 92.5937 72.4908 92.598 72.299 92.6024C71.8133 92.566 71.8133 92.566 71.44 92.1931C71.3728 91.6692 71.3684 91.376 71.65 90.9228C72.1447 90.6099 72.5474 90.6633 73.12 90.7014C73.0584 90.5784 72.9968 90.4553 72.9333 90.3285C72.5637 90.3285 72.1941 90.3285 71.8133 90.3285C71.8133 90.0824 71.8133 89.8363 71.8133 89.5827ZM72.1867 91.2608C72.1251 91.4454 72.0635 91.63 72 91.8202C72.462 91.9125 72.462 91.9125 72.9333 92.0066C72.9949 91.699 73.0565 91.3913 73.12 91.0743C72.7073 91.0547 72.7073 91.0547 72.1867 91.2608Z" fill="#484747"/>
<path d="M163.467 89.5827C165.18 89.5281 165.18 89.5281 165.707 89.5827C166.159 90.2599 166.119 90.5865 166.103 91.389C166.1 91.6089 166.097 91.8289 166.093 92.0555C166.087 92.3082 166.087 92.3082 166.08 92.566C165.895 92.566 165.71 92.566 165.52 92.566C165.509 92.4358 165.497 92.3055 165.486 92.1713C165.47 92.0016 165.454 91.8319 165.438 91.657C165.423 91.4883 165.408 91.3196 165.392 91.1457C165.358 90.6994 165.358 90.6994 165.147 90.3285C164.9 90.3285 164.654 90.3285 164.4 90.3285C164.173 90.7823 164.154 91.1524 164.108 91.657C164.085 91.9116 164.085 91.9116 164.061 92.1713C164.05 92.3015 164.038 92.4318 164.027 92.566C163.842 92.566 163.657 92.566 163.467 92.566C163.467 91.5815 163.467 90.597 163.467 89.5827Z" fill="#484747"/>
<path d="M125.76 89.5827C127.474 89.5281 127.474 89.5281 128 89.5827C128.452 90.2599 128.413 90.5865 128.397 91.389C128.393 91.6089 128.39 91.8289 128.386 92.0555C128.38 92.3082 128.38 92.3082 128.373 92.566C128.189 92.566 128.004 92.566 127.813 92.566C127.802 92.4358 127.791 92.3055 127.779 92.1713C127.763 92.0016 127.748 91.8319 127.732 91.657C127.717 91.4883 127.701 91.3196 127.686 91.1457C127.651 90.6994 127.651 90.6994 127.44 90.3285C127.194 90.3285 126.947 90.3285 126.693 90.3285C126.466 90.7823 126.447 91.1524 126.402 91.657C126.378 91.9116 126.378 91.9116 126.354 92.1713C126.343 92.3015 126.332 92.4318 126.32 92.566C126.135 92.566 125.95 92.566 125.76 92.566C125.76 91.5815 125.76 90.597 125.76 89.5827Z" fill="#484747"/>
<path d="M99.0667 89.5827C100.78 89.5281 100.78 89.5281 101.307 89.5827C101.759 90.2599 101.719 90.5865 101.703 91.389C101.7 91.6089 101.697 91.8289 101.693 92.0555C101.687 92.3082 101.687 92.3082 101.68 92.566C101.495 92.566 101.31 92.566 101.12 92.566C101.109 92.4358 101.097 92.3055 101.086 92.1713C101.07 92.0016 101.054 91.8319 101.038 91.657C101.023 91.4883 101.008 91.3196 100.992 91.1457C100.958 90.6994 100.958 90.6994 100.747 90.3285C100.5 90.3285 100.254 90.3285 100 90.3285C99.7728 90.7823 99.7537 91.1524 99.7083 91.657C99.6849 91.9116 99.6849 91.9116 99.6609 92.1713C99.6496 92.3015 99.6383 92.4318 99.6267 92.566C99.4419 92.566 99.2571 92.566 99.0667 92.566C99.0667 91.5815 99.0667 90.597 99.0667 89.5827Z" fill="#484747"/>
<path d="M83.5733 89.5827C83.7581 89.5827 83.9429 89.5827 84.1333 89.5827C84.1447 89.7129 84.156 89.8432 84.1676 89.9774C84.1833 90.1471 84.1989 90.3168 84.215 90.4917C84.2377 90.7448 84.2377 90.7448 84.2609 91.003C84.2957 91.4493 84.2957 91.4493 84.5067 91.8202C84.7531 91.7587 84.9995 91.6971 85.2533 91.6337C85.3149 90.9569 85.3765 90.28 85.44 89.5827C85.6248 89.5827 85.8096 89.5827 86 89.5827C86 90.5672 86 91.5517 86 92.566C84.4323 92.6207 84.4323 92.6207 83.9467 92.566C83.4947 91.8888 83.5341 91.5622 83.55 90.7597C83.5551 90.4298 83.5551 90.4298 83.5602 90.0933C83.5645 89.9248 83.5689 89.7563 83.5733 89.5827Z" fill="#484747"/>
<path d="M152.453 67.9534C152.638 68.0149 152.823 68.0764 153.013 68.1398C153.013 69.1859 153.013 70.2319 153.013 71.3096C153.629 71.3096 154.245 71.3096 154.88 71.3096C154.88 71.4942 154.88 71.6788 154.88 71.869C154.018 71.869 153.155 71.869 152.267 71.869C152.262 71.2514 152.258 70.6337 152.255 70.0161C152.253 69.8398 152.252 69.6635 152.25 69.4818C152.25 69.3142 152.249 69.1465 152.248 68.9738C152.247 68.8185 152.246 68.6633 152.245 68.5033C152.267 68.1398 152.267 68.1398 152.453 67.9534Z" fill="#262626"/>
<path d="M141.253 89.5827C141.5 89.5827 141.746 89.5827 142 89.5827C142.246 90.1365 142.493 90.6902 142.747 91.2608C142.931 90.707 143.116 90.1532 143.307 89.5827C143.553 89.5827 143.799 89.5827 144.053 89.5827C143.931 90.2879 143.732 90.9286 143.482 91.5988C143.414 91.7807 143.346 91.9627 143.277 92.1501C143.225 92.2874 143.173 92.4246 143.12 92.566C142.812 92.566 142.504 92.566 142.187 92.566C142.03 92.139 141.875 91.7116 141.72 91.2841C141.653 91.102 141.653 91.102 141.585 90.9163C141.253 89.9978 141.253 89.9978 141.253 89.5827Z" fill="#484747"/>
<path d="M88.9867 89.5827C88.9251 89.7673 88.8635 89.9519 88.8 90.1421C88.135 90.3635 88.135 90.3635 87.4933 90.515C87.3642 90.8594 87.3642 90.8594 87.3067 91.2608C87.7871 91.9808 88.1672 91.9961 88.9867 92.1931C88.9867 92.3162 88.9867 92.4393 88.9867 92.566C87.5018 92.6801 87.5018 92.6801 86.8283 92.2864C86.4473 91.6244 86.4147 91.0738 86.56 90.3285C87.1205 89.3548 87.9835 89.5056 88.9867 89.5827Z" fill="#474747"/>
<path d="M69.9467 89.5827C69.8851 89.7673 69.8235 89.9519 69.76 90.1421C69.095 90.3635 69.095 90.3635 68.4533 90.515C68.3242 90.8594 68.3242 90.8594 68.2667 91.2608C68.7472 91.9808 69.1272 91.9961 69.9467 92.1931C69.9467 92.3162 69.9467 92.4393 69.9467 92.566C68.4618 92.6801 68.4618 92.6801 67.7883 92.2864C67.4073 91.6244 67.3747 91.0738 67.52 90.3285C68.0805 89.3548 68.9435 89.5056 69.9467 89.5827Z" fill="#474747"/>
<path d="M143.12 68.1398C143.428 68.1398 143.736 68.1398 144.053 68.1398C144.053 69.3089 144.053 70.478 144.053 71.6826C143.745 71.7441 143.437 71.8056 143.12 71.869C143.12 70.6384 143.12 69.4078 143.12 68.1398Z" fill="#222524"/>
<path d="M167.2 88.6504C167.323 88.6504 167.446 88.6504 167.573 88.6504C167.573 88.958 167.573 89.2657 167.573 89.5827C167.82 89.5827 168.066 89.5827 168.32 89.5827C168.32 89.7673 168.32 89.9519 168.32 90.1421C168.074 90.1421 167.827 90.1421 167.573 90.1421C167.573 90.7574 167.573 91.3727 167.573 92.0067C167.82 92.0067 168.066 92.0067 168.32 92.0067C168.32 92.1913 168.32 92.3759 168.32 92.566C167.947 92.574 167.573 92.5736 167.2 92.566C167.013 92.3796 167.013 92.3796 166.995 91.8719C166.997 91.6664 166.999 91.4609 167.002 91.2492C167.003 91.0432 167.005 90.8372 167.007 90.625C167.009 90.4656 167.011 90.3063 167.013 90.1421C166.829 90.1421 166.644 90.1421 166.453 90.1421C166.453 89.9575 166.453 89.7729 166.453 89.5827C166.638 89.5827 166.823 89.5827 167.013 89.5827C167.075 89.275 167.137 88.9674 167.2 88.6504Z" fill="#494747"/>
<path d="M119.413 88.6504C119.537 88.6504 119.66 88.6504 119.787 88.6504C119.787 88.958 119.787 89.2657 119.787 89.5827C120.033 89.5827 120.279 89.5827 120.533 89.5827C120.533 89.7673 120.533 89.9519 120.533 90.1421C120.287 90.1421 120.041 90.1421 119.787 90.1421C119.787 90.7574 119.787 91.3727 119.787 92.0067C120.033 92.0067 120.279 92.0067 120.533 92.0067C120.533 92.1913 120.533 92.3759 120.533 92.566C120.16 92.574 119.787 92.5736 119.413 92.566C119.227 92.3796 119.227 92.3796 119.208 91.8719C119.211 91.6664 119.213 91.4609 119.215 91.2492C119.217 91.0432 119.218 90.8372 119.22 90.625C119.222 90.4656 119.224 90.3063 119.227 90.1421C119.042 90.1421 118.857 90.1421 118.667 90.1421C118.667 89.9575 118.667 89.7729 118.667 89.5827C118.851 89.5827 119.036 89.5827 119.227 89.5827C119.288 89.275 119.35 88.9674 119.413 88.6504Z" fill="#494747"/>
<path d="M92.72 88.6504C92.8432 88.6504 92.9664 88.6504 93.0933 88.6504C93.0933 88.958 93.0933 89.2657 93.0933 89.5827C93.3397 89.5827 93.5861 89.5827 93.84 89.5827C93.84 89.7673 93.84 89.9519 93.84 90.1421C93.5936 90.1421 93.3472 90.1421 93.0933 90.1421C93.0933 90.7574 93.0933 91.3727 93.0933 92.0067C93.3397 92.0067 93.5861 92.0067 93.84 92.0067C93.84 92.1913 93.84 92.3759 93.84 92.566C93.4667 92.574 93.0932 92.5736 92.72 92.566C92.5333 92.3796 92.5333 92.3796 92.5151 91.8719C92.5173 91.6664 92.5194 91.4609 92.5217 91.2492C92.5233 91.0432 92.525 90.8372 92.5268 90.625C92.5289 90.4656 92.5311 90.3063 92.5333 90.1421C92.3485 90.1421 92.1637 90.1421 91.9733 90.1421C91.9733 89.9575 91.9733 89.7729 91.9733 89.5827C92.1581 89.5827 92.3429 89.5827 92.5333 89.5827C92.5949 89.275 92.6565 88.9674 92.72 88.6504Z" fill="#494747"/>
<path d="M154.88 74.1065C155.342 74.1988 155.342 74.1988 155.813 74.293C155.823 74.8097 155.831 75.3262 155.837 75.8429C155.84 75.9894 155.843 76.1359 155.846 76.2869C155.847 76.4281 155.849 76.5693 155.85 76.7148C155.852 76.8447 155.854 76.9745 155.856 77.1083C155.813 77.4628 155.813 77.4628 155.44 78.0222C155.255 77.9607 155.07 77.8991 154.88 77.8357C154.88 76.6051 154.88 75.3745 154.88 74.1065Z" fill="#191E1D"/>
<path d="M94.4 35.5094C94.4 35.571 94.4 35.6325 94.4 35.6959C94.092 35.6959 93.784 35.6959 93.4667 35.6959C93.4667 35.5728 93.4667 35.4498 93.4667 35.323C93.2896 35.3307 93.1125 35.3384 92.93 35.3463C92.3467 35.323 92.3467 35.323 91.9733 34.9501C91.096 34.7798 90.2468 34.7414 89.3549 34.7454C88.9949 34.7463 88.9949 34.7463 88.6275 34.7472C88.3778 34.7488 88.1281 34.7504 87.8783 34.7519C87.6235 34.7529 87.3686 34.7537 87.1138 34.7545C86.4936 34.7567 85.8735 34.7597 85.2533 34.7636C87.6532 33.1654 92.0686 34.2799 94.4 35.5094Z" fill="#30CBBE"/>
<path d="M135.093 68.1398C135.093 68.3244 135.093 68.509 135.093 68.6992C134.416 68.6992 133.738 68.6992 133.04 68.6992C133.04 69.0069 133.04 69.3145 133.04 69.6315C132.978 69.6315 132.917 69.6315 132.853 69.6315C132.853 69.2008 132.853 68.7701 132.853 68.3263C132.73 68.3263 132.607 68.3263 132.48 68.3263C132.48 69.4339 132.48 70.5414 132.48 71.6826C133.281 71.6826 134.082 71.6826 134.907 71.6826C134.968 71.5595 135.03 71.4365 135.093 71.3097C135.093 71.4943 135.093 71.6788 135.093 71.869C134.169 71.869 133.245 71.869 132.293 71.869C132.293 70.6384 132.293 69.4078 132.293 68.1398C134.293 67.7403 134.293 67.7403 135.093 68.1398Z" fill="#1E2120"/>
<path d="M148.72 69.818C149.313 70.0221 149.465 70.1875 149.793 70.7386C150.027 71.3097 150.027 71.3097 150.027 71.869C149.565 71.7768 149.565 71.7768 149.093 71.6826C149.032 71.498 148.97 71.3134 148.907 71.1232C148.352 71.0617 147.798 71.0001 147.227 70.9368C147.227 71.0598 147.227 71.1829 147.227 71.3097C146.857 71.4943 146.857 71.4943 146.48 71.6826C146.783 70.424 146.783 70.424 147.413 70.0045C147.413 70.189 147.413 70.3736 147.413 70.5638C148.06 70.4715 148.06 70.4715 148.72 70.3774C148.72 70.1928 148.72 70.0082 148.72 69.818Z" fill="#282B2A"/>
<path d="M126.88 68.3263C127.558 68.3263 128.235 68.3263 128.933 68.3263C128.331 68.7275 128.134 68.7367 127.44 68.6992C127.44 69.1915 127.44 69.6837 127.44 70.1909C127.871 70.1909 128.302 70.1909 128.747 70.1909C128.685 70.314 128.623 70.437 128.56 70.5638C128.19 70.5638 127.821 70.5638 127.44 70.5638C127.44 70.8715 127.44 71.1791 127.44 71.4961C127.255 71.5576 127.07 71.6192 126.88 71.6826C126.88 70.575 126.88 69.4674 126.88 68.3263Z" fill="#2B2B2B"/>
<path d="M149.093 80.2597C151.052 80.1907 151.052 80.1907 151.491 80.5103C151.786 80.9328 151.747 81.2484 151.707 81.7514C151.583 81.6283 151.46 81.5053 151.333 81.3785C151.333 81.1939 151.333 81.0093 151.333 80.8191C150.717 80.7576 150.101 80.696 149.467 80.6326C149.467 81.1864 149.467 81.7402 149.467 82.3108C149.713 82.3723 149.959 82.4338 150.213 82.4972C149.967 82.5588 149.721 82.6203 149.467 82.6837C149.467 83.0529 149.467 83.4221 149.467 83.8024C149.343 83.8024 149.22 83.8024 149.093 83.8024C149.093 82.6333 149.093 81.4642 149.093 80.2597Z" fill="#2F2F2F"/>
<path d="M91.04 26.3729C91.3703 26.6679 91.3703 26.6679 91.6 26.9323C91.3536 26.9323 91.1072 26.9323 90.8533 26.9323C90.8533 26.8092 90.8533 26.6862 90.8533 26.5594C90.0525 26.5594 89.2517 26.5594 88.4267 26.5594C88.3035 26.8055 88.1803 27.0516 88.0533 27.3052C87.7733 27.7247 87.7733 27.7247 87.4933 28.0511C87.3701 28.0511 87.2469 28.0511 87.12 28.0511C87.0584 28.6048 86.9968 29.1586 86.9333 29.7292C86.8717 29.7292 86.8101 29.7292 86.7467 29.7292C86.6926 28.6855 86.7122 28.0197 87.3067 27.1188C88.4444 26.013 89.5782 25.8027 91.04 26.3729Z" fill="#30CBBE"/>
<path d="M147.413 88.2775C147.598 88.2775 147.783 88.2775 147.973 88.2775C147.973 89.6927 147.973 91.1079 147.973 92.566C147.789 92.566 147.604 92.566 147.413 92.566C147.413 91.1508 147.413 89.7356 147.413 88.2775Z" fill="#494747"/>
<path d="M131.92 88.2775C132.105 88.2775 132.29 88.2775 132.48 88.2775C132.48 89.6927 132.48 91.1079 132.48 92.566C132.295 92.566 132.11 92.566 131.92 92.566C131.92 91.1508 131.92 89.7356 131.92 88.2775Z" fill="#494747"/>
<path d="M105.227 88.2775C105.411 88.2775 105.596 88.2775 105.787 88.2775C105.787 89.6927 105.787 91.1079 105.787 92.566C105.602 92.566 105.417 92.566 105.227 92.566C105.227 91.1508 105.227 89.7356 105.227 88.2775Z" fill="#494747"/>
<path d="M74.6133 88.2775C74.7981 88.2775 74.9829 88.2775 75.1733 88.2775C75.1733 89.6927 75.1733 91.1079 75.1733 92.566C74.9885 92.566 74.8037 92.566 74.6133 92.566C74.6133 91.1508 74.6133 89.7356 74.6133 88.2775Z" fill="#494747"/>
<path d="M114.187 68.1398C114.248 68.1398 114.31 68.1398 114.373 68.1398C114.373 70.1088 114.373 72.0779 114.373 74.1065C114.189 74.045 114.004 73.9835 113.813 73.9201C113.835 73.1268 113.859 72.3336 113.883 71.5404C113.891 71.2704 113.899 71.0003 113.906 70.7303C113.917 70.3429 113.929 69.9555 113.941 69.5681C113.948 69.3348 113.955 69.1014 113.962 68.861C114 68.3263 114 68.3263 114.187 68.1398Z" fill="#1D2928"/>
<path d="M109.893 67.0211C107.305 68.2802 104.47 68.5777 101.68 67.7669C101.68 67.7054 101.68 67.6439 101.68 67.5805C101.907 67.6007 101.907 67.6007 102.139 67.6213C105.519 67.9252 105.519 67.9252 108.762 67.0794C109.333 66.8346 109.333 66.8346 109.893 67.0211Z" fill="#027466"/>
<path d="M77.9733 41.1032C78.1818 41.7279 78.1157 42.146 77.9733 42.7813C77.6388 42.7238 77.3043 42.6654 76.97 42.6065C76.7838 42.5741 76.5975 42.5416 76.4056 42.5082C75.92 42.4084 75.92 42.4084 75.5467 42.222C75.2903 42.194 75.0328 42.1757 74.7752 42.163C74.6248 42.1552 74.4744 42.1473 74.3195 42.1393C74.1623 42.132 74.0052 42.1246 73.8433 42.1171C73.6848 42.109 73.5262 42.101 73.3628 42.0927C72.9708 42.0729 72.5787 42.0541 72.1867 42.0355C72.1867 41.974 72.1867 41.9124 72.1867 41.849C73.9949 41.462 75.9225 41.6376 77.6 42.4084C77.7232 41.9777 77.8464 41.547 77.9733 41.1032Z" fill="#30CBBE"/>
<path d="M115.68 54.5283C116.325 55.4942 116.315 56.7184 116.174 57.854C116.084 58.3033 115.979 58.7455 115.867 59.1898C115.803 59.5003 115.74 59.811 115.68 60.1221C115.618 60.1221 115.557 60.1221 115.493 60.1221C115.555 58.2761 115.617 56.4302 115.68 54.5283Z" fill="#027466"/>
<path d="M80.0267 44.0866C80.0883 44.0866 80.1499 44.0866 80.2133 44.0866C80.2133 45.4403 80.2133 46.794 80.2133 48.1887C79.9053 47.881 79.5973 47.5734 79.28 47.2564C79.0454 47.0475 78.8086 46.8411 78.5683 46.6387C78.4555 46.5433 78.3426 46.4479 78.2263 46.3496C78.1429 46.2796 78.0594 46.2097 77.9733 46.1376C78.2197 46.0761 78.4661 46.0146 78.72 45.9512C78.8355 46.1012 78.951 46.2511 79.07 46.4057C79.4184 46.8907 79.4184 46.8907 79.84 47.0699C79.9016 46.0854 79.9632 45.1009 80.0267 44.0866Z" fill="#30CBBE"/>
<path d="M132.48 68.3263C132.603 68.3263 132.726 68.3263 132.853 68.3263C132.873 68.534 132.892 68.7416 132.912 68.9556C132.954 69.1786 132.996 69.4017 133.04 69.6315C133.225 69.7546 133.41 69.8776 133.6 70.0044C133.354 70.0044 133.107 70.0044 132.853 70.0044C132.853 70.4967 132.853 70.9889 132.853 71.4961C133.531 71.4961 134.209 71.4961 134.907 71.4961C134.907 71.5576 134.907 71.6192 134.907 71.6826C134.106 71.6826 133.305 71.6826 132.48 71.6826C132.48 70.575 132.48 69.4674 132.48 68.3263Z" fill="#313131"/>
<path d="M121.093 89.5827C121.278 89.5827 121.463 89.5827 121.653 89.5827C121.653 90.5672 121.653 91.5517 121.653 92.566C121.469 92.566 121.284 92.566 121.093 92.566C121.093 91.5815 121.093 90.597 121.093 89.5827Z" fill="#494747"/>
<path d="M94.4 89.5827C94.5848 89.5827 94.7696 89.5827 94.96 89.5827C94.96 90.5672 94.96 91.5517 94.96 92.566C94.7752 92.566 94.5904 92.566 94.4 92.566C94.4 91.5815 94.4 90.597 94.4 89.5827Z" fill="#494747"/>
<path d="M70.32 89.5827C70.5048 89.5827 70.6896 89.5827 70.88 89.5827C70.88 90.5672 70.88 91.5517 70.88 92.566C70.6952 92.566 70.5104 92.566 70.32 92.566C70.32 91.5815 70.32 90.597 70.32 89.5827Z" fill="#494747"/>
<path d="M61.6356 56.3681C62.2286 56.3696 62.8206 56.3772 63.4133 56.3929C63.5495 56.396 63.6857 56.3991 63.826 56.4024C64.4928 56.4533 64.7064 56.565 65.175 57.0572C65.2712 57.2071 65.3675 57.3571 65.4667 57.5117C65.4051 57.6347 65.3435 57.7578 65.28 57.8846C65.221 57.7682 65.1621 57.6519 65.1014 57.532C64.5256 56.9382 63.896 56.9236 63.0983 56.8124C62.9495 56.7891 62.8007 56.7658 62.6473 56.7418C62.2809 56.6848 61.9138 56.6317 61.5467 56.5794C61.6083 57.0101 61.6699 57.4408 61.7333 57.8846C61.3186 57.4703 61.1871 57.1229 60.9867 56.5794C61.1733 56.3929 61.1733 56.3929 61.6356 56.3681Z" fill="#027466"/>
<path d="M64.9067 36.4417C64.9683 36.6879 65.0299 36.934 65.0933 37.1876C64.9701 37.1876 64.8469 37.1876 64.72 37.1876C64.6235 38.8785 64.6235 38.8785 65.3967 40.3224C65.4814 40.3955 65.5661 40.4686 65.6533 40.5439C65.4685 40.5439 65.2837 40.5439 65.0933 40.5439C64.3621 39.7274 64.1069 39.2459 64.117 38.1395C64.1871 37.4997 64.4472 36.9007 64.9067 36.4417Z" fill="#30CBBE"/>
<path d="M72.9333 44.6459C76.7534 44.5929 76.7534 44.5929 77.6117 45.3102C77.731 45.4602 77.8504 45.6102 77.9733 45.7647C77.2498 45.7647 76.7682 45.4902 76.1067 45.2053C75.3642 45.0139 74.6667 44.9995 73.9017 45.0072C73.6849 45.0089 73.4681 45.0106 73.2447 45.0123C73.0803 45.0145 72.916 45.0166 72.7467 45.0189C72.8083 44.8958 72.8699 44.7727 72.9333 44.6459Z" fill="#30CBBE"/>
<path d="M85.6267 65.9023C81.4884 67.8902 81.4884 67.8902 80.2133 67.7669C80.7141 67.509 81.2154 67.2858 81.7417 67.0852C81.9604 67.0012 81.9604 67.0012 82.1835 66.9155C82.64 66.7414 82.64 66.7414 83.0965 66.5673C83.2423 66.5113 83.3881 66.4553 83.5383 66.3976C83.6704 66.3473 83.8025 66.2969 83.9386 66.245C84.3286 66.0944 84.3286 66.0944 84.7072 65.8714C85.0667 65.7159 85.0667 65.7159 85.6267 65.9023Z" fill="#027466"/>
<path d="M155.067 74.293C155.19 74.293 155.313 74.293 155.44 74.293C155.502 75.4621 155.563 76.6312 155.627 77.8357C155.442 77.8973 155.257 77.9588 155.067 78.0222C155.067 76.7916 155.067 75.5609 155.067 74.293Z" fill="#2D2F2F"/>
<path d="M139.2 75.2253C139.262 75.2253 139.323 75.2253 139.387 75.2253C139.433 75.4214 139.479 75.6176 139.527 75.8197C139.717 76.4957 140.031 76.9406 140.507 77.4628C140.322 77.5244 140.137 77.5859 139.947 77.6493C139.445 77.3812 139.445 77.3812 139.013 76.9034C138.92 76.3721 138.96 75.9582 139.013 75.4118C139.075 75.3502 139.137 75.2887 139.2 75.2253Z" fill="#292C2B"/>
<path d="M145.36 74.8524C145.803 74.864 145.803 74.864 146.293 75.0388C146.853 75.9454 146.853 75.9454 146.853 76.5305C146.361 76.5305 145.868 76.5305 145.36 76.5305C145.36 76.2229 145.36 75.9152 145.36 75.5982C145.175 75.7828 144.99 75.9674 144.8 76.1576C145.15 75.0622 145.15 75.0622 145.36 74.8524ZM145.92 75.2253C145.797 75.5945 145.674 75.9637 145.547 76.3441C145.855 76.3441 146.163 76.3441 146.48 76.3441C146.373 75.8094 146.319 75.6241 145.92 75.2253Z" fill="#1E2121"/>
<path d="M69.9467 42.7813C69.9467 42.9044 69.9467 43.0275 69.9467 43.1543C69.8235 43.1543 69.7003 43.1543 69.5733 43.1543C69.5733 43.2773 69.5733 43.4004 69.5733 43.5272C69.2729 43.8557 69.2729 43.8557 68.8733 44.2147C68.7434 44.3347 68.6135 44.4546 68.4796 44.5782C68.08 44.8324 68.08 44.8324 67.6571 44.7778C67.5502 44.7343 67.4434 44.6908 67.3333 44.6459C67.6362 44.3696 67.9396 44.0939 68.2433 43.8185C68.4122 43.6649 68.5812 43.5113 68.7552 43.3531C69.4152 42.7813 69.4152 42.7813 69.9467 42.7813Z" fill="#30CBBE"/>
<path d="M91.4133 37.5605C90.7724 37.7668 90.2477 37.7346 89.5817 37.6654C88.7542 37.5865 87.9505 37.5416 87.12 37.5605C87.12 37.499 87.12 37.4374 87.12 37.374C88.7249 36.8397 89.8704 36.9 91.4133 37.5605Z" fill="#30CBBE"/>
<path d="M97.3867 54.1554C97.6111 54.8138 97.5351 55.2982 97.3983 55.9734C97.362 56.157 97.3257 56.3406 97.2882 56.5298C97.2591 56.6692 97.23 56.8087 97.2 56.9523C96.5034 57.1102 96.0297 57.1312 95.3333 56.9523C95.3333 56.8908 95.3333 56.8292 95.3333 56.7658C95.8261 56.7658 96.3189 56.7658 96.8267 56.7658C96.8498 56.5428 96.8729 56.3197 96.8967 56.0899C96.9803 55.4092 97.1448 54.7996 97.3867 54.1554Z" fill="#027466"/>
<path d="M159.547 74.293C161.089 74.2338 161.089 74.2338 161.6 74.6659C161.74 75.2486 161.74 75.2486 161.787 75.7847C161.227 75.5982 161.227 75.5982 160.888 75.2253C160.386 74.7664 160.027 74.7265 159.36 74.6659C159.422 74.5429 159.483 74.4198 159.547 74.293Z" fill="#2A2B2B"/>
<path d="M69.5733 55.4606C69.6965 55.5221 69.8197 55.5837 69.9467 55.6471C69.9467 55.7701 69.9467 55.8932 69.9467 56.02C70.1315 56.0815 70.3163 56.143 70.5067 56.2064C70.5067 56.391 70.5067 56.5756 70.5067 56.7658C69.2747 56.7043 68.0427 56.6428 66.7733 56.5794C66.7733 56.5178 66.7733 56.4563 66.7733 56.3929C68.2517 56.3006 68.2517 56.3006 69.76 56.2064C69.6984 55.9603 69.6368 55.7142 69.5733 55.4606Z" fill="#30CBBE"/>
<path d="M113.44 39.2386C112.88 39.4251 112.88 39.4251 112.192 39.2852C111.347 39.1591 110.9 39.4444 110.222 39.924C110.114 40.0055 110.005 40.087 109.893 40.1709C109.709 40.294 109.524 40.417 109.333 40.5438C109.448 40.027 109.584 39.7011 110.018 39.3836C111.192 38.7508 112.211 38.6435 113.44 39.2386Z" fill="#027466"/>
<path d="M132.853 80.4462C133.315 80.5385 133.315 80.5385 133.787 80.6326C133.848 80.9403 133.91 81.2479 133.973 81.5649C133.727 81.5034 133.481 81.4419 133.227 81.3785C133.165 82.1784 133.103 82.9783 133.04 83.8024C132.978 83.8024 132.917 83.8024 132.853 83.8024C132.853 82.6949 132.853 81.5873 132.853 80.4462Z" fill="#2F302F"/>
<path d="M90.2117 26.1398C90.4257 26.1846 90.4257 26.1846 90.6441 26.2302C91.0854 26.3893 91.2969 26.5802 91.6 26.9323C91.3536 26.9323 91.1072 26.9323 90.8533 26.9323C90.8533 26.8092 90.8533 26.6862 90.8533 26.5594C89.9909 26.5594 89.1285 26.5594 88.24 26.5594C88.8577 25.9424 89.3859 25.9556 90.2117 26.1398Z" fill="#30CBBE"/>
<path d="M66.2133 35.5094C67.2858 35.3909 68.0519 35.3881 68.9433 36.0455C69.3123 36.3471 69.3123 36.3471 69.5733 36.6282C69.5733 36.7513 69.5733 36.8743 69.5733 37.0011C69.3269 36.9396 69.0805 36.8781 68.8267 36.8147C68.8267 36.6301 68.8267 36.4455 68.8267 36.2553C68.2723 36.163 68.2723 36.163 67.7067 36.0688C67.7067 35.9458 67.7067 35.8227 67.7067 35.6959C67.2139 35.6959 66.7211 35.6959 66.2133 35.6959C66.2133 35.6344 66.2133 35.5728 66.2133 35.5094Z" fill="#30CBBE"/>
<path d="M109.893 67.0211C109.629 67.1423 109.365 67.2625 109.1 67.3824C108.953 67.4494 108.805 67.5165 108.654 67.5856C107.799 67.9376 107.087 67.9712 106.16 67.9534C106.16 67.8919 106.16 67.8303 106.16 67.7669C106.28 67.7465 106.399 67.7261 106.522 67.705C107.308 67.5612 108.036 67.4186 108.762 67.0794C109.333 66.8346 109.333 66.8346 109.893 67.0211Z" fill="#027466"/>
<path d="M110.827 47.4428C111.885 47.9824 112.635 48.6238 113.44 49.4939C113.378 49.617 113.317 49.74 113.253 49.8668C113.156 49.7812 113.059 49.6957 112.959 49.6075C112.382 49.1001 111.809 48.5996 111.2 48.1304C111.077 48.0266 110.954 47.9227 110.827 47.8158C110.827 47.6927 110.827 47.5696 110.827 47.4428Z" fill="#027466"/>
<path d="M122.587 80.0733C122.822 80.0656 123.056 80.0579 123.298 80.0499C123.43 80.0456 123.563 80.0413 123.699 80.0368C124.08 80.0733 124.08 80.0733 124.64 80.4462C124.64 80.6308 124.64 80.8154 124.64 81.0055C124.024 80.944 123.408 80.8825 122.773 80.8191C122.773 80.7576 122.773 80.696 122.773 80.6326C123.143 80.5711 123.513 80.5096 123.893 80.4462C123.401 80.4462 122.908 80.4462 122.4 80.4462C122.462 80.3231 122.523 80.2 122.587 80.0733Z" fill="#1E2020"/>
<path d="M91.6 34.5771C92.6165 34.7689 93.4887 34.996 94.4 35.5094C94.4 35.571 94.4 35.6325 94.4 35.6959C94.092 35.6959 93.784 35.6959 93.4667 35.6959C93.4667 35.5728 93.4667 35.4498 93.4667 35.323C93.2973 35.3384 93.1279 35.3538 92.9533 35.3696C92.3467 35.323 92.3467 35.323 91.9033 34.9501C91.7532 34.7655 91.7532 34.7655 91.6 34.5771Z" fill="#30CBBE"/>
<path d="M103.173 49.3074C102.704 49.6199 102.272 49.8557 101.762 50.0882C101.615 50.1563 101.469 50.2243 101.318 50.2944C101.191 50.3379 101.064 50.3814 100.933 50.4262C100.81 50.3647 100.687 50.3031 100.56 50.2397C101.056 49.2489 102.193 49.2487 103.173 49.3074Z" fill="#027466"/>
<path d="M61.6816 56.3747C61.9902 56.3779 61.9902 56.3779 62.305 56.3813C62.6143 56.3838 62.6143 56.3838 62.9299 56.3863C63.0894 56.3885 63.249 56.3907 63.4133 56.3929C63.4133 56.4544 63.4133 56.516 63.4133 56.5794C62.7973 56.5794 62.1813 56.5794 61.5467 56.5794C61.6083 57.0101 61.6699 57.4408 61.7333 57.8846C61.3186 57.4703 61.1871 57.1229 60.9867 56.5794C61.1733 56.3929 61.1733 56.3929 61.6816 56.3747Z" fill="#027466"/>
<path d="M127.627 77.2764C128.612 77.2196 128.854 77.2172 129.68 77.8357C129.002 77.8973 128.325 77.9588 127.627 78.0222C127.811 77.8991 127.996 77.7761 128.187 77.6493C128.002 77.5262 127.817 77.4032 127.627 77.2764Z" fill="#1E2121"/>
<path d="M111.573 53.0366C111.938 53.1692 111.938 53.1692 112.32 53.4095C112.434 53.8131 112.434 53.8131 112.46 54.2719C112.471 54.4243 112.481 54.5767 112.492 54.7337C112.497 54.8505 112.502 54.9673 112.507 55.0877C112.164 54.4152 111.868 53.7313 111.573 53.0366Z" fill="#027466"/>
<path d="M88.0533 64.7836C87.7815 64.9087 87.5092 65.0328 87.2367 65.1565C87.0093 65.2603 87.0093 65.2603 86.7773 65.3663C86.3733 65.5294 86.3733 65.5294 86 65.5294C86 65.3448 86 65.1602 86 64.97C87.3 64.5455 87.3 64.5455 88.0533 64.7836Z" fill="#027466"/>
<path d="M97.5733 48.3752C97.6349 48.5597 97.6965 48.7443 97.76 48.9345C97.5136 49.1807 97.2672 49.4268 97.0133 49.6804C96.8285 49.6188 96.6437 49.5573 96.4533 49.4939C96.8267 49.121 97.2 48.7481 97.5733 48.3752Z" fill="#027466"/>
<path d="M124.08 68.3263C124.08 68.5109 124.08 68.6955 124.08 68.8857C123.464 68.8857 122.848 68.8857 122.213 68.8857C122.213 68.7626 122.213 68.6395 122.213 68.5128C122.855 68.3963 123.425 68.3263 124.08 68.3263Z" fill="#202323"/>
<path d="M121.093 88.4639C121.34 88.4639 121.586 88.4639 121.84 88.4639C121.778 88.7101 121.717 88.9562 121.653 89.2098C121.469 89.2098 121.284 89.2098 121.093 89.2098C121.093 88.9636 121.093 88.7175 121.093 88.4639Z" fill="#464747"/>
<path d="M94.4 88.4639C94.6464 88.4639 94.8928 88.4639 95.1467 88.4639C95.0851 88.7101 95.0235 88.9562 94.96 89.2098C94.7752 89.2098 94.5904 89.2098 94.4 89.2098C94.4 88.9636 94.4 88.7175 94.4 88.4639Z" fill="#464747"/>
<path d="M70.32 88.4639C70.5664 88.4639 70.8128 88.4639 71.0667 88.4639C71.0051 88.7101 70.9435 88.9562 70.88 89.2098C70.6952 89.2098 70.5104 89.2098 70.32 89.2098C70.32 88.9636 70.32 88.7175 70.32 88.4639Z" fill="#464747"/>
<defs>
<clipPath id="clip0_3232_21275">
<rect width="217" height="127" fill="white" transform="translate(378)"/>
</clipPath>
<clipPath id="clip1_3232_21275">
<rect width="312" height="43" fill="white" transform="translate(314)"/>
</clipPath>
<clipPath id="clip2_3232_21275">
<rect width="217" height="96" fill="white" transform="translate(378)"/>
</clipPath>
<clipPath id="clip3_3232_21275">
<rect width="595" height="95" fill="white"/>
</clipPath>
</defs>
</svg>
