<svg width="595" height="90" viewBox="0 0 595 90" fill="none" xmlns="http://www.w3.org/2000/svg">
<g clip-path="url(#clip0_3232_21276)">
<path d="M12.8833 257.059C22.7686 262.602 34.5414 263.604 44.9817 259.195C87.0108 241.445 192.275 190.243 158 135C135.573 98.8535 92.8892 -5.08506 41.3892 25.0386C6.97911 45.1659 -49.5296 110.942 -83.2443 152.381C-98.2113 170.777 -92.619 197.906 -71.9332 209.504L12.8833 257.059Z" fill="#7AC2B0" stroke="#7BC2B7" stroke-width="30"/>
</g>
<g clip-path="url(#clip1_3232_21276)">
<path d="M73.3409 272.012C77.8077 291.848 99.3043 300.988 115.592 290.502C144.89 271.639 181.575 245.06 204.631 217.846C216.201 204.19 223.618 191.199 225.629 179.617C227.518 168.739 224.787 158.473 214.239 148.75C204.794 140.044 196.378 129.974 188.407 120.213C187.493 119.094 186.586 117.98 185.683 116.871C178.591 108.163 171.796 99.8191 164.503 92.3439C148.305 75.7422 130.752 64.5626 105.478 65.9865C78.203 67.5232 63.2268 80.3606 54.5805 94.3784C45.6518 108.854 43.2897 124.998 42.6918 132.391C42.5483 134.165 42.7378 136.111 43.2451 138.364L73.3409 272.012Z" stroke="#107B4B" stroke-width="17"/>
</g>
<g clip-path="url(#clip2_3232_21276)">
<path d="M653.5 191.458C653.5 207.846 640.348 221.202 623.961 221.454L-46.8306 231.767C-74.569 232.194 -87.9758 197.975 -67.3302 179.445L69.4577 56.6738C74.9627 51.7329 82.0991 49 89.4962 49H623.5C640.069 49 653.5 62.4315 653.5 79V191.458Z" stroke="#107B4B" stroke-width="46"/>
</g>
<rect x="175" y="41" width="14" height="14" rx="7" fill="#0184CE"/>
<g clip-path="url(#clip3_3232_21276)">
<path d="M183.186 48.8492L183.034 49.0091C183.034 49.0091 182.673 49.3889 181.688 48.3519C180.703 47.315 181.064 46.9352 181.064 46.9352L181.159 46.8342C181.395 46.5865 181.417 46.1884 181.212 45.8975L180.792 45.3035C180.537 44.9435 180.045 44.8959 179.754 45.2029L179.23 45.7535C179.086 45.906 178.989 46.1029 179.001 46.3218C179.031 46.8819 179.27 48.0865 180.605 49.4919C182.021 50.982 183.349 51.0413 183.892 50.9877C184.064 50.9707 184.213 50.8783 184.334 50.7512L184.807 50.2529C185.127 49.9165 185.037 49.3394 184.628 49.104L183.991 48.7373C183.722 48.5831 183.396 48.6283 183.186 48.8492Z" fill="#1A1A1A"/>
</g>
<path d="M201.179 42.711H199.688V44.223H199.093V42.711H197.609V42.172H199.093V40.653H199.688V42.172H201.179V42.711ZM203.031 43.642C203.078 43.908 203.185 44.1133 203.353 44.258C203.526 44.4027 203.757 44.475 204.046 44.475C204.434 44.475 204.718 44.3233 204.9 44.02C205.087 43.7167 205.176 43.2057 205.166 42.487C205.068 42.697 204.905 42.8627 204.676 42.984C204.448 43.1007 204.193 43.159 203.913 43.159C203.601 43.159 203.321 43.096 203.073 42.97C202.831 42.8393 202.639 42.6503 202.499 42.403C202.359 42.1557 202.289 41.857 202.289 41.507C202.289 41.0077 202.434 40.6063 202.723 40.303C203.013 39.995 203.423 39.841 203.955 39.841C204.609 39.841 205.066 40.0533 205.327 40.478C205.593 40.9027 205.726 41.535 205.726 42.375C205.726 42.963 205.673 43.4483 205.565 43.831C205.463 44.2137 205.285 44.5053 205.033 44.706C204.786 44.9067 204.445 45.007 204.011 45.007C203.535 45.007 203.164 44.8787 202.898 44.622C202.632 44.3653 202.481 44.0387 202.443 43.642H203.031ZM204.018 42.62C204.331 42.62 204.588 42.5243 204.788 42.333C204.989 42.137 205.089 41.8733 205.089 41.542C205.089 41.192 204.991 40.9097 204.795 40.695C204.599 40.4803 204.324 40.373 203.969 40.373C203.643 40.373 203.381 40.4757 203.185 40.681C202.994 40.8863 202.898 41.157 202.898 41.493C202.898 41.8337 202.994 42.1067 203.185 42.312C203.377 42.5173 203.654 42.62 204.018 42.62ZM209.737 40.436L207.791 45H207.147L209.121 40.499H206.418V39.953H209.737V40.436ZM210.275 40.52V39.939H211.591V45H210.947V40.52H210.275ZM214.397 43.873V43.39L216.854 39.988H217.617V43.32H218.317V43.873H217.617V45H216.987V43.873H214.397ZM217.015 40.653L215.132 43.32H217.015V40.653ZM220.806 41.213C220.838 40.7837 221.004 40.4477 221.303 40.205C221.601 39.9623 221.989 39.841 222.465 39.841C222.782 39.841 223.055 39.8993 223.284 40.016C223.517 40.128 223.692 40.282 223.809 40.478C223.93 40.674 223.991 40.8957 223.991 41.143C223.991 41.4323 223.907 41.682 223.739 41.892C223.575 42.102 223.361 42.2373 223.095 42.298V42.333C223.398 42.4077 223.638 42.5547 223.816 42.774C223.993 42.9933 224.082 43.2803 224.082 43.635C224.082 43.901 224.021 44.1413 223.9 44.356C223.778 44.566 223.596 44.7317 223.354 44.853C223.111 44.9743 222.819 45.035 222.479 45.035C221.984 45.035 221.578 44.9067 221.261 44.65C220.943 44.3887 220.766 44.02 220.729 43.544H221.345C221.377 43.824 221.492 44.0527 221.688 44.23C221.884 44.4073 222.145 44.496 222.472 44.496C222.798 44.496 223.046 44.412 223.214 44.244C223.386 44.0713 223.473 43.8497 223.473 43.579C223.473 43.229 223.356 42.977 223.123 42.823C222.889 42.669 222.537 42.592 222.066 42.592H221.905V42.06H222.073C222.502 42.0553 222.826 41.9853 223.046 41.85C223.265 41.71 223.375 41.4953 223.375 41.206C223.375 40.9587 223.293 40.7603 223.13 40.611C222.971 40.4617 222.742 40.387 222.444 40.387C222.154 40.387 221.921 40.4617 221.744 40.611C221.566 40.7603 221.461 40.961 221.429 41.213H220.806ZM225.866 42.368C225.604 42.2653 225.404 42.116 225.264 41.92C225.124 41.724 225.054 41.486 225.054 41.206C225.054 40.954 225.117 40.7277 225.243 40.527C225.369 40.3217 225.555 40.1607 225.803 40.044C226.055 39.9227 226.358 39.862 226.713 39.862C227.067 39.862 227.368 39.9227 227.616 40.044C227.868 40.1607 228.057 40.3217 228.183 40.527C228.313 40.7277 228.379 40.954 228.379 41.206C228.379 41.4767 228.306 41.7147 228.162 41.92C228.017 42.1207 227.819 42.27 227.567 42.368C227.856 42.4567 228.085 42.613 228.253 42.837C228.425 43.0563 228.512 43.3223 228.512 43.635C228.512 43.9383 228.437 44.2043 228.288 44.433C228.138 44.657 227.926 44.832 227.651 44.958C227.38 45.0793 227.067 45.14 226.713 45.14C226.358 45.14 226.045 45.0793 225.775 44.958C225.509 44.832 225.301 44.657 225.152 44.433C225.002 44.2043 224.928 43.9383 224.928 43.635C224.928 43.3223 225.012 43.054 225.18 42.83C225.348 42.606 225.576 42.452 225.866 42.368ZM227.763 41.283C227.763 40.9983 227.669 40.779 227.483 40.625C227.296 40.471 227.039 40.394 226.713 40.394C226.391 40.394 226.136 40.471 225.95 40.625C225.763 40.779 225.67 41.0007 225.67 41.29C225.67 41.5513 225.765 41.7613 225.957 41.92C226.153 42.0787 226.405 42.158 226.713 42.158C227.025 42.158 227.277 42.0787 227.469 41.92C227.665 41.7567 227.763 41.5443 227.763 41.283ZM226.713 42.648C226.367 42.648 226.085 42.7297 225.866 42.893C225.646 43.0517 225.537 43.292 225.537 43.614C225.537 43.9127 225.642 44.153 225.852 44.335C226.066 44.517 226.353 44.608 226.713 44.608C227.072 44.608 227.357 44.517 227.567 44.335C227.777 44.153 227.882 43.9127 227.882 43.614C227.882 43.3013 227.774 43.0633 227.56 42.9C227.345 42.732 227.063 42.648 226.713 42.648ZM232.179 41.143C232.076 40.625 231.756 40.366 231.22 40.366C230.804 40.366 230.494 40.527 230.289 40.849C230.083 41.1663 229.983 41.6913 229.988 42.424C230.095 42.1813 230.272 41.9923 230.52 41.857C230.772 41.717 231.052 41.647 231.36 41.647C231.84 41.647 232.223 41.7963 232.508 42.095C232.797 42.3937 232.942 42.8067 232.942 43.334C232.942 43.6513 232.879 43.936 232.753 44.188C232.631 44.44 232.445 44.6407 232.193 44.79C231.945 44.9393 231.644 45.014 231.29 45.014C230.809 45.014 230.433 44.9067 230.163 44.692C229.892 44.4773 229.703 44.181 229.596 43.803C229.488 43.425 229.435 42.9583 229.435 42.403C229.435 40.6903 230.032 39.834 231.227 39.834C231.684 39.834 232.043 39.9577 232.305 40.205C232.566 40.4523 232.72 40.765 232.767 41.143H232.179ZM231.227 42.186C231.026 42.186 230.837 42.228 230.66 42.312C230.482 42.3913 230.338 42.515 230.226 42.683C230.118 42.8463 230.065 43.047 230.065 43.285C230.065 43.6397 230.167 43.929 230.373 44.153C230.578 44.3723 230.872 44.482 231.255 44.482C231.581 44.482 231.84 44.3817 232.032 44.181C232.228 43.9757 232.326 43.7003 232.326 43.355C232.326 42.991 232.232 42.7063 232.046 42.501C231.859 42.291 231.586 42.186 231.227 42.186ZM236.486 43.642C236.533 43.908 236.64 44.1133 236.808 44.258C236.981 44.4027 237.212 44.475 237.501 44.475C237.889 44.475 238.173 44.3233 238.355 44.02C238.542 43.7167 238.631 43.2057 238.621 42.487C238.523 42.697 238.36 42.8627 238.131 42.984C237.903 43.1007 237.648 43.159 237.368 43.159C237.056 43.159 236.776 43.096 236.528 42.97C236.286 42.8393 236.094 42.6503 235.954 42.403C235.814 42.1557 235.744 41.857 235.744 41.507C235.744 41.0077 235.889 40.6063 236.178 40.303C236.468 39.995 236.878 39.841 237.41 39.841C238.064 39.841 238.521 40.0533 238.782 40.478C239.048 40.9027 239.181 41.535 239.181 42.375C239.181 42.963 239.128 43.4483 239.02 43.831C238.918 44.2137 238.74 44.5053 238.488 44.706C238.241 44.9067 237.9 45.007 237.466 45.007C236.99 45.007 236.619 44.8787 236.353 44.622C236.087 44.3653 235.936 44.0387 235.898 43.642H236.486ZM237.473 42.62C237.786 42.62 238.043 42.5243 238.243 42.333C238.444 42.137 238.544 41.8733 238.544 41.542C238.544 41.192 238.446 40.9097 238.25 40.695C238.054 40.4803 237.779 40.373 237.424 40.373C237.098 40.373 236.836 40.4757 236.64 40.681C236.449 40.8863 236.353 41.157 236.353 41.493C236.353 41.8337 236.449 42.1067 236.64 42.312C236.832 42.5173 237.109 42.62 237.473 42.62ZM240.063 41.213C240.095 40.7837 240.261 40.4477 240.56 40.205C240.858 39.9623 241.246 39.841 241.722 39.841C242.039 39.841 242.312 39.8993 242.541 40.016C242.774 40.128 242.949 40.282 243.066 40.478C243.187 40.674 243.248 40.8957 243.248 41.143C243.248 41.4323 243.164 41.682 242.996 41.892C242.832 42.102 242.618 42.2373 242.352 42.298V42.333C242.655 42.4077 242.895 42.5547 243.073 42.774C243.25 42.9933 243.339 43.2803 243.339 43.635C243.339 43.901 243.278 44.1413 243.157 44.356C243.035 44.566 242.853 44.7317 242.611 44.853C242.368 44.9743 242.076 45.035 241.736 45.035C241.241 45.035 240.835 44.9067 240.518 44.65C240.2 44.3887 240.023 44.02 239.986 43.544H240.602C240.634 43.824 240.749 44.0527 240.945 44.23C241.141 44.4073 241.402 44.496 241.729 44.496C242.055 44.496 242.303 44.412 242.471 44.244C242.643 44.0713 242.73 43.8497 242.73 43.579C242.73 43.229 242.613 42.977 242.38 42.823C242.146 42.669 241.794 42.592 241.323 42.592H241.162V42.06H241.33C241.759 42.0553 242.083 41.9853 242.303 41.85C242.522 41.71 242.632 41.4953 242.632 41.206C242.632 40.9587 242.55 40.7603 242.387 40.611C242.228 40.4617 241.999 40.387 241.701 40.387C241.411 40.387 241.178 40.4617 241.001 40.611C240.823 40.7603 240.718 40.961 240.686 41.213H240.063ZM247.02 41.143C246.917 40.625 246.597 40.366 246.061 40.366C245.645 40.366 245.335 40.527 245.13 40.849C244.924 41.1663 244.824 41.6913 244.829 42.424C244.936 42.1813 245.113 41.9923 245.361 41.857C245.613 41.717 245.893 41.647 246.201 41.647C246.681 41.647 247.064 41.7963 247.349 42.095C247.638 42.3937 247.783 42.8067 247.783 43.334C247.783 43.6513 247.72 43.936 247.594 44.188C247.472 44.44 247.286 44.6407 247.034 44.79C246.786 44.9393 246.485 45.014 246.131 45.014C245.65 45.014 245.274 44.9067 245.004 44.692C244.733 44.4773 244.544 44.181 244.437 43.803C244.329 43.425 244.276 42.9583 244.276 42.403C244.276 40.6903 244.873 39.834 246.068 39.834C246.525 39.834 246.884 39.9577 247.146 40.205C247.407 40.4523 247.561 40.765 247.608 41.143H247.02ZM246.068 42.186C245.867 42.186 245.678 42.228 245.501 42.312C245.323 42.3913 245.179 42.515 245.067 42.683C244.959 42.8463 244.906 43.047 244.906 43.285C244.906 43.6397 245.008 43.929 245.214 44.153C245.419 44.3723 245.713 44.482 246.096 44.482C246.422 44.482 246.681 44.3817 246.873 44.181C247.069 43.9757 247.167 43.7003 247.167 43.355C247.167 42.991 247.073 42.7063 246.887 42.501C246.7 42.291 246.427 42.186 246.068 42.186ZM248.642 42.417C248.642 41.6143 248.773 40.989 249.034 40.541C249.295 40.0883 249.753 39.862 250.406 39.862C251.055 39.862 251.51 40.0883 251.771 40.541C252.032 40.989 252.163 41.6143 252.163 42.417C252.163 43.2337 252.032 43.8683 251.771 44.321C251.51 44.7737 251.055 45 250.406 45C249.753 45 249.295 44.7737 249.034 44.321C248.773 43.8683 248.642 43.2337 248.642 42.417ZM251.533 42.417C251.533 42.011 251.505 41.668 251.449 41.388C251.398 41.1033 251.288 40.8747 251.12 40.702C250.957 40.5293 250.719 40.443 250.406 40.443C250.089 40.443 249.846 40.5293 249.678 40.702C249.515 40.8747 249.405 41.1033 249.349 41.388C249.298 41.668 249.272 42.011 249.272 42.417C249.272 42.837 249.298 43.1893 249.349 43.474C249.405 43.7587 249.515 43.9873 249.678 44.16C249.846 44.3327 250.089 44.419 250.406 44.419C250.719 44.419 250.957 44.3327 251.12 44.16C251.288 43.9873 251.398 43.7587 251.449 43.474C251.505 43.1893 251.533 42.837 251.533 42.417Z" fill="white"/>
<path d="M201.179 53.711H199.688V55.223H199.093V53.711H197.609V53.172H199.093V51.653H199.688V53.172H201.179V53.711ZM203.031 54.642C203.078 54.908 203.185 55.1133 203.353 55.258C203.526 55.4027 203.757 55.475 204.046 55.475C204.434 55.475 204.718 55.3233 204.9 55.02C205.087 54.7167 205.176 54.2057 205.166 53.487C205.068 53.697 204.905 53.8627 204.676 53.984C204.448 54.1007 204.193 54.159 203.913 54.159C203.601 54.159 203.321 54.096 203.073 53.97C202.831 53.8393 202.639 53.6503 202.499 53.403C202.359 53.1557 202.289 52.857 202.289 52.507C202.289 52.0077 202.434 51.6063 202.723 51.303C203.013 50.995 203.423 50.841 203.955 50.841C204.609 50.841 205.066 51.0533 205.327 51.478C205.593 51.9027 205.726 52.535 205.726 53.375C205.726 53.963 205.673 54.4483 205.565 54.831C205.463 55.2137 205.285 55.5053 205.033 55.706C204.786 55.9067 204.445 56.007 204.011 56.007C203.535 56.007 203.164 55.8787 202.898 55.622C202.632 55.3653 202.481 55.0387 202.443 54.642H203.031ZM204.018 53.62C204.331 53.62 204.588 53.5243 204.788 53.333C204.989 53.137 205.089 52.8733 205.089 52.542C205.089 52.192 204.991 51.9097 204.795 51.695C204.599 51.4803 204.324 51.373 203.969 51.373C203.643 51.373 203.381 51.4757 203.185 51.681C202.994 51.8863 202.898 52.157 202.898 52.493C202.898 52.8337 202.994 53.1067 203.185 53.312C203.377 53.5173 203.654 53.62 204.018 53.62ZM209.737 51.436L207.791 56H207.147L209.121 51.499H206.418V50.953H209.737V51.436ZM210.275 51.52V50.939H211.591V56H210.947V51.52H210.275ZM217.778 51.492H215.321V53.088C215.429 52.9387 215.587 52.8173 215.797 52.724C216.007 52.626 216.234 52.577 216.476 52.577C216.864 52.577 217.179 52.6587 217.421 52.822C217.664 52.9807 217.837 53.1883 217.939 53.445C218.047 53.697 218.1 53.9653 218.1 54.25C218.1 54.586 218.037 54.887 217.911 55.153C217.785 55.419 217.592 55.629 217.33 55.783C217.074 55.937 216.754 56.014 216.371 56.014C215.881 56.014 215.485 55.888 215.181 55.636C214.878 55.384 214.694 55.048 214.628 54.628H215.251C215.312 54.894 215.44 55.1017 215.636 55.251C215.832 55.4003 216.08 55.475 216.378 55.475C216.747 55.475 217.025 55.3653 217.211 55.146C217.398 54.922 217.491 54.628 217.491 54.264C217.491 53.9 217.398 53.62 217.211 53.424C217.025 53.2233 216.749 53.123 216.385 53.123C216.138 53.123 215.921 53.1837 215.734 53.305C215.552 53.4217 215.419 53.5827 215.335 53.788H214.733V50.932H217.778V51.492ZM218.87 55.489C219.462 55.013 219.927 54.6233 220.263 54.32C220.599 54.012 220.881 53.6923 221.11 53.361C221.343 53.025 221.46 52.696 221.46 52.374C221.46 52.0707 221.385 51.8327 221.236 51.66C221.091 51.4827 220.855 51.394 220.529 51.394C220.211 51.394 219.964 51.4943 219.787 51.695C219.614 51.891 219.521 52.1547 219.507 52.486H218.891C218.909 51.9633 219.068 51.5597 219.367 51.275C219.665 50.9903 220.05 50.848 220.522 50.848C221.002 50.848 221.383 50.981 221.663 51.247C221.947 51.513 222.09 51.8793 222.09 52.346C222.09 52.7333 221.973 53.1113 221.74 53.48C221.511 53.844 221.25 54.166 220.956 54.446C220.662 54.7213 220.286 55.0433 219.829 55.412H222.237V55.944H218.87V55.489ZM224.762 55.489C225.355 55.013 225.819 54.6233 226.155 54.32C226.491 54.012 226.774 53.6923 227.002 53.361C227.236 53.025 227.352 52.696 227.352 52.374C227.352 52.0707 227.278 51.8327 227.128 51.66C226.984 51.4827 226.748 51.394 226.421 51.394C226.104 51.394 225.857 51.4943 225.679 51.695C225.507 51.891 225.413 52.1547 225.399 52.486H224.783C224.802 51.9633 224.961 51.5597 225.259 51.275C225.558 50.9903 225.943 50.848 226.414 50.848C226.895 50.848 227.275 50.981 227.555 51.247C227.84 51.513 227.982 51.8793 227.982 52.346C227.982 52.7333 227.866 53.1113 227.632 53.48C227.404 53.844 227.142 54.166 226.848 54.446C226.554 54.7213 226.179 55.0433 225.721 55.412H228.129V55.944H224.762V55.489ZM228.712 54.873V54.39L231.169 50.988H231.932V54.32H232.632V54.873H231.932V56H231.302V54.873H228.712ZM231.33 51.653L229.447 54.32H231.33V51.653ZM236.089 52.143C235.986 51.625 235.667 51.366 235.13 51.366C234.715 51.366 234.404 51.527 234.199 51.849C233.994 52.1663 233.893 52.6913 233.898 53.424C234.005 53.1813 234.183 52.9923 234.43 52.857C234.682 52.717 234.962 52.647 235.27 52.647C235.751 52.647 236.133 52.7963 236.418 53.095C236.707 53.3937 236.852 53.8067 236.852 54.334C236.852 54.6513 236.789 54.936 236.663 55.188C236.542 55.44 236.355 55.6407 236.103 55.79C235.856 55.9393 235.555 56.014 235.2 56.014C234.719 56.014 234.344 55.9067 234.073 55.692C233.802 55.4773 233.613 55.181 233.506 54.803C233.399 54.425 233.345 53.9583 233.345 53.403C233.345 51.6903 233.942 50.834 235.137 50.834C235.594 50.834 235.954 50.9577 236.215 51.205C236.476 51.4523 236.63 51.765 236.677 52.143H236.089ZM235.137 53.186C234.936 53.186 234.747 53.228 234.57 53.312C234.393 53.3913 234.248 53.515 234.136 53.683C234.029 53.8463 233.975 54.047 233.975 54.285C233.975 54.6397 234.078 54.929 234.283 55.153C234.488 55.3723 234.782 55.482 235.165 55.482C235.492 55.482 235.751 55.3817 235.942 55.181C236.138 54.9757 236.236 54.7003 236.236 54.355C236.236 53.991 236.143 53.7063 235.956 53.501C235.769 53.291 235.496 53.186 235.137 53.186ZM242.399 52.143C242.296 51.625 241.976 51.366 241.44 51.366C241.024 51.366 240.714 51.527 240.509 51.849C240.303 52.1663 240.203 52.6913 240.208 53.424C240.315 53.1813 240.492 52.9923 240.74 52.857C240.992 52.717 241.272 52.647 241.58 52.647C242.06 52.647 242.443 52.7963 242.728 53.095C243.017 53.3937 243.162 53.8067 243.162 54.334C243.162 54.6513 243.099 54.936 242.973 55.188C242.851 55.44 242.665 55.6407 242.413 55.79C242.165 55.9393 241.864 56.014 241.51 56.014C241.029 56.014 240.653 55.9067 240.383 55.692C240.112 55.4773 239.923 55.181 239.816 54.803C239.708 54.425 239.655 53.9583 239.655 53.403C239.655 51.6903 240.252 50.834 241.447 50.834C241.904 50.834 242.263 50.9577 242.525 51.205C242.786 51.4523 242.94 51.765 242.987 52.143H242.399ZM241.447 53.186C241.246 53.186 241.057 53.228 240.88 53.312C240.702 53.3913 240.558 53.515 240.446 53.683C240.338 53.8463 240.285 54.047 240.285 54.285C240.285 54.6397 240.387 54.929 240.593 55.153C240.798 55.3723 241.092 55.482 241.475 55.482C241.801 55.482 242.06 55.3817 242.252 55.181C242.448 54.9757 242.546 54.7003 242.546 54.355C242.546 53.991 242.452 53.7063 242.266 53.501C242.079 53.291 241.806 53.186 241.447 53.186ZM243.867 54.873V54.39L246.324 50.988H247.087V54.32H247.787V54.873H247.087V56H246.457V54.873H243.867ZM246.485 51.653L244.602 54.32H246.485V51.653ZM248.269 54.873V54.39L250.726 50.988H251.489V54.32H252.189V54.873H251.489V56H250.859V54.873H248.269ZM250.887 51.653L249.004 54.32H250.887V51.653ZM252.658 51.52V50.939H253.974V56H253.33V51.52H252.658Z" fill="white"/>
<rect x="303" y="41" width="14" height="14" rx="7" fill="#0184CE"/>
<g clip-path="url(#clip4_3232_21276)">
<path d="M310 45.0938C308.344 45.0938 307.001 46.3949 307.001 48C307.001 49.6051 308.344 50.9062 310 50.9062C311.656 50.9062 312.999 49.6051 312.999 48C312.999 46.3949 311.656 45.0938 310 45.0938ZM310.995 49.2844C310.948 49.3298 310.898 49.3775 310.858 49.4166C310.822 49.4517 310.797 49.4951 310.784 49.5421C310.765 49.6084 310.751 49.6754 310.726 49.7398L310.516 50.2888C310.349 50.3239 310.177 50.3438 310 50.3438V50.0229C310.02 49.875 309.908 49.598 309.726 49.4223C309.654 49.352 309.613 49.2566 309.613 49.1571V48.782C309.613 48.6456 309.537 48.5202 309.414 48.4542C309.24 48.3611 308.993 48.2309 308.824 48.1482C308.685 48.0805 308.557 47.9943 308.441 47.8934L308.431 47.8849C308.349 47.8127 308.276 47.7311 308.213 47.6419C308.1 47.4805 307.915 47.2151 307.795 47.0426C308.042 46.5094 308.488 46.0812 309.043 45.8486L309.333 45.9893C309.462 46.0516 309.613 45.9611 309.613 45.8216V45.6892C309.71 45.6741 309.808 45.6645 309.908 45.6608L310.25 45.9925C310.326 46.0657 310.326 46.1844 310.25 46.2577L310.193 46.3125L310.068 46.4337C310.031 46.4702 310.031 46.5296 310.068 46.5662L310.125 46.6212C310.163 46.6577 310.163 46.7171 310.125 46.7537L310.028 46.8475C310.01 46.865 309.986 46.8749 309.96 46.8749H309.851C309.826 46.8749 309.802 46.8844 309.784 46.9015L309.664 47.0146C309.649 47.0284 309.639 47.0465 309.636 47.0661C309.632 47.0857 309.636 47.1059 309.645 47.1237L309.833 47.4892C309.865 47.5515 309.819 47.6249 309.747 47.6249H309.679C309.655 47.6249 309.633 47.6167 309.615 47.6019L309.503 47.5075C309.478 47.4861 309.447 47.4715 309.414 47.4652C309.381 47.4588 309.347 47.4609 309.315 47.4711L308.938 47.5929C308.909 47.6022 308.884 47.62 308.867 47.6439C308.849 47.6677 308.839 47.6964 308.839 47.7258C308.839 47.7789 308.87 47.8273 308.919 47.8511L309.053 47.916C309.167 47.9712 309.292 47.9999 309.42 47.9999C309.547 47.9999 309.693 48.3197 309.807 48.3749H310.614C310.716 48.3749 310.815 48.4144 310.887 48.4847L311.053 48.6451C311.122 48.7122 311.161 48.8031 311.161 48.8979C311.161 48.9697 311.146 49.0408 311.118 49.1072C311.089 49.1735 311.048 49.2337 310.995 49.2844ZM312.043 48.2139C311.973 48.1969 311.912 48.1553 311.872 48.097L311.655 47.781C311.623 47.7348 311.606 47.6805 311.606 47.625C311.606 47.5695 311.623 47.5152 311.655 47.469L311.892 47.1247C311.92 47.0841 311.958 47.051 312.004 47.0292L312.16 46.9532C312.324 47.2686 312.418 47.6235 312.418 48C312.418 48.1016 312.409 48.2011 312.396 48.2993L312.043 48.2139Z" fill="#1A1A1A"/>
</g>
<path d="M325.977 40.9609C325.854 40.9609 325.751 40.918 325.668 40.832C325.585 40.7461 325.543 40.6419 325.543 40.5195C325.543 40.3971 325.585 40.2943 325.668 40.2109C325.751 40.125 325.854 40.082 325.977 40.082C326.102 40.082 326.206 40.125 326.289 40.2109C326.375 40.2943 326.418 40.3971 326.418 40.5195C326.418 40.6419 326.375 40.7461 326.289 40.832C326.206 40.918 326.102 40.9609 325.977 40.9609ZM326.375 46H325.574V42.0938H326.375V46ZM331.254 46H330.453V43.8789C330.453 43.5326 330.358 43.2565 330.168 43.0508C329.98 42.8451 329.728 42.7422 329.41 42.7422C329.082 42.7422 328.818 42.8516 328.617 43.0703C328.417 43.2891 328.316 43.5794 328.316 43.9414V46H327.516V42.0938H328.191L328.219 42.7227C328.362 42.4935 328.549 42.319 328.781 42.1992C329.013 42.0768 329.285 42.0156 329.598 42.0156C330.111 42.0156 330.514 42.1706 330.809 42.4805C331.105 42.7904 331.254 43.2174 331.254 43.7617V46ZM333.289 46H332.488V42.8086H331.805V42.0938H332.488V41.332C332.488 41.0768 332.544 40.8516 332.656 40.6562C332.771 40.4583 332.927 40.3034 333.125 40.1914C333.326 40.0794 333.556 40.0234 333.816 40.0234C333.978 40.0234 334.141 40.0456 334.305 40.0898C334.469 40.1341 334.63 40.2031 334.789 40.2969L334.484 40.9258C334.398 40.8633 334.309 40.8177 334.215 40.7891C334.124 40.7578 334.033 40.7422 333.941 40.7422C333.751 40.7422 333.595 40.8099 333.473 40.9453C333.35 41.0807 333.289 41.2617 333.289 41.4883V42.0938H334.484V42.8086H333.289V46ZM337.227 46.0781C336.836 46.0781 336.484 45.9896 336.172 45.8125C335.859 45.6354 335.613 45.3945 335.434 45.0898C335.254 44.7826 335.164 44.4349 335.164 44.0469C335.164 43.6615 335.254 43.3164 335.434 43.0117C335.613 42.7044 335.859 42.4622 336.172 42.2852C336.484 42.1055 336.836 42.0156 337.227 42.0156C337.62 42.0156 337.971 42.1055 338.281 42.2852C338.591 42.4622 338.835 42.7044 339.012 43.0117C339.191 43.3164 339.281 43.6615 339.281 44.0469C339.281 44.4349 339.191 44.7826 339.012 45.0898C338.835 45.3945 338.591 45.6354 338.281 45.8125C337.971 45.9896 337.62 46.0781 337.227 46.0781ZM337.223 45.3594C337.46 45.3594 337.671 45.3021 337.855 45.1875C338.043 45.0703 338.19 44.9141 338.297 44.7188C338.406 44.5208 338.461 44.2956 338.461 44.043C338.461 43.7956 338.406 43.5742 338.297 43.3789C338.19 43.181 338.043 43.0247 337.855 42.9102C337.671 42.793 337.46 42.7344 337.223 42.7344C336.988 42.7344 336.777 42.793 336.59 42.9102C336.402 43.0247 336.254 43.181 336.145 43.3789C336.038 43.5742 335.984 43.7956 335.984 44.043C335.984 44.2956 336.038 44.5208 336.145 44.7188C336.254 44.9141 336.402 45.0703 336.59 45.1875C336.777 45.3021 336.988 45.3594 337.223 45.3594ZM343.117 45.707C342.784 45.707 342.49 45.6328 342.234 45.4844C341.979 45.3359 341.779 45.1302 341.633 44.8672C341.49 44.6016 341.418 44.2982 341.418 43.957C341.418 43.5846 341.501 43.2513 341.668 42.957C341.835 42.6602 342.061 42.4258 342.348 42.2539C342.637 42.0794 342.96 41.9922 343.316 41.9922C343.605 41.9922 343.863 42.0495 344.09 42.1641C344.316 42.2786 344.5 42.4414 344.641 42.6523L344.676 42.2422H345.305C345.286 42.3854 345.267 42.5443 345.246 42.7188C345.228 42.8906 345.21 43.0677 345.191 43.25C345.173 43.4297 345.156 43.6042 345.141 43.7734C345.128 43.9427 345.116 44.0951 345.105 44.2305C345.098 44.3633 345.094 44.4688 345.094 44.5469C345.094 44.7031 345.133 44.8346 345.211 44.9414C345.289 45.0456 345.385 45.0977 345.5 45.0977C345.625 45.0977 345.736 45.0352 345.832 44.9102C345.931 44.7826 346.008 44.612 346.062 44.3984C346.12 44.1823 346.148 43.9401 346.148 43.6719C346.148 43.1562 346.04 42.7057 345.824 42.3203C345.608 41.9349 345.305 41.6354 344.914 41.4219C344.523 41.2083 344.066 41.1016 343.543 41.1016C343.113 41.1016 342.715 41.1745 342.348 41.3203C341.983 41.4661 341.665 41.6719 341.395 41.9375C341.124 42.2005 340.913 42.5104 340.762 42.8672C340.611 43.2214 340.535 43.6081 340.535 44.0273C340.535 44.5169 340.637 44.9453 340.84 45.3125C341.043 45.6797 341.326 45.9648 341.688 46.168C342.052 46.3737 342.475 46.4766 342.957 46.4766C343.551 46.4766 344.092 46.3281 344.582 46.0312L344.867 46.6016C344.214 46.9323 343.551 47.0977 342.879 47.0977C342.275 47.0977 341.742 46.9688 341.281 46.7109C340.823 46.4531 340.465 46.0951 340.207 45.6367C339.949 45.1758 339.82 44.6432 339.82 44.0391C339.82 43.5286 339.913 43.0573 340.098 42.625C340.283 42.1927 340.543 41.8151 340.879 41.4922C341.215 41.1693 341.608 40.9193 342.059 40.7422C342.512 40.5651 343.004 40.4766 343.535 40.4766C344.022 40.4766 344.466 40.5521 344.867 40.7031C345.271 40.8542 345.618 41.069 345.91 41.3477C346.204 41.6237 346.431 41.9518 346.59 42.332C346.749 42.7122 346.828 43.1315 346.828 43.5898C346.828 44.0013 346.768 44.3672 346.648 44.6875C346.531 45.0052 346.368 45.2552 346.16 45.4375C345.952 45.6172 345.714 45.707 345.445 45.707C345.224 45.707 345.035 45.6445 344.879 45.5195C344.723 45.3919 344.613 45.2148 344.551 44.9883C344.387 45.2174 344.181 45.3945 343.934 45.5195C343.689 45.6445 343.417 45.707 343.117 45.707ZM343.234 45.082C343.456 45.082 343.658 45.0352 343.84 44.9414C344.025 44.8451 344.177 44.7135 344.297 44.5469C344.419 44.3802 344.497 44.1914 344.531 43.9805L344.551 43.7461C344.551 43.5195 344.504 43.3216 344.41 43.1523C344.316 42.9831 344.186 42.8516 344.02 42.7578C343.855 42.6641 343.663 42.6172 343.441 42.6172C343.197 42.6172 342.975 42.6758 342.777 42.793C342.582 42.9102 342.427 43.069 342.312 43.2695C342.201 43.4701 342.145 43.6979 342.145 43.9531C342.145 44.2917 342.245 44.5651 342.445 44.7734C342.646 44.9792 342.909 45.082 343.234 45.082ZM347.367 45.6602L347.562 44.9414C347.651 45.0299 347.757 45.1081 347.879 45.1758C348.004 45.2435 348.135 45.2969 348.273 45.3359C348.414 45.3724 348.552 45.3906 348.688 45.3906C348.901 45.3906 349.073 45.3451 349.203 45.2539C349.333 45.1628 349.398 45.0417 349.398 44.8906C349.398 44.7786 349.362 44.6862 349.289 44.6133C349.219 44.5378 349.124 44.4727 349.004 44.418C348.887 44.3633 348.76 44.3099 348.625 44.2578C348.451 44.1927 348.276 44.1172 348.102 44.0312C347.93 43.9453 347.785 43.8307 347.668 43.6875C347.551 43.5443 347.492 43.3555 347.492 43.1211C347.492 42.8971 347.549 42.7031 347.664 42.5391C347.779 42.3724 347.939 42.2435 348.145 42.1523C348.35 42.0612 348.587 42.0156 348.855 42.0156C349.272 42.0156 349.685 42.1198 350.094 42.3281L349.859 43.0117C349.776 42.9518 349.677 42.8984 349.562 42.8516C349.448 42.8047 349.331 42.7682 349.211 42.7422C349.091 42.7135 348.98 42.6992 348.879 42.6992C348.71 42.6992 348.573 42.737 348.469 42.8125C348.367 42.888 348.316 42.9896 348.316 43.1172C348.316 43.1953 348.341 43.2669 348.391 43.332C348.44 43.3945 348.518 43.457 348.625 43.5195C348.734 43.5794 348.882 43.6471 349.066 43.7227C349.243 43.793 349.421 43.8737 349.598 43.9648C349.775 44.056 349.922 44.1745 350.039 44.3203C350.159 44.4661 350.219 44.6576 350.219 44.8945C350.219 45.1289 350.156 45.3359 350.031 45.5156C349.906 45.6927 349.732 45.8307 349.508 45.9297C349.286 46.0286 349.029 46.0781 348.734 46.0781C348.247 46.0781 347.792 45.9388 347.367 45.6602ZM354.555 45.5352C354.07 45.8971 353.538 46.0781 352.957 46.0781C352.543 46.0781 352.172 45.987 351.844 45.8047C351.516 45.6224 351.257 45.3737 351.066 45.0586C350.876 44.7435 350.781 44.388 350.781 43.9922C350.781 43.6146 350.868 43.2773 351.043 42.9805C351.217 42.681 351.456 42.4453 351.758 42.2734C352.06 42.1016 352.402 42.0156 352.785 42.0156C353.181 42.0156 353.529 42.1094 353.828 42.2969C354.13 42.4844 354.365 42.7461 354.531 43.082C354.701 43.4154 354.785 43.8021 354.785 44.2422V44.3672H351.648C351.695 44.5703 351.784 44.7487 351.914 44.9023C352.044 45.0534 352.206 45.1719 352.398 45.2578C352.591 45.3411 352.809 45.3828 353.051 45.3828C353.483 45.3828 353.88 45.2422 354.242 44.9609L354.555 45.5352ZM351.613 43.8125H354.039C354.013 43.5938 353.945 43.4036 353.836 43.2422C353.727 43.0781 353.585 42.9505 353.41 42.8594C353.238 42.7656 353.044 42.7188 352.828 42.7188C352.609 42.7188 352.413 42.7656 352.238 42.8594C352.064 42.9505 351.922 43.0781 351.812 43.2422C351.706 43.4062 351.639 43.5964 351.613 43.8125ZM359.109 45.5352C358.625 45.8971 358.092 46.0781 357.512 46.0781C357.098 46.0781 356.727 45.987 356.398 45.8047C356.07 45.6224 355.811 45.3737 355.621 45.0586C355.431 44.7435 355.336 44.388 355.336 43.9922C355.336 43.6146 355.423 43.2773 355.598 42.9805C355.772 42.681 356.01 42.4453 356.312 42.2734C356.615 42.1016 356.957 42.0156 357.34 42.0156C357.736 42.0156 358.083 42.1094 358.383 42.2969C358.685 42.4844 358.919 42.7461 359.086 43.082C359.255 43.4154 359.34 43.8021 359.34 44.2422V44.3672H356.203C356.25 44.5703 356.339 44.7487 356.469 44.9023C356.599 45.0534 356.76 45.1719 356.953 45.2578C357.146 45.3411 357.363 45.3828 357.605 45.3828C358.038 45.3828 358.435 45.2422 358.797 44.9609L359.109 45.5352ZM356.168 43.8125H358.594C358.568 43.5938 358.5 43.4036 358.391 43.2422C358.281 43.0781 358.139 42.9505 357.965 42.8594C357.793 42.7656 357.599 42.7188 357.383 42.7188C357.164 42.7188 356.967 42.7656 356.793 42.8594C356.618 42.9505 356.477 43.0781 356.367 43.2422C356.26 43.4062 356.194 43.5964 356.168 43.8125ZM364.062 46H363.355L363.312 45.4414C363.135 45.6393 362.922 45.7956 362.672 45.9102C362.424 46.0221 362.152 46.0781 361.855 46.0781C361.48 46.0781 361.145 45.9896 360.848 45.8125C360.551 45.6354 360.316 45.3932 360.145 45.0859C359.975 44.7786 359.891 44.4323 359.891 44.0469C359.891 43.6589 359.975 43.3125 360.145 43.0078C360.316 42.7005 360.551 42.4583 360.848 42.2812C361.145 42.1042 361.48 42.0156 361.855 42.0156C362.137 42.0156 362.397 42.0664 362.637 42.168C362.879 42.2695 363.087 42.4115 363.262 42.5938V40.1406H364.062V46ZM361.988 45.3594C362.225 45.3594 362.439 45.3047 362.629 45.1953C362.822 45.0859 362.975 44.9375 363.09 44.75C363.204 44.5625 363.262 44.349 363.262 44.1094V43.9766C363.262 43.737 363.204 43.5234 363.09 43.3359C362.975 43.1484 362.822 43.0013 362.629 42.8945C362.439 42.7878 362.225 42.7344 361.988 42.7344C361.746 42.7344 361.529 42.7917 361.336 42.9062C361.143 43.0208 360.991 43.1771 360.879 43.375C360.767 43.5703 360.711 43.793 360.711 44.043C360.711 44.293 360.767 44.5169 360.879 44.7148C360.991 44.9128 361.143 45.0703 361.336 45.1875C361.529 45.3021 361.746 45.3594 361.988 45.3594ZM364.914 45.6602L365.109 44.9414C365.198 45.0299 365.303 45.1081 365.426 45.1758C365.551 45.2435 365.682 45.2969 365.82 45.3359C365.961 45.3724 366.099 45.3906 366.234 45.3906C366.448 45.3906 366.62 45.3451 366.75 45.2539C366.88 45.1628 366.945 45.0417 366.945 44.8906C366.945 44.7786 366.909 44.6862 366.836 44.6133C366.766 44.5378 366.671 44.4727 366.551 44.418C366.434 44.3633 366.307 44.3099 366.172 44.2578C365.997 44.1927 365.823 44.1172 365.648 44.0312C365.477 43.9453 365.332 43.8307 365.215 43.6875C365.098 43.5443 365.039 43.3555 365.039 43.1211C365.039 42.8971 365.096 42.7031 365.211 42.5391C365.326 42.3724 365.486 42.2435 365.691 42.1523C365.897 42.0612 366.134 42.0156 366.402 42.0156C366.819 42.0156 367.232 42.1198 367.641 42.3281L367.406 43.0117C367.323 42.9518 367.224 42.8984 367.109 42.8516C366.995 42.8047 366.878 42.7682 366.758 42.7422C366.638 42.7135 366.527 42.6992 366.426 42.6992C366.257 42.6992 366.12 42.737 366.016 42.8125C365.914 42.888 365.863 42.9896 365.863 43.1172C365.863 43.1953 365.888 43.2669 365.938 43.332C365.987 43.3945 366.065 43.457 366.172 43.5195C366.281 43.5794 366.428 43.6471 366.613 43.7227C366.79 43.793 366.967 43.8737 367.145 43.9648C367.322 44.056 367.469 44.1745 367.586 44.3203C367.706 44.4661 367.766 44.6576 367.766 44.8945C367.766 45.1289 367.703 45.3359 367.578 45.5156C367.453 45.6927 367.279 45.8307 367.055 45.9297C366.833 46.0286 366.576 46.0781 366.281 46.0781C365.794 46.0781 365.339 45.9388 364.914 45.6602ZM372.102 45.5352C371.617 45.8971 371.085 46.0781 370.504 46.0781C370.09 46.0781 369.719 45.987 369.391 45.8047C369.062 45.6224 368.803 45.3737 368.613 45.0586C368.423 44.7435 368.328 44.388 368.328 43.9922C368.328 43.6146 368.415 43.2773 368.59 42.9805C368.764 42.681 369.003 42.4453 369.305 42.2734C369.607 42.1016 369.949 42.0156 370.332 42.0156C370.728 42.0156 371.076 42.1094 371.375 42.2969C371.677 42.4844 371.911 42.7461 372.078 43.082C372.247 43.4154 372.332 43.8021 372.332 44.2422V44.3672H369.195C369.242 44.5703 369.331 44.7487 369.461 44.9023C369.591 45.0534 369.753 45.1719 369.945 45.2578C370.138 45.3411 370.355 45.3828 370.598 45.3828C371.03 45.3828 371.427 45.2422 371.789 44.9609L372.102 45.5352ZM369.16 43.8125H371.586C371.56 43.5938 371.492 43.4036 371.383 43.2422C371.273 43.0781 371.132 42.9505 370.957 42.8594C370.785 42.7656 370.591 42.7188 370.375 42.7188C370.156 42.7188 369.96 42.7656 369.785 42.8594C369.611 42.9505 369.469 43.0781 369.359 43.2422C369.253 43.4062 369.186 43.5964 369.16 43.8125ZM373.527 46.0781C373.397 46.0781 373.292 46.0378 373.211 45.957C373.133 45.8763 373.094 45.7721 373.094 45.6445C373.094 45.5117 373.133 45.4049 373.211 45.3242C373.292 45.2435 373.397 45.2031 373.527 45.2031C373.655 45.2031 373.76 45.2435 373.844 45.3242C373.927 45.4049 373.969 45.5117 373.969 45.6445C373.969 45.7721 373.927 45.8763 373.844 45.957C373.76 46.0378 373.655 46.0781 373.527 46.0781ZM378.27 46H377.578L377.531 45.5C377.388 45.6823 377.207 45.8242 376.988 45.9258C376.77 46.0273 376.527 46.0781 376.262 46.0781C375.983 46.0781 375.734 46.0234 375.516 45.9141C375.297 45.8047 375.125 45.6549 375 45.4648C374.875 45.2747 374.812 45.0586 374.812 44.8164C374.812 44.5612 374.88 44.3372 375.016 44.1445C375.151 43.9492 375.336 43.7969 375.57 43.6875C375.805 43.5755 376.072 43.5195 376.371 43.5195C376.559 43.5195 376.749 43.5417 376.941 43.5859C377.137 43.6302 377.312 43.6927 377.469 43.7734V43.6289C377.469 43.4388 377.419 43.276 377.32 43.1406C377.224 43.0026 377.091 42.8971 376.922 42.8242C376.755 42.7513 376.57 42.7148 376.367 42.7148C376.188 42.7148 376.004 42.7461 375.816 42.8086C375.632 42.8711 375.457 42.9674 375.293 43.0977L375.051 42.4453C375.288 42.3047 375.534 42.1979 375.789 42.125C376.047 42.0521 376.299 42.0156 376.547 42.0156C376.901 42.0156 377.206 42.0859 377.461 42.2266C377.719 42.3672 377.918 42.5677 378.059 42.8281C378.199 43.0859 378.27 43.3906 378.27 43.7422V46ZM376.418 45.3984C376.603 45.3984 376.773 45.3607 376.93 45.2852C377.086 45.207 377.212 45.0977 377.309 44.957C377.408 44.8138 377.461 44.6471 377.469 44.457V44.4023C377.336 44.3034 377.186 44.2266 377.02 44.1719C376.855 44.1146 376.688 44.0859 376.516 44.0859C376.253 44.0859 376.034 44.1484 375.859 44.2734C375.685 44.3984 375.598 44.5586 375.598 44.7539C375.598 44.8763 375.633 44.987 375.703 45.0859C375.776 45.1823 375.874 45.2591 375.996 45.3164C376.121 45.3711 376.262 45.3984 376.418 45.3984ZM382.805 45.5352C382.32 45.8971 381.788 46.0781 381.207 46.0781C380.793 46.0781 380.422 45.987 380.094 45.8047C379.766 45.6224 379.507 45.3737 379.316 45.0586C379.126 44.7435 379.031 44.388 379.031 43.9922C379.031 43.6146 379.118 43.2773 379.293 42.9805C379.467 42.681 379.706 42.4453 380.008 42.2734C380.31 42.1016 380.652 42.0156 381.035 42.0156C381.431 42.0156 381.779 42.1094 382.078 42.2969C382.38 42.4844 382.615 42.7461 382.781 43.082C382.951 43.4154 383.035 43.8021 383.035 44.2422V44.3672H379.898C379.945 44.5703 380.034 44.7487 380.164 44.9023C380.294 45.0534 380.456 45.1719 380.648 45.2578C380.841 45.3411 381.059 45.3828 381.301 45.3828C381.733 45.3828 382.13 45.2422 382.492 44.9609L382.805 45.5352ZM379.863 43.8125H382.289C382.263 43.5938 382.195 43.4036 382.086 43.2422C381.977 43.0781 381.835 42.9505 381.66 42.8594C381.488 42.7656 381.294 42.7188 381.078 42.7188C380.859 42.7188 380.663 42.7656 380.488 42.8594C380.314 42.9505 380.172 43.0781 380.062 43.2422C379.956 43.4062 379.889 43.5964 379.863 43.8125Z" fill="white"/>
<path d="M329.867 56H328.945L328.148 53.207L327.352 56H326.43L325.18 52.0938H326.027L326.883 55.0859L327.785 52.0938H328.512L329.414 55.0898L330.273 52.0938H331.121L329.867 56ZM336.055 56H335.133L334.336 53.207L333.539 56H332.617L331.367 52.0938H332.215L333.07 55.0859L333.973 52.0938H334.699L335.602 55.0898L336.461 52.0938H337.309L336.055 56ZM342.242 56H341.32L340.523 53.207L339.727 56H338.805L337.555 52.0938H338.402L339.258 55.0859L340.16 52.0938H340.887L341.789 55.0898L342.648 52.0938H343.496L342.242 56ZM344.246 56.0781C344.116 56.0781 344.01 56.0378 343.93 55.957C343.852 55.8763 343.812 55.7721 343.812 55.6445C343.812 55.5117 343.852 55.4049 343.93 55.3242C344.01 55.2435 344.116 55.2031 344.246 55.2031C344.374 55.2031 344.479 55.2435 344.562 55.3242C344.646 55.4049 344.688 55.5117 344.688 55.6445C344.688 55.7721 344.646 55.8763 344.562 55.957C344.479 56.0378 344.374 56.0781 344.246 56.0781ZM345.453 55.6602L345.648 54.9414C345.737 55.0299 345.842 55.1081 345.965 55.1758C346.09 55.2435 346.221 55.2969 346.359 55.3359C346.5 55.3724 346.638 55.3906 346.773 55.3906C346.987 55.3906 347.159 55.3451 347.289 55.2539C347.419 55.1628 347.484 55.0417 347.484 54.8906C347.484 54.7786 347.448 54.6862 347.375 54.6133C347.305 54.5378 347.21 54.4727 347.09 54.418C346.973 54.3633 346.846 54.3099 346.711 54.2578C346.536 54.1927 346.362 54.1172 346.188 54.0312C346.016 53.9453 345.871 53.8307 345.754 53.6875C345.637 53.5443 345.578 53.3555 345.578 53.1211C345.578 52.8971 345.635 52.7031 345.75 52.5391C345.865 52.3724 346.025 52.2435 346.23 52.1523C346.436 52.0612 346.673 52.0156 346.941 52.0156C347.358 52.0156 347.771 52.1198 348.18 52.3281L347.945 53.0117C347.862 52.9518 347.763 52.8984 347.648 52.8516C347.534 52.8047 347.417 52.7682 347.297 52.7422C347.177 52.7135 347.066 52.6992 346.965 52.6992C346.796 52.6992 346.659 52.737 346.555 52.8125C346.453 52.888 346.402 52.9896 346.402 53.1172C346.402 53.1953 346.427 53.2669 346.477 53.332C346.526 53.3945 346.604 53.457 346.711 53.5195C346.82 53.5794 346.967 53.6471 347.152 53.7227C347.329 53.793 347.507 53.8737 347.684 53.9648C347.861 54.056 348.008 54.1745 348.125 54.3203C348.245 54.4661 348.305 54.6576 348.305 54.8945C348.305 55.1289 348.242 55.3359 348.117 55.5156C347.992 55.6927 347.818 55.8307 347.594 55.9297C347.372 56.0286 347.115 56.0781 346.82 56.0781C346.333 56.0781 345.878 55.9388 345.453 55.6602ZM352.641 55.5352C352.156 55.8971 351.624 56.0781 351.043 56.0781C350.629 56.0781 350.258 55.987 349.93 55.8047C349.602 55.6224 349.342 55.3737 349.152 55.0586C348.962 54.7435 348.867 54.388 348.867 53.9922C348.867 53.6146 348.954 53.2773 349.129 52.9805C349.303 52.681 349.542 52.4453 349.844 52.2734C350.146 52.1016 350.488 52.0156 350.871 52.0156C351.267 52.0156 351.615 52.1094 351.914 52.2969C352.216 52.4844 352.451 52.7461 352.617 53.082C352.786 53.4154 352.871 53.8021 352.871 54.2422V54.3672H349.734C349.781 54.5703 349.87 54.7487 350 54.9023C350.13 55.0534 350.292 55.1719 350.484 55.2578C350.677 55.3411 350.895 55.3828 351.137 55.3828C351.569 55.3828 351.966 55.2422 352.328 54.9609L352.641 55.5352ZM349.699 53.8125H352.125C352.099 53.5938 352.031 53.4036 351.922 53.2422C351.812 53.0781 351.671 52.9505 351.496 52.8594C351.324 52.7656 351.13 52.7188 350.914 52.7188C350.695 52.7188 350.499 52.7656 350.324 52.8594C350.15 52.9505 350.008 53.0781 349.898 53.2422C349.792 53.4062 349.725 53.5964 349.699 53.8125ZM357.195 55.5352C356.711 55.8971 356.178 56.0781 355.598 56.0781C355.184 56.0781 354.812 55.987 354.484 55.8047C354.156 55.6224 353.897 55.3737 353.707 55.0586C353.517 54.7435 353.422 54.388 353.422 53.9922C353.422 53.6146 353.509 53.2773 353.684 52.9805C353.858 52.681 354.096 52.4453 354.398 52.2734C354.701 52.1016 355.043 52.0156 355.426 52.0156C355.822 52.0156 356.169 52.1094 356.469 52.2969C356.771 52.4844 357.005 52.7461 357.172 53.082C357.341 53.4154 357.426 53.8021 357.426 54.2422V54.3672H354.289C354.336 54.5703 354.424 54.7487 354.555 54.9023C354.685 55.0534 354.846 55.1719 355.039 55.2578C355.232 55.3411 355.449 55.3828 355.691 55.3828C356.124 55.3828 356.521 55.2422 356.883 54.9609L357.195 55.5352ZM354.254 53.8125H356.68C356.654 53.5938 356.586 53.4036 356.477 53.2422C356.367 53.0781 356.225 52.9505 356.051 52.8594C355.879 52.7656 355.685 52.7188 355.469 52.7188C355.25 52.7188 355.053 52.7656 354.879 52.8594C354.704 52.9505 354.562 53.0781 354.453 53.2422C354.346 53.4062 354.28 53.5964 354.254 53.8125ZM362.148 56H361.441L361.398 55.4414C361.221 55.6393 361.008 55.7956 360.758 55.9102C360.51 56.0221 360.238 56.0781 359.941 56.0781C359.566 56.0781 359.23 55.9896 358.934 55.8125C358.637 55.6354 358.402 55.3932 358.23 55.0859C358.061 54.7786 357.977 54.4323 357.977 54.0469C357.977 53.6589 358.061 53.3125 358.23 53.0078C358.402 52.7005 358.637 52.4583 358.934 52.2812C359.23 52.1042 359.566 52.0156 359.941 52.0156C360.223 52.0156 360.483 52.0664 360.723 52.168C360.965 52.2695 361.173 52.4115 361.348 52.5938V50.1406H362.148V56ZM360.074 55.3594C360.311 55.3594 360.525 55.3047 360.715 55.1953C360.908 55.0859 361.061 54.9375 361.176 54.75C361.29 54.5625 361.348 54.349 361.348 54.1094V53.9766C361.348 53.737 361.29 53.5234 361.176 53.3359C361.061 53.1484 360.908 53.0013 360.715 52.8945C360.525 52.7878 360.311 52.7344 360.074 52.7344C359.832 52.7344 359.615 52.7917 359.422 52.9062C359.229 53.0208 359.077 53.1771 358.965 53.375C358.853 53.5703 358.797 53.793 358.797 54.043C358.797 54.293 358.853 54.5169 358.965 54.7148C359.077 54.9128 359.229 55.0703 359.422 55.1875C359.615 55.3021 359.832 55.3594 360.074 55.3594ZM363 55.6602L363.195 54.9414C363.284 55.0299 363.389 55.1081 363.512 55.1758C363.637 55.2435 363.768 55.2969 363.906 55.3359C364.047 55.3724 364.185 55.3906 364.32 55.3906C364.534 55.3906 364.706 55.3451 364.836 55.2539C364.966 55.1628 365.031 55.0417 365.031 54.8906C365.031 54.7786 364.995 54.6862 364.922 54.6133C364.852 54.5378 364.757 54.4727 364.637 54.418C364.52 54.3633 364.393 54.3099 364.258 54.2578C364.083 54.1927 363.909 54.1172 363.734 54.0312C363.562 53.9453 363.418 53.8307 363.301 53.6875C363.184 53.5443 363.125 53.3555 363.125 53.1211C363.125 52.8971 363.182 52.7031 363.297 52.5391C363.411 52.3724 363.572 52.2435 363.777 52.1523C363.983 52.0612 364.22 52.0156 364.488 52.0156C364.905 52.0156 365.318 52.1198 365.727 52.3281L365.492 53.0117C365.409 52.9518 365.31 52.8984 365.195 52.8516C365.081 52.8047 364.964 52.7682 364.844 52.7422C364.724 52.7135 364.613 52.6992 364.512 52.6992C364.342 52.6992 364.206 52.737 364.102 52.8125C364 52.888 363.949 52.9896 363.949 53.1172C363.949 53.1953 363.974 53.2669 364.023 53.332C364.073 53.3945 364.151 53.457 364.258 53.5195C364.367 53.5794 364.514 53.6471 364.699 53.7227C364.876 53.793 365.053 53.8737 365.23 53.9648C365.408 54.056 365.555 54.1745 365.672 54.3203C365.792 54.4661 365.852 54.6576 365.852 54.8945C365.852 55.1289 365.789 55.3359 365.664 55.5156C365.539 55.6927 365.365 55.8307 365.141 55.9297C364.919 56.0286 364.661 56.0781 364.367 56.0781C363.88 56.0781 363.424 55.9388 363 55.6602ZM370.188 55.5352C369.703 55.8971 369.171 56.0781 368.59 56.0781C368.176 56.0781 367.805 55.987 367.477 55.8047C367.148 55.6224 366.889 55.3737 366.699 55.0586C366.509 54.7435 366.414 54.388 366.414 53.9922C366.414 53.6146 366.501 53.2773 366.676 52.9805C366.85 52.681 367.089 52.4453 367.391 52.2734C367.693 52.1016 368.035 52.0156 368.418 52.0156C368.814 52.0156 369.161 52.1094 369.461 52.2969C369.763 52.4844 369.997 52.7461 370.164 53.082C370.333 53.4154 370.418 53.8021 370.418 54.2422V54.3672H367.281C367.328 54.5703 367.417 54.7487 367.547 54.9023C367.677 55.0534 367.839 55.1719 368.031 55.2578C368.224 55.3411 368.441 55.3828 368.684 55.3828C369.116 55.3828 369.513 55.2422 369.875 54.9609L370.188 55.5352ZM367.246 53.8125H369.672C369.646 53.5938 369.578 53.4036 369.469 53.2422C369.359 53.0781 369.217 52.9505 369.043 52.8594C368.871 52.7656 368.677 52.7188 368.461 52.7188C368.242 52.7188 368.046 52.7656 367.871 52.8594C367.697 52.9505 367.555 53.0781 367.445 53.2422C367.339 53.4062 367.272 53.5964 367.246 53.8125ZM371.613 56.0781C371.483 56.0781 371.378 56.0378 371.297 55.957C371.219 55.8763 371.18 55.7721 371.18 55.6445C371.18 55.5117 371.219 55.4049 371.297 55.3242C371.378 55.2435 371.483 55.2031 371.613 55.2031C371.741 55.2031 371.846 55.2435 371.93 55.3242C372.013 55.4049 372.055 55.5117 372.055 55.6445C372.055 55.7721 372.013 55.8763 371.93 55.957C371.846 56.0378 371.741 56.0781 371.613 56.0781ZM376.355 56H375.664L375.617 55.5C375.474 55.6823 375.293 55.8242 375.074 55.9258C374.855 56.0273 374.613 56.0781 374.348 56.0781C374.069 56.0781 373.82 56.0234 373.602 55.9141C373.383 55.8047 373.211 55.6549 373.086 55.4648C372.961 55.2747 372.898 55.0586 372.898 54.8164C372.898 54.5612 372.966 54.3372 373.102 54.1445C373.237 53.9492 373.422 53.7969 373.656 53.6875C373.891 53.5755 374.158 53.5195 374.457 53.5195C374.645 53.5195 374.835 53.5417 375.027 53.5859C375.223 53.6302 375.398 53.6927 375.555 53.7734V53.6289C375.555 53.4388 375.505 53.276 375.406 53.1406C375.31 53.0026 375.177 52.8971 375.008 52.8242C374.841 52.7513 374.656 52.7148 374.453 52.7148C374.273 52.7148 374.09 52.7461 373.902 52.8086C373.717 52.8711 373.543 52.9674 373.379 53.0977L373.137 52.4453C373.374 52.3047 373.62 52.1979 373.875 52.125C374.133 52.0521 374.385 52.0156 374.633 52.0156C374.987 52.0156 375.292 52.0859 375.547 52.2266C375.805 52.3672 376.004 52.5677 376.145 52.8281C376.285 53.0859 376.355 53.3906 376.355 53.7422V56ZM374.504 55.3984C374.689 55.3984 374.859 55.3607 375.016 55.2852C375.172 55.207 375.298 55.0977 375.395 54.957C375.493 54.8138 375.547 54.6471 375.555 54.457V54.4023C375.422 54.3034 375.272 54.2266 375.105 54.1719C374.941 54.1146 374.773 54.0859 374.602 54.0859C374.339 54.0859 374.12 54.1484 373.945 54.2734C373.771 54.3984 373.684 54.5586 373.684 54.7539C373.684 54.8763 373.719 54.987 373.789 55.0859C373.862 55.1823 373.96 55.2591 374.082 55.3164C374.207 55.3711 374.348 55.3984 374.504 55.3984ZM380.891 55.5352C380.406 55.8971 379.874 56.0781 379.293 56.0781C378.879 56.0781 378.508 55.987 378.18 55.8047C377.852 55.6224 377.592 55.3737 377.402 55.0586C377.212 54.7435 377.117 54.388 377.117 53.9922C377.117 53.6146 377.204 53.2773 377.379 52.9805C377.553 52.681 377.792 52.4453 378.094 52.2734C378.396 52.1016 378.738 52.0156 379.121 52.0156C379.517 52.0156 379.865 52.1094 380.164 52.2969C380.466 52.4844 380.701 52.7461 380.867 53.082C381.036 53.4154 381.121 53.8021 381.121 54.2422V54.3672H377.984C378.031 54.5703 378.12 54.7487 378.25 54.9023C378.38 55.0534 378.542 55.1719 378.734 55.2578C378.927 55.3411 379.145 55.3828 379.387 55.3828C379.819 55.3828 380.216 55.2422 380.578 54.9609L380.891 55.5352ZM377.949 53.8125H380.375C380.349 53.5938 380.281 53.4036 380.172 53.2422C380.062 53.0781 379.921 52.9505 379.746 52.8594C379.574 52.7656 379.38 52.7188 379.164 52.7188C378.945 52.7188 378.749 52.7656 378.574 52.8594C378.4 52.9505 378.258 53.0781 378.148 53.2422C378.042 53.4062 377.975 53.5964 377.949 53.8125Z" fill="white"/>
<rect x="432" y="41" width="14" height="14" rx="7" fill="#0184CE"/>
<path d="M439 43.625C437.275 43.625 435.875 44.885 435.875 46.4375C435.875 48.9375 439 52.375 439 52.375C439 52.375 442.125 48.9375 442.125 46.4375C442.125 44.885 440.725 43.625 439 43.625ZM439 48C438.753 48 438.511 47.9267 438.306 47.7893C438.1 47.652 437.94 47.4568 437.845 47.2284C437.751 46.9999 437.726 46.7486 437.774 46.5061C437.822 46.2637 437.941 46.0409 438.116 45.8661C438.291 45.6913 438.514 45.5722 438.756 45.524C438.999 45.4758 439.25 45.5005 439.478 45.5952C439.707 45.6898 439.902 45.85 440.039 46.0555C440.177 46.2611 440.25 46.5028 440.25 46.75C440.25 47.0814 440.118 47.3991 439.883 47.6335C439.649 47.8678 439.331 47.9996 439 48Z" fill="#1A1A1A"/>
<path d="M452.336 45.4648L452.684 44.832C452.897 45.0065 453.113 45.1393 453.332 45.2305C453.553 45.319 453.775 45.3633 453.996 45.3633C454.223 45.3633 454.422 45.319 454.594 45.2305C454.768 45.1419 454.904 45.0195 455 44.8633C455.099 44.7044 455.148 44.5234 455.148 44.3203C455.148 43.987 455.017 43.7279 454.754 43.543C454.493 43.3555 454.132 43.2617 453.668 43.2617H453.449V42.6484H453.668C453.918 42.6484 454.142 42.6055 454.34 42.5195C454.538 42.431 454.693 42.3112 454.805 42.1602C454.919 42.0065 454.977 41.8333 454.977 41.6406C454.977 41.474 454.934 41.3255 454.848 41.1953C454.764 41.0651 454.648 40.9635 454.5 40.8906C454.354 40.8151 454.186 40.7773 453.996 40.7773C453.809 40.7773 453.618 40.8177 453.426 40.8984C453.233 40.9766 453.043 41.0924 452.855 41.2461L452.461 40.6484C452.682 40.4479 452.931 40.2943 453.207 40.1875C453.483 40.0781 453.771 40.0234 454.07 40.0234C454.404 40.0234 454.699 40.0872 454.957 40.2148C455.215 40.3398 455.418 40.5117 455.566 40.7305C455.717 40.9492 455.793 41.2005 455.793 41.4844C455.793 41.8099 455.694 42.1016 455.496 42.3594C455.298 42.6172 455.042 42.8073 454.727 42.9297C455.133 43.0286 455.453 43.2083 455.688 43.4688C455.924 43.7292 456.043 44.0495 456.043 44.4297C456.043 44.7552 455.957 45.0456 455.785 45.3008C455.613 45.5534 455.379 45.7526 455.082 45.8984C454.785 46.0443 454.447 46.1172 454.066 46.1172C453.743 46.1172 453.435 46.0612 453.141 45.9492C452.846 45.8372 452.578 45.6758 452.336 45.4648ZM458.914 46.1172C458.492 46.1172 458.129 45.9987 457.824 45.7617C457.52 45.5221 457.285 45.1758 457.121 44.7227C456.957 44.2669 456.875 43.7148 456.875 43.0664C456.875 42.4206 456.957 41.8711 457.121 41.418C457.285 40.9648 457.52 40.6198 457.824 40.3828C458.129 40.1432 458.492 40.0234 458.914 40.0234C459.336 40.0234 459.698 40.1432 460 40.3828C460.305 40.6198 460.539 40.9648 460.703 41.418C460.87 41.8711 460.953 42.4206 460.953 43.0664C460.953 43.7148 460.871 44.2669 460.707 44.7227C460.543 45.1758 460.309 45.5221 460.004 45.7617C459.699 45.9987 459.336 46.1172 458.914 46.1172ZM458.914 45.3594C459.279 45.3594 459.562 45.1589 459.766 44.7578C459.971 44.3542 460.074 43.7904 460.074 43.0664C460.074 42.3424 459.971 41.7812 459.766 41.3828C459.562 40.9818 459.279 40.7812 458.914 40.7812C458.549 40.7812 458.264 40.9818 458.059 41.3828C457.855 41.7812 457.754 42.3424 457.754 43.0664C457.754 43.7904 457.855 44.3542 458.059 44.7578C458.264 45.1589 458.549 45.3594 458.914 45.3594ZM465.281 46H464.422V44.668H461.516V44L464.426 40.1406H465.281V43.9141H465.996V44.668H465.281V46ZM462.406 43.9141H464.422V41.2383L462.406 43.9141ZM473.121 46H472.164L470.824 43.707H469.578V46H468.719V40.1406H470.812C471.25 40.1406 471.625 40.2122 471.938 40.3555C472.25 40.4987 472.491 40.7031 472.66 40.9688C472.829 41.2344 472.914 41.5521 472.914 41.9219C472.914 42.3359 472.809 42.6849 472.598 42.9688C472.387 43.2526 472.089 43.4544 471.703 43.5742L473.121 46ZM469.578 42.9805H470.754C471.155 42.9805 471.469 42.8893 471.695 42.707C471.922 42.5221 472.035 42.2656 472.035 41.9375C472.035 41.612 471.922 41.3581 471.695 41.1758C471.471 40.9909 471.158 40.8984 470.754 40.8984H469.578V42.9805ZM477.383 45.5352C476.898 45.8971 476.366 46.0781 475.785 46.0781C475.371 46.0781 475 45.987 474.672 45.8047C474.344 45.6224 474.085 45.3737 473.895 45.0586C473.704 44.7435 473.609 44.388 473.609 43.9922C473.609 43.6146 473.697 43.2773 473.871 42.9805C474.046 42.681 474.284 42.4453 474.586 42.2734C474.888 42.1016 475.23 42.0156 475.613 42.0156C476.009 42.0156 476.357 42.1094 476.656 42.2969C476.958 42.4844 477.193 42.7461 477.359 43.082C477.529 43.4154 477.613 43.8021 477.613 44.2422V44.3672H474.477C474.523 44.5703 474.612 44.7487 474.742 44.9023C474.872 45.0534 475.034 45.1719 475.227 45.2578C475.419 45.3411 475.637 45.3828 475.879 45.3828C476.311 45.3828 476.708 45.2422 477.07 44.9609L477.383 45.5352ZM474.441 43.8125H476.867C476.841 43.5938 476.773 43.4036 476.664 43.2422C476.555 43.0781 476.413 42.9505 476.238 42.8594C476.066 42.7656 475.872 42.7188 475.656 42.7188C475.438 42.7188 475.241 42.7656 475.066 42.8594C474.892 42.9505 474.75 43.0781 474.641 43.2422C474.534 43.4062 474.467 43.5964 474.441 43.8125ZM482.336 46H481.629L481.586 45.4414C481.409 45.6393 481.195 45.7956 480.945 45.9102C480.698 46.0221 480.426 46.0781 480.129 46.0781C479.754 46.0781 479.418 45.9896 479.121 45.8125C478.824 45.6354 478.59 45.3932 478.418 45.0859C478.249 44.7786 478.164 44.4323 478.164 44.0469C478.164 43.6589 478.249 43.3125 478.418 43.0078C478.59 42.7005 478.824 42.4583 479.121 42.2812C479.418 42.1042 479.754 42.0156 480.129 42.0156C480.41 42.0156 480.671 42.0664 480.91 42.168C481.152 42.2695 481.361 42.4115 481.535 42.5938V40.1406H482.336V46ZM480.262 45.3594C480.499 45.3594 480.712 45.3047 480.902 45.1953C481.095 45.0859 481.249 44.9375 481.363 44.75C481.478 44.5625 481.535 44.349 481.535 44.1094V43.9766C481.535 43.737 481.478 43.5234 481.363 43.3359C481.249 43.1484 481.095 43.0013 480.902 42.8945C480.712 42.7878 480.499 42.7344 480.262 42.7344C480.02 42.7344 479.802 42.7917 479.609 42.9062C479.417 43.0208 479.264 43.1771 479.152 43.375C479.04 43.5703 478.984 43.793 478.984 44.043C478.984 44.293 479.04 44.5169 479.152 44.7148C479.264 44.9128 479.417 45.0703 479.609 45.1875C479.802 45.3021 480.02 45.3594 480.262 45.3594ZM490.363 45.2539C490.092 45.5247 489.77 45.737 489.395 45.8906C489.022 46.0417 488.616 46.1172 488.176 46.1172C487.736 46.1172 487.329 46.0417 486.957 45.8906C486.585 45.7396 486.26 45.5273 485.984 45.2539C485.711 44.9779 485.497 44.6549 485.344 44.2852C485.193 43.9128 485.117 43.5078 485.117 43.0703C485.117 42.6302 485.193 42.2253 485.344 41.8555C485.497 41.4831 485.711 41.1602 485.984 40.8867C486.26 40.6133 486.585 40.401 486.957 40.25C487.329 40.099 487.736 40.0234 488.176 40.0234C488.613 40.0234 489.018 40.1003 489.391 40.2539C489.766 40.4049 490.087 40.6146 490.355 40.8828L489.758 41.4922C489.562 41.2708 489.328 41.0977 489.055 40.9727C488.784 40.8451 488.487 40.7812 488.164 40.7812C487.852 40.7812 487.564 40.8385 487.301 40.9531C487.038 41.0651 486.809 41.2253 486.613 41.4336C486.418 41.6393 486.266 41.8815 486.156 42.1602C486.049 42.4388 485.996 42.7422 485.996 43.0703C485.996 43.3984 486.049 43.7018 486.156 43.9805C486.266 44.2591 486.418 44.5026 486.613 44.7109C486.809 44.9167 487.038 45.0768 487.301 45.1914C487.564 45.3034 487.852 45.3594 488.164 45.3594C488.487 45.3594 488.784 45.2969 489.055 45.1719C489.328 45.0443 489.561 44.8698 489.754 44.6484L490.363 45.2539ZM492.105 46H491.305V42.0938H492.004L492.035 42.8359C492.171 42.5781 492.357 42.3776 492.594 42.2344C492.833 42.0885 493.108 42.0156 493.418 42.0156C493.493 42.0156 493.569 42.0208 493.645 42.0312C493.723 42.0391 493.801 42.0521 493.879 42.0703L493.777 42.793C493.626 42.7539 493.478 42.7344 493.332 42.7344C493.09 42.7344 492.876 42.793 492.691 42.9102C492.507 43.0247 492.362 43.1836 492.258 43.3867C492.156 43.5898 492.105 43.8242 492.105 44.0898V46ZM497.977 45.5352C497.492 45.8971 496.96 46.0781 496.379 46.0781C495.965 46.0781 495.594 45.987 495.266 45.8047C494.938 45.6224 494.678 45.3737 494.488 45.0586C494.298 44.7435 494.203 44.388 494.203 43.9922C494.203 43.6146 494.29 43.2773 494.465 42.9805C494.639 42.681 494.878 42.4453 495.18 42.2734C495.482 42.1016 495.824 42.0156 496.207 42.0156C496.603 42.0156 496.951 42.1094 497.25 42.2969C497.552 42.4844 497.786 42.7461 497.953 43.082C498.122 43.4154 498.207 43.8021 498.207 44.2422V44.3672H495.07C495.117 44.5703 495.206 44.7487 495.336 44.9023C495.466 45.0534 495.628 45.1719 495.82 45.2578C496.013 45.3411 496.23 45.3828 496.473 45.3828C496.905 45.3828 497.302 45.2422 497.664 44.9609L497.977 45.5352ZM495.035 43.8125H497.461C497.435 43.5938 497.367 43.4036 497.258 43.2422C497.148 43.0781 497.007 42.9505 496.832 42.8594C496.66 42.7656 496.466 42.7188 496.25 42.7188C496.031 42.7188 495.835 42.7656 495.66 42.8594C495.486 42.9505 495.344 43.0781 495.234 43.2422C495.128 43.4062 495.061 43.5964 495.035 43.8125ZM498.773 45.6602L498.969 44.9414C499.057 45.0299 499.163 45.1081 499.285 45.1758C499.41 45.2435 499.542 45.2969 499.68 45.3359C499.82 45.3724 499.958 45.3906 500.094 45.3906C500.307 45.3906 500.479 45.3451 500.609 45.2539C500.74 45.1628 500.805 45.0417 500.805 44.8906C500.805 44.7786 500.768 44.6862 500.695 44.6133C500.625 44.5378 500.53 44.4727 500.41 44.418C500.293 44.3633 500.167 44.3099 500.031 44.2578C499.857 44.1927 499.682 44.1172 499.508 44.0312C499.336 43.9453 499.191 43.8307 499.074 43.6875C498.957 43.5443 498.898 43.3555 498.898 43.1211C498.898 42.8971 498.956 42.7031 499.07 42.5391C499.185 42.3724 499.345 42.2435 499.551 42.1523C499.757 42.0612 499.993 42.0156 500.262 42.0156C500.678 42.0156 501.091 42.1198 501.5 42.3281L501.266 43.0117C501.182 42.9518 501.083 42.8984 500.969 42.8516C500.854 42.8047 500.737 42.7682 500.617 42.7422C500.497 42.7135 500.387 42.6992 500.285 42.6992C500.116 42.6992 499.979 42.737 499.875 42.8125C499.773 42.888 499.723 42.9896 499.723 43.1172C499.723 43.1953 499.747 43.2669 499.797 43.332C499.846 43.3945 499.924 43.457 500.031 43.5195C500.141 43.5794 500.288 43.6471 500.473 43.7227C500.65 43.793 500.827 43.8737 501.004 43.9648C501.181 44.056 501.328 44.1745 501.445 44.3203C501.565 44.4661 501.625 44.6576 501.625 44.8945C501.625 45.1289 501.562 45.3359 501.438 45.5156C501.312 45.6927 501.138 45.8307 500.914 45.9297C500.693 46.0286 500.435 46.0781 500.141 46.0781C499.654 46.0781 499.198 45.9388 498.773 45.6602ZM505.793 45.418C505.603 45.6289 505.375 45.7917 505.109 45.9062C504.844 46.0208 504.556 46.0781 504.246 46.0781C503.855 46.0781 503.504 45.9896 503.191 45.8125C502.882 45.6354 502.637 45.3932 502.457 45.0859C502.277 44.7786 502.188 44.4323 502.188 44.0469C502.188 43.6589 502.277 43.3125 502.457 43.0078C502.637 42.7005 502.882 42.4583 503.191 42.2812C503.504 42.1042 503.855 42.0156 504.246 42.0156C504.553 42.0156 504.84 42.0729 505.105 42.1875C505.371 42.2995 505.599 42.4609 505.789 42.6719L505.316 43.168C505.189 43.0326 505.035 42.9284 504.855 42.8555C504.678 42.7799 504.49 42.7422 504.289 42.7422C504.042 42.7422 503.822 42.7982 503.629 42.9102C503.436 43.0221 503.285 43.1758 503.176 43.3711C503.066 43.5638 503.012 43.7878 503.012 44.043C503.012 44.2956 503.066 44.5208 503.176 44.7188C503.285 44.9167 503.436 45.0716 503.629 45.1836C503.822 45.2956 504.042 45.3516 504.289 45.3516C504.49 45.3516 504.68 45.3138 504.859 45.2383C505.039 45.1628 505.191 45.0586 505.316 44.9258L505.793 45.418ZM510.109 45.5352C509.625 45.8971 509.092 46.0781 508.512 46.0781C508.098 46.0781 507.727 45.987 507.398 45.8047C507.07 45.6224 506.811 45.3737 506.621 45.0586C506.431 44.7435 506.336 44.388 506.336 43.9922C506.336 43.6146 506.423 43.2773 506.598 42.9805C506.772 42.681 507.01 42.4453 507.312 42.2734C507.615 42.1016 507.957 42.0156 508.34 42.0156C508.736 42.0156 509.083 42.1094 509.383 42.2969C509.685 42.4844 509.919 42.7461 510.086 43.082C510.255 43.4154 510.34 43.8021 510.34 44.2422V44.3672H507.203C507.25 44.5703 507.339 44.7487 507.469 44.9023C507.599 45.0534 507.76 45.1719 507.953 45.2578C508.146 45.3411 508.363 45.3828 508.605 45.3828C509.038 45.3828 509.435 45.2422 509.797 44.9609L510.109 45.5352ZM507.168 43.8125H509.594C509.568 43.5938 509.5 43.4036 509.391 43.2422C509.281 43.0781 509.139 42.9505 508.965 42.8594C508.793 42.7656 508.599 42.7188 508.383 42.7188C508.164 42.7188 507.967 42.7656 507.793 42.8594C507.618 42.9505 507.477 43.0781 507.367 43.2422C507.26 43.4062 507.194 43.5964 507.168 43.8125ZM514.918 46H514.117V43.8789C514.117 43.5326 514.022 43.2565 513.832 43.0508C513.645 42.8451 513.392 42.7422 513.074 42.7422C512.746 42.7422 512.482 42.8516 512.281 43.0703C512.081 43.2891 511.98 43.5794 511.98 43.9414V46H511.18V42.0938H511.855L511.883 42.7227C512.026 42.4935 512.214 42.319 512.445 42.1992C512.677 42.0768 512.949 42.0156 513.262 42.0156C513.775 42.0156 514.178 42.1706 514.473 42.4805C514.77 42.7904 514.918 43.2174 514.918 43.7617V46ZM518.312 45.9023C518.039 46.0195 517.775 46.0781 517.52 46.0781C517.264 46.0781 517.04 46.0234 516.848 45.9141C516.658 45.8047 516.508 45.651 516.398 45.4531C516.292 45.2526 516.238 45.0221 516.238 44.7617V42.8086H515.555V42.0938H516.277V41.1172H517.039V42.0938H518.18V42.8086H517.039V44.6133C517.039 44.8424 517.1 45.0247 517.223 45.1602C517.348 45.293 517.508 45.3594 517.703 45.3594C517.867 45.3594 518.03 45.3099 518.191 45.2109L518.312 45.9023ZM521.008 46V40.1406H523.117C523.701 40.1406 524.156 40.2708 524.484 40.5312C524.815 40.7917 524.98 41.1523 524.98 41.6133C524.98 41.9258 524.904 42.1992 524.75 42.4336C524.599 42.668 524.396 42.8398 524.141 42.9492C524.49 43.0404 524.763 43.2109 524.961 43.4609C525.159 43.7083 525.258 44.0117 525.258 44.3711C525.258 44.6966 525.177 44.9818 525.016 45.2266C524.857 45.4714 524.632 45.6615 524.34 45.7969C524.051 45.9323 523.712 46 523.324 46H521.008ZM521.867 42.6836H523.082C523.402 42.6836 523.658 42.6016 523.848 42.4375C524.038 42.2734 524.133 42.0547 524.133 41.7812C524.133 41.5078 524.035 41.293 523.84 41.1367C523.647 40.9779 523.383 40.8984 523.047 40.8984H521.867V42.6836ZM521.867 45.2422H523.125C523.378 45.2422 523.598 45.2018 523.785 45.1211C523.973 45.0378 524.118 44.9232 524.223 44.7773C524.327 44.6289 524.379 44.457 524.379 44.2617C524.379 44.0716 524.329 43.9062 524.23 43.7656C524.134 43.625 523.996 43.5182 523.816 43.4453C523.637 43.3698 523.426 43.332 523.184 43.332H521.867V45.2422ZM529.785 46H529.105L529.078 45.3711C528.935 45.6003 528.747 45.776 528.516 45.8984C528.286 46.0182 528.014 46.0781 527.699 46.0781C527.189 46.0781 526.785 45.9232 526.488 45.6133C526.194 45.3008 526.047 44.8737 526.047 44.332V42.0938H526.848V44.2148C526.848 44.5612 526.941 44.8372 527.129 45.043C527.316 45.2487 527.569 45.3516 527.887 45.3516C528.215 45.3516 528.479 45.2422 528.68 45.0234C528.883 44.8021 528.984 44.5117 528.984 44.1523V42.0938H529.785V46ZM531.328 40.9609C531.206 40.9609 531.103 40.918 531.02 40.832C530.936 40.7461 530.895 40.6419 530.895 40.5195C530.895 40.3971 530.936 40.2943 531.02 40.2109C531.103 40.125 531.206 40.082 531.328 40.082C531.453 40.082 531.557 40.125 531.641 40.2109C531.727 40.2943 531.77 40.3971 531.77 40.5195C531.77 40.6419 531.727 40.7461 531.641 40.832C531.557 40.918 531.453 40.9609 531.328 40.9609ZM531.727 46H530.926V42.0938H531.727V46ZM533.719 46H532.867V39.9844H533.719V46ZM538.727 46H538.02L537.977 45.4414C537.799 45.6393 537.586 45.7956 537.336 45.9102C537.089 46.0221 536.816 46.0781 536.52 46.0781C536.145 46.0781 535.809 45.9896 535.512 45.8125C535.215 45.6354 534.98 45.3932 534.809 45.0859C534.639 44.7786 534.555 44.4323 534.555 44.0469C534.555 43.6589 534.639 43.3125 534.809 43.0078C534.98 42.7005 535.215 42.4583 535.512 42.2812C535.809 42.1042 536.145 42.0156 536.52 42.0156C536.801 42.0156 537.061 42.0664 537.301 42.168C537.543 42.2695 537.751 42.4115 537.926 42.5938V40.1406H538.727V46ZM536.652 45.3594C536.889 45.3594 537.103 45.3047 537.293 45.1953C537.486 45.0859 537.639 44.9375 537.754 44.75C537.868 44.5625 537.926 44.349 537.926 44.1094V43.9766C537.926 43.737 537.868 43.5234 537.754 43.3359C537.639 43.1484 537.486 43.0013 537.293 42.8945C537.103 42.7878 536.889 42.7344 536.652 42.7344C536.41 42.7344 536.193 42.7917 536 42.9062C535.807 43.0208 535.655 43.1771 535.543 43.375C535.431 43.5703 535.375 43.793 535.375 44.043C535.375 44.293 535.431 44.5169 535.543 44.7148C535.655 44.9128 535.807 45.0703 536 45.1875C536.193 45.3021 536.41 45.3594 536.652 45.3594ZM540.266 40.9609C540.143 40.9609 540.04 40.918 539.957 40.832C539.874 40.7461 539.832 40.6419 539.832 40.5195C539.832 40.3971 539.874 40.2943 539.957 40.2109C540.04 40.125 540.143 40.082 540.266 40.082C540.391 40.082 540.495 40.125 540.578 40.2109C540.664 40.2943 540.707 40.3971 540.707 40.5195C540.707 40.6419 540.664 40.7461 540.578 40.832C540.495 40.918 540.391 40.9609 540.266 40.9609ZM540.664 46H539.863V42.0938H540.664V46ZM545.543 46H544.742V43.8789C544.742 43.5326 544.647 43.2565 544.457 43.0508C544.27 42.8451 544.017 42.7422 543.699 42.7422C543.371 42.7422 543.107 42.8516 542.906 43.0703C542.706 43.2891 542.605 43.5794 542.605 43.9414V46H541.805V42.0938H542.48L542.508 42.7227C542.651 42.4935 542.839 42.319 543.07 42.1992C543.302 42.0768 543.574 42.0156 543.887 42.0156C544.4 42.0156 544.803 42.1706 545.098 42.4805C545.395 42.7904 545.543 43.2174 545.543 43.7617V46ZM548.234 46.0156C547.867 46.0156 547.538 45.9284 547.246 45.7539C546.954 45.5794 546.724 45.3411 546.555 45.0391C546.388 44.737 546.305 44.3958 546.305 44.0156C546.305 43.6328 546.388 43.2917 546.555 42.9922C546.724 42.6901 546.954 42.4518 547.246 42.2773C547.538 42.1029 547.868 42.0156 548.238 42.0156C548.53 42.0156 548.798 42.0716 549.043 42.1836C549.29 42.2956 549.5 42.4492 549.672 42.6445L549.711 42.0938H550.418V45.8945C550.418 46.332 550.328 46.7096 550.148 47.0273C549.971 47.3477 549.72 47.5951 549.395 47.7695C549.069 47.944 548.684 48.0312 548.238 48.0312C547.611 48.0312 547.057 47.8268 546.578 47.418L546.918 46.7695C547.27 47.1315 547.694 47.3125 548.191 47.3125C548.48 47.3125 548.73 47.2526 548.941 47.1328C549.155 47.013 549.32 46.8451 549.438 46.6289C549.557 46.4154 549.617 46.1628 549.617 45.8711V45.4453C549.445 45.6224 549.241 45.7617 549.004 45.8633C548.767 45.9648 548.51 46.0156 548.234 46.0156ZM548.367 45.3047C548.596 45.3047 548.805 45.2526 548.992 45.1484C549.182 45.0443 549.333 44.9023 549.445 44.7227C549.56 44.5404 549.617 44.3333 549.617 44.1016V43.9258C549.617 43.694 549.56 43.4883 549.445 43.3086C549.333 43.1289 549.182 42.987 548.992 42.8828C548.805 42.7786 548.596 42.7266 548.367 42.7266C548.128 42.7266 547.914 42.7839 547.727 42.8984C547.539 43.0104 547.391 43.1641 547.281 43.3594C547.172 43.5521 547.117 43.7708 547.117 44.0156C547.117 44.2604 547.172 44.4805 547.281 44.6758C547.391 44.8711 547.539 45.0247 547.727 45.1367C547.914 45.2487 548.128 45.3047 548.367 45.3047Z" fill="white"/>
<path d="M453.051 56H452.148L454.531 50.1406H455.453L457.832 56H456.93L456.344 54.5273H453.637L453.051 56ZM453.93 53.7695H456.051L454.988 51.0938L453.93 53.7695ZM459.398 56H458.547V49.9844H459.398V56ZM466.801 51.3945C466.598 51.1966 466.359 51.0456 466.086 50.9414C465.812 50.8346 465.522 50.7812 465.215 50.7812C464.9 50.7812 464.609 50.8359 464.344 50.9453C464.081 51.0547 463.853 51.2109 463.66 51.4141C463.47 51.6172 463.322 51.8581 463.215 52.1367C463.111 52.4154 463.059 52.7227 463.059 53.0586C463.059 53.3945 463.111 53.7031 463.215 53.9844C463.319 54.2656 463.466 54.5091 463.656 54.7148C463.849 54.9206 464.076 55.0794 464.336 55.1914C464.599 55.3034 464.887 55.3594 465.199 55.3594C465.48 55.3594 465.74 55.3138 465.977 55.2227C466.214 55.1315 466.422 55.0013 466.602 54.832C466.781 54.6628 466.927 54.4596 467.039 54.2227C467.151 53.9857 467.223 53.724 467.254 53.4375H465.258V52.7695H468.016L468.039 53.0898C468.039 53.5352 467.97 53.9427 467.832 54.3125C467.694 54.6823 467.497 55.0026 467.242 55.2734C466.99 55.5417 466.689 55.75 466.34 55.8984C465.993 56.0443 465.611 56.1172 465.191 56.1172C464.759 56.1172 464.359 56.0417 463.992 55.8906C463.628 55.737 463.309 55.5234 463.035 55.25C462.764 54.974 462.553 54.651 462.402 54.2812C462.254 53.9115 462.18 53.5104 462.18 53.0781C462.18 52.6406 462.255 52.237 462.406 51.8672C462.557 51.4948 462.768 51.1706 463.039 50.8945C463.312 50.6185 463.633 50.4049 464 50.2539C464.367 50.1003 464.767 50.0234 465.199 50.0234C465.608 50.0234 465.997 50.0938 466.367 50.2344C466.74 50.375 467.07 50.5768 467.359 50.8398L466.801 51.3945ZM472.176 56H471.484L471.438 55.5C471.294 55.6823 471.113 55.8242 470.895 55.9258C470.676 56.0273 470.434 56.0781 470.168 56.0781C469.889 56.0781 469.641 56.0234 469.422 55.9141C469.203 55.8047 469.031 55.6549 468.906 55.4648C468.781 55.2747 468.719 55.0586 468.719 54.8164C468.719 54.5612 468.786 54.3372 468.922 54.1445C469.057 53.9492 469.242 53.7969 469.477 53.6875C469.711 53.5755 469.978 53.5195 470.277 53.5195C470.465 53.5195 470.655 53.5417 470.848 53.5859C471.043 53.6302 471.219 53.6927 471.375 53.7734V53.6289C471.375 53.4388 471.326 53.276 471.227 53.1406C471.13 53.0026 470.997 52.8971 470.828 52.8242C470.661 52.7513 470.477 52.7148 470.273 52.7148C470.094 52.7148 469.91 52.7461 469.723 52.8086C469.538 52.8711 469.363 52.9674 469.199 53.0977L468.957 52.4453C469.194 52.3047 469.44 52.1979 469.695 52.125C469.953 52.0521 470.206 52.0156 470.453 52.0156C470.807 52.0156 471.112 52.0859 471.367 52.2266C471.625 52.3672 471.824 52.5677 471.965 52.8281C472.105 53.0859 472.176 53.3906 472.176 53.7422V56ZM470.324 55.3984C470.509 55.3984 470.68 55.3607 470.836 55.2852C470.992 55.207 471.118 55.0977 471.215 54.957C471.314 54.8138 471.367 54.6471 471.375 54.457V54.4023C471.242 54.3034 471.092 54.2266 470.926 54.1719C470.762 54.1146 470.594 54.0859 470.422 54.0859C470.159 54.0859 469.94 54.1484 469.766 54.2734C469.591 54.3984 469.504 54.5586 469.504 54.7539C469.504 54.8763 469.539 54.987 469.609 55.0859C469.682 55.1823 469.78 55.2591 469.902 55.3164C470.027 55.3711 470.168 55.3984 470.324 55.3984ZM474.027 56H473.227V52.0938H473.926L473.957 52.8359C474.092 52.5781 474.279 52.3776 474.516 52.2344C474.755 52.0885 475.03 52.0156 475.34 52.0156C475.415 52.0156 475.491 52.0208 475.566 52.0312C475.645 52.0391 475.723 52.0521 475.801 52.0703L475.699 52.793C475.548 52.7539 475.4 52.7344 475.254 52.7344C475.012 52.7344 474.798 52.793 474.613 52.9102C474.428 53.0247 474.284 53.1836 474.18 53.3867C474.078 53.5898 474.027 53.8242 474.027 54.0898V56ZM476.414 56V50.1406H477.215V52.6367C477.504 52.2227 477.943 52.0156 478.531 52.0156C479.039 52.0156 479.436 52.1693 479.723 52.4766C480.009 52.7839 480.152 53.2122 480.152 53.7617V56H479.352V53.957C479.352 53.569 479.258 53.2682 479.07 53.0547C478.885 52.8411 478.626 52.7344 478.293 52.7344C477.957 52.7344 477.693 52.8438 477.5 53.0625C477.31 53.2786 477.215 53.5768 477.215 53.957V56H476.414ZM482.977 56.0781C482.586 56.0781 482.234 55.9896 481.922 55.8125C481.609 55.6354 481.363 55.3945 481.184 55.0898C481.004 54.7826 480.914 54.4349 480.914 54.0469C480.914 53.6615 481.004 53.3164 481.184 53.0117C481.363 52.7044 481.609 52.4622 481.922 52.2852C482.234 52.1055 482.586 52.0156 482.977 52.0156C483.37 52.0156 483.721 52.1055 484.031 52.2852C484.341 52.4622 484.585 52.7044 484.762 53.0117C484.941 53.3164 485.031 53.6615 485.031 54.0469C485.031 54.4349 484.941 54.7826 484.762 55.0898C484.585 55.3945 484.341 55.6354 484.031 55.8125C483.721 55.9896 483.37 56.0781 482.977 56.0781ZM482.973 55.3594C483.21 55.3594 483.421 55.3021 483.605 55.1875C483.793 55.0703 483.94 54.9141 484.047 54.7188C484.156 54.5208 484.211 54.2956 484.211 54.043C484.211 53.7956 484.156 53.5742 484.047 53.3789C483.94 53.181 483.793 53.0247 483.605 52.9102C483.421 52.793 483.21 52.7344 482.973 52.7344C482.738 52.7344 482.527 52.793 482.34 52.9102C482.152 53.0247 482.004 53.181 481.895 53.3789C481.788 53.5742 481.734 53.7956 481.734 54.043C481.734 54.2956 481.788 54.5208 481.895 54.7188C482.004 54.9141 482.152 55.0703 482.34 55.1875C482.527 55.3021 482.738 55.3594 482.973 55.3594ZM489.527 56H488.848L488.82 55.3711C488.677 55.6003 488.49 55.776 488.258 55.8984C488.029 56.0182 487.757 56.0781 487.441 56.0781C486.931 56.0781 486.527 55.9232 486.23 55.6133C485.936 55.3008 485.789 54.8737 485.789 54.332V52.0938H486.59V54.2148C486.59 54.5612 486.684 54.8372 486.871 55.043C487.059 55.2487 487.311 55.3516 487.629 55.3516C487.957 55.3516 488.221 55.2422 488.422 55.0234C488.625 54.8021 488.727 54.5117 488.727 54.1523V52.0938H489.527V56ZM494.539 56H493.832L493.789 55.4414C493.612 55.6393 493.398 55.7956 493.148 55.9102C492.901 56.0221 492.629 56.0781 492.332 56.0781C491.957 56.0781 491.621 55.9896 491.324 55.8125C491.027 55.6354 490.793 55.3932 490.621 55.0859C490.452 54.7786 490.367 54.4323 490.367 54.0469C490.367 53.6589 490.452 53.3125 490.621 53.0078C490.793 52.7005 491.027 52.4583 491.324 52.2812C491.621 52.1042 491.957 52.0156 492.332 52.0156C492.613 52.0156 492.874 52.0664 493.113 52.168C493.355 52.2695 493.564 52.4115 493.738 52.5938V50.1406H494.539V56ZM492.465 55.3594C492.702 55.3594 492.915 55.3047 493.105 55.1953C493.298 55.0859 493.452 54.9375 493.566 54.75C493.681 54.5625 493.738 54.349 493.738 54.1094V53.9766C493.738 53.737 493.681 53.5234 493.566 53.3359C493.452 53.1484 493.298 53.0013 493.105 52.8945C492.915 52.7878 492.702 52.7344 492.465 52.7344C492.223 52.7344 492.005 52.7917 491.812 52.9062C491.62 53.0208 491.467 53.1771 491.355 53.375C491.243 53.5703 491.188 53.793 491.188 54.043C491.188 54.293 491.243 54.5169 491.355 54.7148C491.467 54.9128 491.62 55.0703 491.812 55.1875C492.005 55.3021 492.223 55.3594 492.465 55.3594ZM496.074 56.9375H495.508L495.812 55.2812H496.508L496.074 56.9375ZM499.422 56V50.1406H501.188C501.901 50.1406 502.517 50.2591 503.035 50.4961C503.553 50.7305 503.952 51.0664 504.23 51.5039C504.509 51.9414 504.648 52.4635 504.648 53.0703C504.648 53.6745 504.509 54.1966 504.23 54.6367C503.952 55.0742 503.553 55.4115 503.035 55.6484C502.517 55.8828 501.901 56 501.188 56H499.422ZM500.281 55.2422H501.223C501.762 55.2422 502.221 55.1576 502.602 54.9883C502.982 54.8164 503.271 54.569 503.469 54.2461C503.669 53.9206 503.77 53.5286 503.77 53.0703C503.77 52.6094 503.669 52.2174 503.469 51.8945C503.271 51.5716 502.982 51.3255 502.602 51.1562C502.221 50.9844 501.762 50.8984 501.223 50.8984H500.281V55.2422ZM509.34 56H508.66L508.633 55.3711C508.49 55.6003 508.302 55.776 508.07 55.8984C507.841 56.0182 507.569 56.0781 507.254 56.0781C506.743 56.0781 506.34 55.9232 506.043 55.6133C505.749 55.3008 505.602 54.8737 505.602 54.332V52.0938H506.402V54.2148C506.402 54.5612 506.496 54.8372 506.684 55.043C506.871 55.2487 507.124 55.3516 507.441 55.3516C507.77 55.3516 508.034 55.2422 508.234 55.0234C508.438 54.8021 508.539 54.5117 508.539 54.1523V52.0938H509.34V56ZM511.176 56H510.469V50.1406H511.27V52.5938C511.447 52.4115 511.654 52.2695 511.891 52.168C512.13 52.0664 512.391 52.0156 512.672 52.0156C513.049 52.0156 513.385 52.1042 513.68 52.2812C513.974 52.4583 514.206 52.7005 514.375 53.0078C514.547 53.3125 514.633 53.6589 514.633 54.0469C514.633 54.4323 514.547 54.7786 514.375 55.0859C514.206 55.3932 513.974 55.6354 513.68 55.8125C513.385 55.9896 513.049 56.0781 512.672 56.0781C512.375 56.0781 512.102 56.0221 511.852 55.9102C511.604 55.7956 511.392 55.6393 511.215 55.4414L511.176 56ZM512.543 55.3594C512.785 55.3594 513.001 55.3021 513.191 55.1875C513.384 55.0729 513.535 54.9167 513.645 54.7188C513.757 54.5208 513.812 54.2969 513.812 54.0469C513.812 53.7969 513.757 53.5729 513.645 53.375C513.535 53.1771 513.384 53.0208 513.191 52.9062C513.001 52.7917 512.785 52.7344 512.543 52.7344C512.311 52.7344 512.102 52.7865 511.914 52.8906C511.729 52.9948 511.579 53.138 511.465 53.3203C511.35 53.5026 511.285 53.7109 511.27 53.9453V54.1445C511.285 54.3763 511.349 54.5846 511.461 54.7695C511.576 54.9518 511.725 55.0964 511.91 55.2031C512.098 55.3073 512.309 55.3594 512.543 55.3594ZM518.73 56H518.039L517.992 55.5C517.849 55.6823 517.668 55.8242 517.449 55.9258C517.23 56.0273 516.988 56.0781 516.723 56.0781C516.444 56.0781 516.195 56.0234 515.977 55.9141C515.758 55.8047 515.586 55.6549 515.461 55.4648C515.336 55.2747 515.273 55.0586 515.273 54.8164C515.273 54.5612 515.341 54.3372 515.477 54.1445C515.612 53.9492 515.797 53.7969 516.031 53.6875C516.266 53.5755 516.533 53.5195 516.832 53.5195C517.02 53.5195 517.21 53.5417 517.402 53.5859C517.598 53.6302 517.773 53.6927 517.93 53.7734V53.6289C517.93 53.4388 517.88 53.276 517.781 53.1406C517.685 53.0026 517.552 52.8971 517.383 52.8242C517.216 52.7513 517.031 52.7148 516.828 52.7148C516.648 52.7148 516.465 52.7461 516.277 52.8086C516.092 52.8711 515.918 52.9674 515.754 53.0977L515.512 52.4453C515.749 52.3047 515.995 52.1979 516.25 52.125C516.508 52.0521 516.76 52.0156 517.008 52.0156C517.362 52.0156 517.667 52.0859 517.922 52.2266C518.18 52.3672 518.379 52.5677 518.52 52.8281C518.66 53.0859 518.73 53.3906 518.73 53.7422V56ZM516.879 55.3984C517.064 55.3984 517.234 55.3607 517.391 55.2852C517.547 55.207 517.673 55.0977 517.77 54.957C517.868 54.8138 517.922 54.6471 517.93 54.457V54.4023C517.797 54.3034 517.647 54.2266 517.48 54.1719C517.316 54.1146 517.148 54.0859 516.977 54.0859C516.714 54.0859 516.495 54.1484 516.32 54.2734C516.146 54.3984 516.059 54.5586 516.059 54.7539C516.059 54.8763 516.094 54.987 516.164 55.0859C516.237 55.1823 516.335 55.2591 516.457 55.3164C516.582 55.3711 516.723 55.3984 516.879 55.3984ZM520.195 50.9609C520.073 50.9609 519.97 50.918 519.887 50.832C519.803 50.7461 519.762 50.6419 519.762 50.5195C519.762 50.3971 519.803 50.2943 519.887 50.2109C519.97 50.125 520.073 50.082 520.195 50.082C520.32 50.082 520.424 50.125 520.508 50.2109C520.594 50.2943 520.637 50.3971 520.637 50.5195C520.637 50.6419 520.594 50.7461 520.508 50.832C520.424 50.918 520.32 50.9609 520.195 50.9609ZM520.594 56H519.793V52.0938H520.594V56ZM522.145 56.9375H521.578L521.883 55.2812H522.578L522.145 56.9375ZM530.477 50.1406V53.375C530.477 53.9427 530.376 54.4323 530.176 54.8438C529.978 55.2552 529.693 55.5703 529.32 55.7891C528.948 56.0078 528.503 56.1172 527.984 56.1172C527.466 56.1172 527.021 56.0078 526.648 55.7891C526.276 55.5703 525.99 55.2552 525.789 54.8438C525.591 54.4323 525.492 53.9427 525.492 53.375V50.1406H526.352V53.2891C526.352 53.7318 526.415 54.1081 526.543 54.418C526.671 54.7253 526.855 54.9596 527.098 55.1211C527.342 55.2799 527.638 55.3594 527.984 55.3594C528.331 55.3594 528.625 55.2799 528.867 55.1211C529.112 54.9596 529.298 54.7253 529.426 54.418C529.553 54.1081 529.617 53.7318 529.617 53.2891V50.1406H530.477ZM531.973 56H531.07L533.453 50.1406H534.375L536.754 56H535.852L535.266 54.5273H532.559L531.973 56ZM532.852 53.7695H534.973L533.91 51.0938L532.852 53.7695ZM537.469 56V50.1406H541.121V50.8984H538.328V52.6523H540.961V53.4102H538.328V55.2422H541.16V56H537.469Z" fill="white"/>
<defs>
<clipPath id="clip0_3232_21276">
<rect width="197" height="90" fill="white"/>
</clipPath>
<clipPath id="clip1_3232_21276">
<rect width="259" height="67" fill="white" transform="translate(0 23)"/>
</clipPath>
<clipPath id="clip2_3232_21276">
<rect width="595" height="67" fill="white" transform="translate(0 23)"/>
</clipPath>
<clipPath id="clip3_3232_21276">
<rect width="6" height="6" fill="white" transform="translate(179 45)"/>
</clipPath>
<clipPath id="clip4_3232_21276">
<rect width="6" height="6" fill="white" transform="translate(307 45)"/>
</clipPath>
</defs>
</svg>
