<svg width="160" height="178" viewBox="0 0 160 178" fill="none" xmlns="http://www.w3.org/2000/svg">
<g id="User 07a">
<g id="Group 10">
<g id="Group 11">
<g id="Group 11_2">
<g id="Group 2">
<g id="Group 14">
<g id="Path 48">
<path id="Combined Shape" d="M58.6659 103.856V104.143C58.5868 110.222 53.4757 114.793 43.3326 117.856C55.5546 126.745 67.7773 133.856 79.9993 133.856C92.2213 133.856 104.444 126.745 116.666 117.856C106.592 114.789 101.481 110.212 101.333 104.123C101.333 103.037 101.341 101.496 101.348 98.602C101.348 98.1425 101.349 97.6718 101.351 97.19C102.08 97.2927 102.018 97.2274 101.351 97.042C101.371 89.4294 101.404 79.1927 101.449 68.7894C111.004 56.4047 107.494 41.8854 104.5 42.2474C100.83 42.6947 69.0279 12.516 62.9279 10.9687C56.8279 9.42137 41.3326 14.4167 38.6659 28.3334C35.9993 42.25 34.8846 77.3287 44.9993 91.3334C47.8775 95.3187 52.4108 96.8776 58.5993 96.01C58.6079 98.9227 58.6253 100.557 58.6659 103.856Z" fill="url(#paint0_linear_4128_8215)"/>
<g id="Path 48_2">
<path id="Path 48_3" d="M58.6641 96C73.3307 94.3333 82.6641 88 82.6641 88C82.6641 88 72.5707 101.411 58.6641 104V96Z" fill="#FFBE94"/>
</g>
</g>
<g id="Path 22">
<path d="M106.334 69C110.927 57.9534 129.334 35.4554 113.467 21.4554C108.134 -4.54464 78.6675 -1.66664 59.0008 4.33336C45.7828 8.36603 35.8008 16.3334 33.6675 10.3334C20.3341 21.4554 27.0115 32.3334 35.8008 35.4554C43.7781 38.2887 57.2675 41.122 80.2048 38.4554C84.3022 37.9787 83.4442 50.5274 85.6335 51.884C88.9182 53.9194 91.4675 41.122 100.473 44.9647C109.478 48.8074 104.134 66.6247 94.4675 66.6247C91.1342 66.6247 89.4675 75.7894 98.4675 80.1227C105.001 83.3334 103.349 76.178 106.334 69Z" fill="url(#paint1_linear_4128_8215)"/>
<path d="M106.334 69C110.927 57.9534 129.334 35.4554 113.467 21.4554C108.134 -4.54464 78.6675 -1.66664 59.0008 4.33336C45.7828 8.36603 35.8008 16.3334 33.6675 10.3334C20.3341 21.4554 27.0115 32.3334 35.8008 35.4554C43.7781 38.2887 57.2675 41.122 80.2048 38.4554C84.3022 37.9787 83.4442 50.5274 85.6335 51.884C88.9182 53.9194 91.4675 41.122 100.473 44.9647C109.478 48.8074 104.134 66.6247 94.4675 66.6247C91.1342 66.6247 89.4675 75.7894 98.4675 80.1227C105.001 83.3334 103.349 76.178 106.334 69Z" fill="url(#paint2_linear_4128_8215)"/>
</g>
</g>
</g>
</g>
</g>
</g>
<g id="Group 21">
<path id="Combined Shape_2" d="M150 138.205C156.347 151.11 160 180.872 160 180.872H0C0 180.872 3.65467 151.107 10 138.205C16.3453 125.304 53.4 113.338 53.4 113.338C60.542 128 99.7387 128 106.581 113.333C106.581 113.333 143.653 125.301 150 138.205Z" fill="url(#paint3_linear_4128_8215)"/>
<g id="Mask Group">
<mask id="mask0_4128_8215" style="mask-type:alpha" maskUnits="userSpaceOnUse" x="0" y="113" width="160" height="68">
<path id="Combined Shape_3" d="M150 138.205C156.347 151.11 160 180.872 160 180.872H0C0 180.872 3.65467 151.107 10 138.205C16.3453 125.304 53.4 113.338 53.4 113.338C60.542 128 99.7387 128 106.581 113.333C106.581 113.333 143.653 125.301 150 138.205Z" fill="url(#paint4_linear_4128_8215)"/>
</mask>
<g mask="url(#mask0_4128_8215)">
<g id="Group 21_2">
<path id="Combined Shape_4" d="M-6.66406 167.333V162H166.669V167.333H-6.66406ZM-6.66406 154V148.667H166.669V154H-6.66406ZM-6.66406 140.667V135.333H166.669V140.667H-6.66406Z" fill="url(#paint5_linear_4128_8215)"/>
</g>
</g>
</g>
</g>
</g>
<defs>
<linearGradient id="paint0_linear_4128_8215" x1="76.747" y1="10.6981" x2="76.747" y2="133.856" gradientUnits="userSpaceOnUse">
<stop stop-color="#FFD4B3"/>
<stop offset="1" stop-color="#FFDCC2"/>
</linearGradient>
<linearGradient id="paint1_linear_4128_8215" x1="72.9611" y1="80.9122" x2="72.9611" y2="0.258606" gradientUnits="userSpaceOnUse">
<stop stop-color="#E6864E"/>
<stop offset="1" stop-color="#E67240"/>
</linearGradient>
<linearGradient id="paint2_linear_4128_8215" x1="72.9611" y1="80.9122" x2="72.9611" y2="0.258606" gradientUnits="userSpaceOnUse">
<stop offset="0.065" stop-color="#30D5C7"/>
<stop offset="1" stop-color="#30D5C7"/>
</linearGradient>
<linearGradient id="paint3_linear_4128_8215" x1="80" y1="180.872" x2="80" y2="113.333" gradientUnits="userSpaceOnUse">
<stop stop-color="#4A9F95"/>
<stop offset="1" stop-color="#4A9F95"/>
</linearGradient>
<linearGradient id="paint4_linear_4128_8215" x1="80" y1="180.872" x2="80" y2="113.333" gradientUnits="userSpaceOnUse">
<stop stop-color="#4A9F95"/>
<stop offset="1" stop-color="#4A9F95"/>
</linearGradient>
<linearGradient id="paint5_linear_4128_8215" x1="80.0026" y1="135.333" x2="80.0026" y2="167.333" gradientUnits="userSpaceOnUse">
<stop stop-color="#30D5C7"/>
<stop offset="1" stop-color="#30D5C7"/>
</linearGradient>
</defs>
</svg>
