<svg width="1206" height="360" viewBox="0 0 1206 360" fill="none" xmlns="http://www.w3.org/2000/svg">
<g filter="url(#filter0_d_1446_19638)">
<path fill-rule="evenodd" clip-rule="evenodd" d="M1170 220.301L1132.2 199.367C1094.4 180.336 1018.8 138.469 943.2 104.213C867.6 69.9582 792 43.3152 716.4 62.3459C640.8 83.2796 565.2 151.79 489.6 199.367C414 248.847 338.4 275.49 262.8 267.877C187.2 262.168 111.6 220.301 73.7999 199.367L35.9999 180.336V344H73.7999C111.6 344 187.2 344 262.8 344C338.4 344 414 344 489.6 344C565.2 344 640.8 344 716.4 344C792 344 867.6 344 943.2 344C1018.8 344 1094.4 344 1132.2 344H1170V220.301Z" fill="#FAFAFA"/>
</g>
<defs>
<filter id="filter0_d_1446_19638" x="0" y="0" width="1206" height="360" filterUnits="userSpaceOnUse" color-interpolation-filters="sRGB">
<feFlood flood-opacity="0" result="BackgroundImageFix"/>
<feColorMatrix in="SourceAlpha" type="matrix" values="0 0 0 0 0 0 0 0 0 0 0 0 0 0 0 0 0 0 127 0" result="hardAlpha"/>
<feOffset dy="-20"/>
<feGaussianBlur stdDeviation="18"/>
<feComposite in2="hardAlpha" operator="out"/>
<feColorMatrix type="matrix" values="0 0 0 0 0 0 0 0 0 0 0 0 0 0 0 0 0 0 0.04 0"/>
<feBlend mode="normal" in2="BackgroundImageFix" result="effect1_dropShadow_1446_19638"/>
<feBlend mode="normal" in="SourceGraphic" in2="effect1_dropShadow_1446_19638" result="shape"/>
</filter>
</defs>
</svg>
