<svg width="32" height="10" viewBox="0 0 32 10" fill="none" xmlns="http://www.w3.org/2000/svg">
<g id="Logo">
<path id="Shape" d="M16.5441 3.26906C16.5261 4.60631 17.8141 5.3526 18.7844 5.79627C19.7814 6.25154 20.1162 6.54345 20.1124 6.95052C20.1048 7.57362 19.3172 7.84857 18.5799 7.85928C17.2938 7.87802 16.546 7.53345 15.9515 7.27278L15.4882 9.30722C16.0847 9.56521 17.1891 9.79017 18.3345 9.79999C21.0228 9.79999 22.7818 8.55468 22.7913 6.62379C22.8018 4.17336 19.1792 4.03767 19.204 2.94234C19.2125 2.61025 19.5502 2.25586 20.2903 2.16569C20.6566 2.12017 21.6678 2.08535 22.8141 2.5808L23.2641 0.612412C22.6476 0.401737 21.8552 0.199989 20.8687 0.199989C18.3383 0.199989 16.5584 1.46225 16.5441 3.26906ZM27.5877 0.3696C27.0968 0.3696 26.683 0.6383 26.4985 1.05072L22.6581 9.65537H25.3446L25.8792 8.26902H29.1621L29.4722 9.65537H31.84L29.7738 0.3696H27.5877ZM27.9635 2.87806L28.7388 6.36491H26.6155L27.9635 2.87806ZM13.2869 0.3696L11.1693 9.65537H13.7293L15.8459 0.3696H13.2869ZM9.49981 0.3696L6.83523 6.68985L5.75741 1.31585C5.63089 0.715964 5.13146 0.3696 4.57686 0.3696H0.220883L0.16 0.639193C1.05422 0.821302 2.0702 1.115 2.68569 1.42922C3.0624 1.62115 3.16989 1.78898 3.29356 2.24514L5.33504 9.65537L8.04052 9.65537L12.1882 0.3696H9.49981Z" fill="white"/>
</g>
</svg>
